<?xml version="1.0" encoding="utf-8"?>
<!-- Generator: Adobe Illustrator 19.0.1, SVG Export Plug-In . SVG Version: 6.00 Build 0)  -->
<!DOCTYPE svg PUBLIC "-//W3C//DTD SVG 1.1//EN" "http://www.w3.org/Graphics/SVG/1.1/DTD/svg11.dtd">
<svg version="1.1" id="Layer_1" xmlns="http://www.w3.org/2000/svg" xmlns:xlink="http://www.w3.org/1999/xlink" x="0px" y="0px"
	 viewBox="0 0 100 100" style="enable-background:new 0 0 100 100;" xml:space="preserve">
<style type="text/css">
	.st0{fill:#FFFFFF;}
	.st1{fill:#231F20;}
	.st2{fill:#00A651;}
	.st3{fill:#DBDAD6;}
	.st4{fill:#ED1C24;}
	.st5{fill:#010101;}
	.st6{clip-path:url(#SVGID_2_);fill:#019547;}
	.st7{clip-path:url(#SVGID_2_);fill:#FFFFFF;}
	.st8{clip-path:url(#SVGID_4_);fill:#F49129;}
	.st9{clip-path:url(#SVGID_6_);fill:#FFFFFF;}
	.st10{clip-path:url(#SVGID_8_);fill:#00AEEF;}
	.st11{clip-path:url(#SVGID_8_);fill:#FFFFFF;}
	.st12{clip-path:url(#SVGID_10_);fill:#ED1C24;}
	.st13{clip-path:url(#SVGID_12_);fill:#F1646D;}
	.st14{clip-path:url(#SVGID_12_);fill:#FFFFFF;}
</style>
<g>
	<path class="st5" d="M4.5,51.8c-0.8,0-1.6-0.3-2.2-1c-1-1.2-0.9-3,0.3-4.1l45.7-39c1.1-0.9,2.7-0.9,3.8,0l45.3,39
		c1.2,1,1.3,2.9,0.3,4.1c-1,1.2-2.9,1.3-4.1,0.3L50,14.2L6.4,51.1C5.8,51.6,5.2,51.8,4.5,51.8z"/>
	<path class="st5" d="M85.6,52.3L49.9,22L14,52.3c-0.6,0.5-1.2,1.4-1.2,2.2v21.8v0.7v11.6c0,1.6,1.7,2.9,3.3,2.9H50h33.9
		c1.6,0,2.5-1.3,2.5-2.9V77.1v-0.7V54.5C86.5,53.7,86.3,52.9,85.6,52.3z"/>
	<rect x="39.4" y="59.8" class="st0" width="21.2" height="33.2"/>
</g>
</svg>
