<?xml version="1.0" encoding="utf-8"?>
<!-- Generator: Adobe Illustrator 19.0.1, SVG Export Plug-In . SVG Version: 6.00 Build 0)  -->
<!DOCTYPE svg PUBLIC "-//W3C//DTD SVG 1.1//EN" "http://www.w3.org/Graphics/SVG/1.1/DTD/svg11.dtd">
<svg version="1.1" id="Layer_1" xmlns="http://www.w3.org/2000/svg" xmlns:xlink="http://www.w3.org/1999/xlink" x="0px" y="0px"
	 viewBox="0 0 32 32" style="enable-background:new 0 0 32 32;" xml:space="preserve">
<style type="text/css">
	.st0{fill-rule:evenodd;clip-rule:evenodd;}
</style>
<path class="st0" d="M5.3,17.2h3v-4.1v-0.5h0.5h3V8.4V7.9h0.5h3.2v-2c-0.1,0-0.2-0.1-0.3-0.1c-0.6-0.3-1.2-0.9-1.2-1.8
	c0-0.5,0.2-1.1,0.4-1.6c0.3-0.6,0.8-1.2,1.1-1.6L16,0.5l0.4,0.3c0.4,0.4,0.8,0.9,1.1,1.6c0.3,0.5,0.4,1.1,0.4,1.6
	c0,0.9-0.5,1.5-1.2,1.8c-0.1,0-0.2,0.1-0.3,0.1v2h3.2h0.5v0.5v4.1h3h0.5v0.5v4.1h3h0.5v0.5V31v0.5h-0.5H5.3H4.8V31V17.7v-0.5H5.3
	L5.3,17.2z M16.9,4c0-0.4-0.1-0.8-0.3-1.1c-0.2-0.3-0.4-0.7-0.6-0.9c-0.2,0.3-0.4,0.6-0.6,0.9c-0.2,0.4-0.3,0.8-0.3,1.1
	c0,0.5,0.2,0.8,0.5,0.9C15.7,4.9,15.9,5,16,5c0.1,0,0.3,0,0.4-0.1C16.7,4.8,16.9,4.5,16.9,4L16.9,4z M12.8,12.6h6.5V9h-6.5V12.6
	L12.8,12.6z M9.3,17.2h13.4v-3.6H9.3V17.2L9.3,17.2z M5.8,22.9L5.8,22.9c0.5-0.3,1-0.5,1.6-0.5c0.6,0,1.2,0.2,1.6,0.5
	c0.5,0.3,0.8,0.8,1,1.4c0.1,0.4,0.3,0.7,0.6,0.9c0.3,0.2,0.6,0.3,1,0.3s0.7-0.1,1-0.3c0.3-0.2,0.5-0.5,0.6-0.9c0.2-0.6,0.5-1,1-1.4
	c0.5-0.3,1-0.5,1.6-0.5c0.6,0,1.2,0.2,1.6,0.5c0.5,0.3,0.8,0.8,1,1.4c0.1,0.4,0.3,0.7,0.6,0.9c0.3,0.2,0.6,0.3,1,0.3
	c0.4,0,0.7-0.1,1-0.3c0.3-0.2,0.5-0.5,0.6-0.9c0.2-0.6,0.5-1,1-1.4c0.5-0.3,1-0.5,1.6-0.5c0.6,0,1.2,0.2,1.6,0.5l0,0v-4.6H5.8V22.9
	L5.8,22.9z M26.2,24.4c-0.1-0.3-0.3-0.6-0.6-0.8c-0.3-0.2-0.6-0.3-1-0.3c-0.4,0-0.7,0.1-1,0.3c-0.3,0.2-0.5,0.5-0.6,0.9
	c-0.2,0.6-0.5,1-1,1.4c-0.5,0.3-1,0.5-1.6,0.5c-0.6,0-1.2-0.2-1.6-0.5c-0.5-0.3-0.8-0.8-1-1.4c-0.1-0.4-0.3-0.7-0.6-0.9
	c-0.3-0.2-0.6-0.3-1-0.3c-0.4,0-0.7,0.1-1,0.3c-0.3,0.2-0.5,0.5-0.6,0.9c-0.2,0.6-0.5,1-1,1.4c-0.5,0.3-1,0.5-1.6,0.5
	c-0.6,0-1.2-0.2-1.6-0.5c-0.5-0.3-0.8-0.8-1-1.4c-0.1-0.4-0.3-0.7-0.6-0.9c-0.3-0.2-0.6-0.3-1-0.3c-0.4,0-0.7,0.1-1,0.3
	c-0.3,0.2-0.5,0.5-0.6,0.8v6.1h20.4V24.4z"/>
</svg>
