<?xml version="1.0" encoding="utf-8"?>
<!-- Generator: Adobe Illustrator 19.0.1, SVG Export Plug-In . SVG Version: 6.00 Build 0)  -->
<!DOCTYPE svg PUBLIC "-//W3C//DTD SVG 1.1//EN" "http://www.w3.org/Graphics/SVG/1.1/DTD/svg11.dtd">
<svg version="1.1" id="Layer_1" xmlns="http://www.w3.org/2000/svg" xmlns:xlink="http://www.w3.org/1999/xlink" x="0px" y="0px"
	 viewBox="0 0 32 32" style="enable-background:new 0 0 32 32;" xml:space="preserve">
<g>
	<path d="M26.7,22.5l-15.6,0L7.2,7.4l0-0.1l-5.4-3C1.4,4.2,1,4.3,0.9,4.6C0.8,4.8,0.8,5,0.8,5.1c0,0.2,0.2,0.3,0.3,0.4l4.9,2.7
		l4,15.6l16.7,0c0.4,0,0.7-0.3,0.7-0.7C27.4,22.8,27.1,22.5,26.7,22.5z"/>
	<path d="M31,9.7c-0.1-0.2-0.3-0.3-0.5-0.3l-20.4,0c-0.4,0-0.7,0.3-0.7,0.7c0,0.4,0.3,0.7,0.7,0.7l19.5,0l-2.7,8.5l-14.2,0
		c-0.4,0-0.7,0.3-0.7,0.7s0.3,0.7,0.7,0.7l14.7,0c0.3,0,0.5-0.2,0.6-0.5l3.2-9.8C31.2,10.1,31.1,9.9,31,9.7z"/>
	<path d="M23.4,24.4c-1.3,0-2.4,1.1-2.4,2.4c0,1.3,1.1,2.4,2.4,2.4s2.4-1.1,2.4-2.4C25.8,25.4,24.7,24.4,23.4,24.4z M24.5,26.8
		c0,0.6-0.5,1.1-1.1,1.1c-0.6,0-1.1-0.5-1.1-1.1c0-0.6,0.5-1.1,1.1-1.1C24,25.7,24.5,26.2,24.5,26.8z"/>
	<path d="M13.6,24.4c-1.3,0-2.4,1.1-2.4,2.4c0,1.3,1.1,2.4,2.4,2.4c1.3,0,2.4-1.1,2.4-2.4C16,25.4,14.9,24.4,13.6,24.4z M14.7,26.8
		c0,0.6-0.5,1.1-1.1,1.1c-0.6,0-1.1-0.5-1.1-1.1c0-0.6,0.5-1.1,1.1-1.1C14.2,25.7,14.7,26.2,14.7,26.8z"/>
</g>
</svg>
