<?xml version="1.0" encoding="utf-8"?>
<!-- Generator: Adobe Illustrator 19.0.1, SVG Export Plug-In . SVG Version: 6.00 Build 0)  -->
<!DOCTYPE svg PUBLIC "-//W3C//DTD SVG 1.1//EN" "http://www.w3.org/Graphics/SVG/1.1/DTD/svg11.dtd">
<svg version="1.1" id="Layer_1" xmlns="http://www.w3.org/2000/svg" xmlns:xlink="http://www.w3.org/1999/xlink" x="0px" y="0px"
	 viewBox="0 0 36 36" style="enable-background:new 0 0 36 36;" xml:space="preserve">
<g>
	<g>
		<path d="M30.3,28.5H5.7c-2,0-3.7-1.7-3.7-3.7l0-13.3c0-2,1.7-3.7,3.7-3.7l24.6,0c2,0,3.7,1.7,3.7,3.7v13.3
			C34,26.9,32.3,28.5,30.3,28.5z M5.7,9.2c-1.3,0-2.4,1.1-2.4,2.4l0,13.3c0,1.3,1.1,2.4,2.4,2.4l24.6,0c1.3,0,2.4-1.1,2.4-2.4V11.6
			c0-1.3-1.1-2.4-2.4-2.4L5.7,9.2z"/>
	</g>
	<g>
		<path d="M24,21.1H2.6c-0.4,0-0.6-0.3-0.6-0.6c0-0.4,0.3-0.6,0.6-0.6l21.4,0c0.4,0,0.6,0.3,0.6,0.6C24.7,20.8,24.4,21.1,24,21.1z"
			/>
	</g>
	<g>
		<path d="M29.3,21.1h-1.6c-0.4,0-0.6-0.3-0.6-0.6c0-0.4,0.3-0.6,0.6-0.6h1.6c0.4,0,0.6,0.3,0.6,0.6S29.6,21.1,29.3,21.1z"/>
	</g>
	<g>
		<path d="M9.6,15.3H8c-0.4,0-0.6-0.3-0.6-0.6C7.4,14.3,7.7,14,8,14h1.6c0.4,0,0.6,0.3,0.6,0.6S10,15.3,9.6,15.3z"/>
	</g>
	<g>
		<path d="M14.8,15.3h-1.6c-0.4,0-0.6-0.3-0.6-0.6c0-0.4,0.3-0.6,0.6-0.6l1.6,0c0.4,0,0.6,0.3,0.6,0.6C15.4,15,15.1,15.3,14.8,15.3z
			"/>
	</g>
	<g>
		<path d="M20,15.3h-1.6c-0.4,0-0.6-0.3-0.6-0.6c0-0.4,0.3-0.6,0.6-0.6H20c0.4,0,0.6,0.3,0.6,0.6C20.6,15,20.3,15.3,20,15.3z"/>
	</g>
	<g>
		<path d="M33.4,24.1l-30.7,0c-0.4,0-0.6-0.3-0.6-0.6s0.3-0.6,0.6-0.6l30.7,0c0.4,0,0.6,0.3,0.6,0.6S33.7,24.1,33.4,24.1z"/>
	</g>
</g>
</svg>
