<?xml version="1.0" encoding="utf-8"?>
<!-- Generator: Adobe Illustrator 23.0.3, SVG Export Plug-In . SVG Version: 6.00 Build 0)  -->
<svg version="1.1" id="Layer_1" xmlns="http://www.w3.org/2000/svg" xmlns:xlink="http://www.w3.org/1999/xlink" x="0px" y="0px"
	 viewBox="0 0 50 24.44" style="enable-background:new 0 0 50 24.44;" xml:space="preserve">
<g>
	<g>
		<path d="M24.77,1.48V1.5h-0.03c0,0.04-0.03,0.05-0.08,0.05c-0.04,0-0.08-0.02-0.08-0.05V1.46h-0.02v0.03l-0.05-0.05
			c0.07,0,0.07-0.02,0.14,0C24.69,1.45,24.73,1.47,24.77,1.48"/>
		<path d="M23.57,2.89l-0.04-0.02l-0.18-0.01V2.85l0.17,0l-0.05-0.13l-0.28-0.08l0-0.01l0.27,0.06c0-0.03-0.01-0.04-0.01-0.08
			c0-0.03,0.01-0.03,0.01-0.05l-0.01,0.01l-0.26-0.12l0.01-0.01l0.26,0.11l0.04-0.09l-0.27-0.2l0.01-0.01l0.3,0.2l-0.05,0.08
			l-0.01,0.12c0.05-0.06,0.06-0.15,0.16-0.17c-0.03,0.05-0.15,0.12-0.15,0.22c0,0.06,0.03,0.13,0.07,0.15c0-0.1-0.01-0.15,0.04-0.21
			c0,0.05-0.02,0.04-0.02,0.09v0.13C23.56,2.87,23.56,2.87,23.57,2.89"/>
		<path d="M24.4,1.65c0.1,0.01,0.2,0.06,0.2,0.06s-0.01,0.01-0.03,0c-0.02-0.01-0.07-0.02-0.13-0.03c-0.06-0.01-0.13,0-0.14-0.01
			C24.3,1.67,24.3,1.65,24.4,1.65 M24.19,3.35c0,0.03-0.02,0.04-0.04,0.04c-0.06,0-0.07-0.01-0.1-0.04c0,0.04,0,0.05-0.03,0.05
			h-0.04c-0.08,0-0.06-0.14-0.11-0.17l0.04,0.14c-0.01,0.01-0.02,0.03-0.03,0.03c-0.05,0-0.05-0.02-0.15-0.02
			c-0.06,0-0.1-0.13-0.11-0.2c-0.07,0.01-0.06,0.08-0.17,0.08h-0.01c-0.07,0-0.1-0.06-0.1-0.13l0.08-0.04l-0.09,0.01
			c-0.03,0-0.1-0.04-0.1-0.08V2.99c0-0.05,0.16-0.02,0.22-0.08c-0.06,0-0.17,0.04-0.22,0.03c-0.04,0-0.13-0.08-0.13-0.12
			c0-0.03,0.03-0.1,0.05-0.1c0.04,0,0.08,0.04,0.15,0.04c-0.09-0.08-0.23-0.02-0.27-0.21c0.01-0.02,0.05-0.06,0.08-0.06
			c0.04,0,0.02,0.04,0.1,0.04c-0.09-0.07-0.22-0.12-0.22-0.27h0.13c0-0.05-0.12-0.15-0.15-0.29h0.03c0.14,0,0.18,0.2,0.29,0.23
			c-0.09-0.14-0.29-0.25-0.29-0.51c0.05,0.03,0.12,0.05,0.15,0.1c0.02,0.04,0.06,0.13,0.11,0.14c-0.01-0.04-0.11-0.17-0.14-0.24
			c-0.04-0.1-0.07-0.16-0.07-0.3V1.34h0.04c0.03,0,0.03,0.01,0.05,0.01V1.17c0-0.08,0.03-0.14,0.08-0.17
			c0.03,0.06,0.05,0.28,0.07,0.36c0.03,0.1,0.1,0.22,0.12,0.31l0.04-0.01l0.03-0.11c0.02,0.14,0.07,0.33,0.13,0.42
			c0.04,0.07,0.16,0.28,0.16,0.37c0,0.09-0.1,0.15-0.11,0.26c-0.01,0.09,0.06,0.19,0.16,0.19h0.1l0.13-0.02l0,0.21L23.92,3
			c-0.01-0.02-0.03-0.05-0.03-0.07V2.89h-0.02L23.89,3l-0.1-0.01l-0.07-0.12l0.03,0.1l-0.03,0c-0.03,0-0.03-0.02-0.04-0.03
			l-0.01,0.01L23.58,2.9l-0.05,0.05c0.03-0.01,0.05-0.02,0.07-0.02c0.02,0,0.05,0.03,0.05,0.05l0.25,0.03l0.04,0.12
			c0-0.08-0.04-0.13,0.01-0.13l0.08,0l0.03,0.14l0.01,0l-0.03-0.14h0.03C24.09,3.13,24.19,3.28,24.19,3.35 M24.42,3.75l0.03,0.36
			H24.4c-0.11,0-0.24-0.08-0.28-0.14l-0.02-0.09l-0.03,0.26c-0.03,0.04-0.03,0.06-0.09,0.06c-0.01,0.06-0.08,0.11-0.14,0.11V4.28
			c0-0.04,0,0-0.01-0.03c-0.05,0.01-0.02,0.02-0.05,0.02h-0.03V4.14c0-0.12-0.05-0.17-0.05-0.28V3.81c0-0.12,0.08-0.26,0.21-0.26
			h0.03C24.06,3.54,24.2,3.73,24.42,3.75 M23.73,4.16c-0.08-0.02-0.23-0.14-0.32-0.14c-0.06,0-0.09,0.07-0.09,0.11
			c0,0.09,0.06,0.21-0.02,0.23c0,0,0,0-0.01,0.01c-0.06,0.06-0.11,0.01-0.11,0.01c0.05-0.01,0.05-0.04,0.05-0.04s0.01,0,0.01,0
			l-0.03,0l0.06-0.35l-0.12-0.32c0-0.02-0.01-0.02-0.01-0.04c0,0-0.01-0.01-0.01-0.02c0-0.04-0.04-0.05-0.04-0.05
			c0.05-0.05,0.09-0.03,0.12-0.02v0l0.02-0.01V3.51l0-0.04c0,0,0.01-0.03-0.05-0.08c0,0,0.09-0.03,0.13,0.06l0.01,0.05
			c0.04,0,0.08,0,0.08,0.04v0.08c0,0.07-0.02,0.08-0.02,0.15v0.1c0.05,0.01,0.09,0.08,0.14,0.11c0.04,0.02,0.16,0.04,0.16,0.1
			l0.03-0.02c0,0.03,0.01,0.04,0.01,0.08V4.16z M24.34,1.42c0.02,0,0.03,0.01,0.05,0.02V1.37h0.05c0.05,0,0.04-0.02,0.09-0.02h0.03
			c0.08,0,0.1,0.04,0.21,0.04h0.03V0.33c-1.23,0.01-2.11,0.3-2.36,0.39c-0.25,0.1-0.35,0.35-0.35,0.53c0,0.95,0.05,1.82,0.6,3.06
			c0.6,1.34,1.81,2.25,2.11,2.36V4.75l-0.06-0.01l-0.09,0.06l-0.01-0.04c0,0.05-0.03,0.12-0.08,0.13l-0.02-0.19L24.54,4.8
			c-0.03-0.01-0.04-0.02-0.04-0.07V4.62c0-0.06,0.04-0.05,0.04-0.13c-0.04,0.05-0.03,0.11-0.14,0.12L24.38,4.6l0.06-0.1
			c-0.06,0.04-0.07,0.09-0.16,0.09h-0.03c0.01-0.06,0.06-0.04,0.1-0.1c-0.04,0.01-0.1,0.05-0.12,0.05h-0.05V4.52
			c0.14-0.01,0.28-0.16,0.28-0.32v-0.2c0-0.31-0.06-0.39-0.17-0.58c-0.08-0.14-0.21-0.34-0.21-0.56V2.86c0-0.11,0.02-0.22,0.07-0.28
			c0.03-0.04,0.11-0.19,0.15-0.2c0.01,0.05,0.12,0.18,0.17,0.2c-0.05-0.07-0.08-0.1-0.08-0.23c-0.01,0.01-0.02,0.02-0.02,0.03
			l0.01,0.09c-0.04-0.03-0.09-0.09-0.09-0.15c0-0.05,0.1-0.13,0.13-0.15c-0.09,0.01-0.07,0.05-0.12,0.09V2.21
			c0.06-0.09,0.08-0.13,0.2-0.17c0.1-0.03,0.2-0.05,0.2-0.17c0-0.03,0-0.01-0.01-0.04l-0.07-0.05l0,0c-0.01,0-0.02,0-0.02,0
			c-0.15-0.02-0.27-0.02-0.27-0.02s-0.01-0.02,0.05-0.02c0.06,0,0.25,0.02,0.28,0l0-0.01c0-0.02-0.01-0.03-0.07-0.06
			c-0.07-0.03-0.11-0.04-0.15-0.07c-0.04-0.03-0.06-0.05-0.1-0.05c-0.04,0-0.1,0.06-0.1,0.06S24.21,1.43,24.34,1.42"/>
		<path d="M25.86,2.23c-0.29,0-0.52-0.21-0.52-0.46c0-0.18,0.12-0.34,0.29-0.42c-0.12,0.07-0.19,0.18-0.19,0.32
			c0,0.21,0.19,0.37,0.41,0.37c0.23,0,0.41-0.17,0.41-0.37c0-0.14-0.08-0.26-0.2-0.32c0,0,0,0,0,0c-0.01,0-0.01-0.01-0.01-0.01
			c0.2,0.07,0.33,0.24,0.33,0.43C26.38,2.03,26.14,2.23,25.86,2.23 M26.12,2.67c0.07,0.06,0.12,0.15,0.12,0.25
			c0,0.19-0.18,0.35-0.39,0.35c-0.22,0-0.39-0.16-0.39-0.35c0-0.1,0.04-0.19,0.12-0.25c-0.03,0.04-0.05,0.1-0.05,0.15
			c0,0.16,0.14,0.29,0.32,0.29c0.18,0,0.32-0.13,0.32-0.29C26.17,2.77,26.15,2.72,26.12,2.67 M25.86,3.49
			c-0.29,0-0.52-0.21-0.52-0.46c0-0.18,0.12-0.34,0.29-0.42c-0.12,0.07-0.19,0.18-0.19,0.32c0,0.21,0.19,0.37,0.41,0.37
			c0.23,0,0.41-0.17,0.41-0.37c0-0.14-0.08-0.26-0.2-0.32c0,0,0,0,0,0c0,0-0.01-0.01-0.01-0.01c0.2,0.07,0.33,0.24,0.33,0.43
			C26.38,3.28,26.14,3.49,25.86,3.49 M26.17,4.09c0-0.06-0.02-0.11-0.05-0.15C26.2,4,26.24,4.09,26.24,4.18
			c0,0.19-0.18,0.35-0.39,0.35c-0.22,0-0.39-0.16-0.39-0.35c0-0.1,0.04-0.19,0.12-0.25c-0.03,0.04-0.05,0.1-0.05,0.15
			c0,0.16,0.14,0.29,0.32,0.29C26.03,4.38,26.17,4.25,26.17,4.09 M25.86,4.75c-0.29,0-0.52-0.21-0.52-0.46
			c0-0.18,0.12-0.34,0.29-0.42c-0.12,0.07-0.19,0.18-0.19,0.32c0,0.21,0.19,0.37,0.41,0.37c0.23,0,0.41-0.17,0.41-0.37
			c0-0.14-0.08-0.26-0.2-0.32c0,0,0,0,0,0c0,0-0.01-0.01-0.01-0.01c0.2,0.07,0.33,0.24,0.33,0.43C26.38,4.54,26.14,4.75,25.86,4.75
			 M26.12,1.42c0.07,0.06,0.12,0.15,0.12,0.25c0,0.19-0.18,0.35-0.39,0.35c-0.22,0-0.39-0.16-0.39-0.35c0-0.1,0.04-0.19,0.12-0.25
			c-0.03,0.04-0.05,0.1-0.05,0.15c0,0.16,0.14,0.29,0.32,0.29c0.18,0,0.32-0.13,0.32-0.29C26.17,1.51,26.15,1.46,26.12,1.42
			 M27.26,0.72c-0.25-0.09-1.13-0.39-2.36-0.39v6.34c0.31-0.1,1.51-1.02,2.11-2.36c0.55-1.23,0.61-2.1,0.61-3.06
			C27.62,1.07,27.51,0.82,27.26,0.72"/>
		<path d="M24.77,1.48V1.5h-0.03c0,0.04-0.03,0.05-0.08,0.05c-0.04,0-0.08-0.02-0.08-0.05V1.46h-0.02v0.03l-0.05-0.05
			c0.07,0,0.07-0.02,0.14,0C24.69,1.45,24.73,1.47,24.77,1.48"/>
		<path d="M23.57,2.89l-0.04-0.02l-0.18-0.01V2.85l0.17,0l-0.05-0.13l-0.28-0.08l0-0.01l0.27,0.06c0-0.03-0.01-0.04-0.01-0.08
			c0-0.03,0.01-0.03,0.01-0.05l-0.01,0.01l-0.26-0.12l0.01-0.01l0.26,0.11l0.04-0.09l-0.27-0.2l0.01-0.01l0.3,0.2l-0.05,0.08
			l-0.01,0.12c0.05-0.06,0.06-0.15,0.16-0.17c-0.03,0.05-0.15,0.12-0.15,0.22c0,0.06,0.03,0.13,0.07,0.15c0-0.1-0.01-0.15,0.04-0.21
			c0,0.05-0.02,0.04-0.02,0.09v0.13C23.56,2.87,23.56,2.87,23.57,2.89"/>
		<path d="M24.4,1.65c0.1,0.01,0.2,0.06,0.2,0.06s-0.01,0.01-0.03,0c-0.02-0.01-0.07-0.02-0.13-0.03c-0.06-0.01-0.13,0-0.14-0.01
			C24.3,1.67,24.3,1.65,24.4,1.65 M24.19,3.35c0,0.03-0.02,0.04-0.04,0.04c-0.06,0-0.07-0.01-0.1-0.04c0,0.04,0,0.05-0.03,0.05
			h-0.04c-0.08,0-0.06-0.14-0.11-0.17l0.04,0.14c-0.01,0.01-0.02,0.03-0.03,0.03c-0.05,0-0.05-0.02-0.15-0.02
			c-0.06,0-0.1-0.13-0.11-0.2c-0.07,0.01-0.06,0.08-0.17,0.08h-0.01c-0.07,0-0.1-0.06-0.1-0.13l0.08-0.04l-0.09,0.01
			c-0.03,0-0.1-0.04-0.1-0.08V2.99c0-0.05,0.16-0.02,0.22-0.08c-0.06,0-0.17,0.04-0.22,0.03c-0.04,0-0.13-0.08-0.13-0.12
			c0-0.03,0.03-0.1,0.05-0.1c0.04,0,0.08,0.04,0.15,0.04c-0.09-0.08-0.23-0.02-0.27-0.21c0.01-0.02,0.05-0.06,0.08-0.06
			c0.04,0,0.02,0.04,0.1,0.04c-0.09-0.07-0.22-0.12-0.22-0.27h0.13c0-0.05-0.12-0.15-0.15-0.29h0.03c0.14,0,0.18,0.2,0.29,0.23
			c-0.09-0.14-0.29-0.25-0.29-0.51c0.05,0.03,0.12,0.05,0.15,0.1c0.02,0.04,0.06,0.13,0.11,0.14c-0.01-0.04-0.11-0.17-0.14-0.24
			c-0.04-0.1-0.07-0.16-0.07-0.3V1.34h0.04c0.03,0,0.03,0.01,0.05,0.01V1.17c0-0.08,0.03-0.14,0.08-0.17
			c0.03,0.06,0.05,0.28,0.07,0.36c0.03,0.1,0.1,0.22,0.12,0.31l0.04-0.01l0.03-0.11c0.02,0.14,0.07,0.33,0.13,0.42
			c0.04,0.07,0.16,0.28,0.16,0.37c0,0.09-0.1,0.15-0.11,0.26c-0.01,0.09,0.06,0.19,0.16,0.19h0.1l0.13-0.02l0,0.21L23.92,3
			c-0.01-0.02-0.03-0.05-0.03-0.07V2.89h-0.02L23.89,3l-0.1-0.01l-0.07-0.12l0.03,0.1l-0.03,0c-0.03,0-0.03-0.02-0.04-0.03
			l-0.01,0.01L23.58,2.9l-0.05,0.05c0.03-0.01,0.05-0.02,0.07-0.02c0.02,0,0.05,0.03,0.05,0.05l0.25,0.03l0.04,0.12
			c0-0.08-0.04-0.13,0.01-0.13l0.08,0l0.03,0.14l0.01,0l-0.03-0.14h0.03C24.09,3.13,24.19,3.28,24.19,3.35 M24.42,3.75l0.03,0.36
			H24.4c-0.11,0-0.24-0.08-0.28-0.14l-0.02-0.09l-0.03,0.26c-0.03,0.04-0.03,0.06-0.09,0.06c-0.01,0.06-0.08,0.11-0.14,0.11V4.28
			c0-0.04,0,0-0.01-0.03c-0.05,0.01-0.02,0.02-0.05,0.02h-0.03V4.14c0-0.12-0.05-0.17-0.05-0.28V3.81c0-0.12,0.08-0.26,0.21-0.26
			h0.03C24.06,3.54,24.2,3.73,24.42,3.75 M23.73,4.16c-0.08-0.02-0.23-0.14-0.32-0.14c-0.06,0-0.09,0.07-0.09,0.11
			c0,0.09,0.06,0.21-0.02,0.23c0,0,0,0-0.01,0.01c-0.06,0.06-0.11,0.01-0.11,0.01c0.05-0.01,0.05-0.04,0.05-0.04s0.01,0,0.01,0
			l-0.03,0l0.06-0.35l-0.12-0.32c0-0.02-0.01-0.02-0.01-0.04c0,0-0.01-0.01-0.01-0.02c0-0.04-0.04-0.05-0.04-0.05
			c0.05-0.05,0.09-0.03,0.12-0.02v0l0.02-0.01V3.51l0-0.04c0,0,0.01-0.03-0.05-0.08c0,0,0.09-0.03,0.13,0.06l0.01,0.05
			c0.04,0,0.08,0,0.08,0.04v0.08c0,0.07-0.02,0.08-0.02,0.15v0.1c0.05,0.01,0.09,0.08,0.14,0.11c0.04,0.02,0.16,0.04,0.16,0.1
			l0.03-0.02c0,0.03,0.01,0.04,0.01,0.08V4.16z M24.34,1.42c0.02,0,0.03,0.01,0.05,0.02V1.37h0.05c0.05,0,0.04-0.02,0.09-0.02h0.03
			c0.08,0,0.1,0.04,0.21,0.04h0.03V0.33c-1.23,0.01-2.11,0.3-2.36,0.39c-0.25,0.1-0.35,0.35-0.35,0.53c0,0.95,0.05,1.82,0.6,3.06
			c0.6,1.34,1.81,2.25,2.11,2.36V4.75l-0.06-0.01l-0.09,0.06l-0.01-0.04c0,0.05-0.03,0.12-0.08,0.13l-0.02-0.19L24.54,4.8
			c-0.03-0.01-0.04-0.02-0.04-0.07V4.62c0-0.06,0.04-0.05,0.04-0.13c-0.04,0.05-0.03,0.11-0.14,0.12L24.38,4.6l0.06-0.1
			c-0.06,0.04-0.07,0.09-0.16,0.09h-0.03c0.01-0.06,0.06-0.04,0.1-0.1c-0.04,0.01-0.1,0.05-0.12,0.05h-0.05V4.52
			c0.14-0.01,0.28-0.16,0.28-0.32v-0.2c0-0.31-0.06-0.39-0.17-0.58c-0.08-0.14-0.21-0.34-0.21-0.56V2.86c0-0.11,0.02-0.22,0.07-0.28
			c0.03-0.04,0.11-0.19,0.15-0.2c0.01,0.05,0.12,0.18,0.17,0.2c-0.05-0.07-0.08-0.1-0.08-0.23c-0.01,0.01-0.02,0.02-0.02,0.03
			l0.01,0.09c-0.04-0.03-0.09-0.09-0.09-0.15c0-0.05,0.1-0.13,0.13-0.15c-0.09,0.01-0.07,0.05-0.12,0.09V2.21
			c0.06-0.09,0.08-0.13,0.2-0.17c0.1-0.03,0.2-0.05,0.2-0.17c0-0.03,0-0.01-0.01-0.04l-0.07-0.05l0,0c-0.01,0-0.02,0-0.02,0
			c-0.15-0.02-0.27-0.02-0.27-0.02s-0.01-0.02,0.05-0.02c0.06,0,0.25,0.02,0.28,0l0-0.01c0-0.02-0.01-0.03-0.07-0.06
			c-0.07-0.03-0.11-0.04-0.15-0.07c-0.04-0.03-0.06-0.05-0.1-0.05c-0.04,0-0.1,0.06-0.1,0.06S24.21,1.43,24.34,1.42"/>
	</g>
	<path d="M0,13.54V9.51h0.73v3.29h1.74v0.74H0z"/>
	<path d="M6.82,13.54l-0.29-0.87H5.26l-0.29,0.87h-0.8l1.39-4.03h0.67l1.39,4.03H6.82z M5.9,10.79l-0.39,1.14h0.77L5.9,10.79z"/>
	<path d="M14.31,10.73c0,0.19-0.03,0.37-0.09,0.52c-0.06,0.15-0.14,0.28-0.25,0.38c-0.11,0.1-0.23,0.18-0.38,0.24
		c-0.15,0.06-0.3,0.08-0.47,0.08h-0.97v1.59h-0.73V9.51h1.77c0.16,0,0.32,0.03,0.46,0.09c0.14,0.06,0.26,0.15,0.36,0.25
		c0.1,0.11,0.18,0.24,0.23,0.39L14.31,10.73z M13.56,10.73c0-0.15-0.04-0.27-0.11-0.35c-0.08-0.09-0.19-0.13-0.32-0.13h-0.97v0.96
		h0.97c0.14,0,0.25-0.04,0.32-0.13L13.56,10.73z"/>
	<path d="M18.4,13.54l-0.29-0.87h-1.27l-0.29,0.87h-0.8l1.39-4.03h0.67l1.39,4.03H18.4z M17.47,10.79l-0.39,1.14h0.77L17.47,10.79z"
		/>
	<path d="M22.33,10.25v3.29H21.6v-3.29h-1.05V9.51h2.83v0.74H22.33z"/>
	<path d="M24.85,13.54V9.51h0.73v4.03H24.85z"/>
	<path d="M30.05,12.3c0,0.21-0.04,0.4-0.12,0.57c-0.08,0.17-0.19,0.32-0.35,0.44c-0.14,0.11-0.29,0.19-0.48,0.25
		c-0.18,0.06-0.39,0.09-0.61,0.09c-0.12,0-0.23-0.01-0.35-0.03c-0.12-0.02-0.23-0.05-0.34-0.1c-0.11-0.04-0.21-0.1-0.31-0.16
		c-0.1-0.07-0.18-0.14-0.26-0.23c-0.08-0.09-0.14-0.19-0.19-0.3c-0.05-0.11-0.09-0.24-0.1-0.38l0.79-0.08
		c0,0.09,0.03,0.17,0.09,0.23c0.05,0.07,0.12,0.12,0.2,0.16c0.08,0.04,0.16,0.07,0.25,0.09c0.09,0.02,0.16,0.03,0.23,0.03
		c0.07,0,0.16-0.01,0.24-0.02c0.09-0.01,0.17-0.04,0.24-0.08c0.08-0.04,0.14-0.09,0.19-0.16c0.05-0.07,0.07-0.15,0.07-0.26
		c0-0.07-0.01-0.13-0.04-0.18c-0.03-0.05-0.07-0.09-0.12-0.13c-0.08-0.05-0.17-0.1-0.28-0.13c-0.11-0.03-0.24-0.06-0.37-0.09
		c-0.18-0.04-0.34-0.08-0.49-0.13c-0.15-0.05-0.29-0.11-0.41-0.19c-0.07-0.05-0.14-0.11-0.2-0.17c-0.06-0.06-0.11-0.13-0.15-0.21
		c-0.04-0.08-0.07-0.16-0.1-0.25c-0.02-0.09-0.03-0.2-0.03-0.31c0-0.14,0.02-0.26,0.06-0.38s0.1-0.21,0.17-0.3
		c0.07-0.09,0.15-0.16,0.24-0.23c0.09-0.06,0.2-0.12,0.3-0.16c0.1-0.04,0.21-0.07,0.33-0.09c0.11-0.02,0.22-0.03,0.33-0.03
		c0.15,0,0.31,0.02,0.48,0.07c0.16,0.05,0.32,0.12,0.46,0.21c0.14,0.09,0.26,0.21,0.36,0.35c0.1,0.14,0.16,0.3,0.18,0.49l-0.78,0.07
		c0-0.08-0.03-0.14-0.08-0.2c-0.05-0.05-0.11-0.09-0.18-0.13c-0.07-0.03-0.15-0.06-0.23-0.07c-0.08-0.01-0.15-0.02-0.21-0.02
		c-0.06,0-0.12,0-0.19,0.01c-0.07,0.01-0.14,0.03-0.21,0.06c-0.07,0.03-0.12,0.07-0.16,0.12c-0.04,0.05-0.07,0.12-0.07,0.2
		c0,0.05,0.01,0.1,0.04,0.14c0.02,0.04,0.06,0.08,0.1,0.11c0.04,0.03,0.08,0.06,0.13,0.08c0.05,0.02,0.1,0.04,0.15,0.05
		c0.05,0.01,0.1,0.03,0.15,0.04c0.05,0.01,0.09,0.02,0.12,0.02c0.12,0.02,0.24,0.05,0.36,0.08c0.12,0.03,0.23,0.07,0.35,0.12
		c0.11,0.05,0.21,0.1,0.31,0.17c0.1,0.07,0.18,0.14,0.25,0.24c0.07,0.09,0.13,0.2,0.17,0.32L30.05,12.3z"/>
	<path d="M34.17,12.3c0,0.21-0.04,0.4-0.12,0.57c-0.08,0.17-0.19,0.32-0.35,0.44c-0.14,0.11-0.29,0.19-0.48,0.25
		c-0.18,0.06-0.39,0.09-0.61,0.09c-0.12,0-0.23-0.01-0.35-0.03c-0.12-0.02-0.23-0.05-0.34-0.1c-0.11-0.04-0.21-0.1-0.31-0.16
		c-0.1-0.07-0.18-0.14-0.26-0.23c-0.08-0.09-0.14-0.19-0.19-0.3c-0.05-0.11-0.09-0.24-0.1-0.38l0.79-0.08
		c0,0.09,0.03,0.17,0.09,0.23c0.05,0.07,0.12,0.12,0.2,0.16c0.08,0.04,0.16,0.07,0.25,0.09c0.09,0.02,0.16,0.03,0.23,0.03
		c0.07,0,0.16-0.01,0.24-0.02c0.09-0.01,0.17-0.04,0.24-0.08c0.08-0.04,0.14-0.09,0.19-0.16c0.05-0.07,0.07-0.15,0.07-0.26
		c0-0.07-0.01-0.13-0.04-0.18c-0.03-0.05-0.07-0.09-0.12-0.13c-0.08-0.05-0.17-0.1-0.28-0.13c-0.11-0.03-0.24-0.06-0.37-0.09
		c-0.18-0.04-0.34-0.08-0.49-0.13c-0.15-0.05-0.29-0.11-0.41-0.19c-0.07-0.05-0.14-0.11-0.2-0.17c-0.06-0.06-0.11-0.13-0.15-0.21
		c-0.04-0.08-0.07-0.16-0.1-0.25c-0.02-0.09-0.03-0.2-0.03-0.31c0-0.14,0.02-0.26,0.06-0.38s0.1-0.21,0.17-0.3
		c0.07-0.09,0.15-0.16,0.24-0.23c0.09-0.06,0.2-0.12,0.3-0.16c0.1-0.04,0.21-0.07,0.33-0.09c0.11-0.02,0.22-0.03,0.33-0.03
		c0.15,0,0.31,0.02,0.48,0.07c0.16,0.05,0.32,0.12,0.46,0.21c0.14,0.09,0.26,0.21,0.36,0.35c0.1,0.14,0.16,0.3,0.18,0.49l-0.78,0.07
		c0-0.08-0.03-0.14-0.08-0.2c-0.05-0.05-0.11-0.09-0.18-0.13c-0.07-0.03-0.15-0.06-0.23-0.07c-0.08-0.01-0.15-0.02-0.21-0.02
		c-0.06,0-0.12,0-0.19,0.01c-0.07,0.01-0.14,0.03-0.21,0.06c-0.07,0.03-0.12,0.07-0.16,0.12c-0.04,0.05-0.07,0.12-0.07,0.2
		c0,0.05,0.01,0.1,0.04,0.14c0.02,0.04,0.06,0.08,0.1,0.11c0.04,0.03,0.08,0.06,0.13,0.08c0.05,0.02,0.1,0.04,0.15,0.05
		c0.05,0.01,0.1,0.03,0.15,0.04c0.05,0.01,0.09,0.02,0.12,0.02c0.12,0.02,0.24,0.05,0.36,0.08c0.12,0.03,0.23,0.07,0.35,0.12
		c0.11,0.05,0.21,0.1,0.31,0.17c0.1,0.07,0.18,0.14,0.25,0.24c0.07,0.09,0.13,0.2,0.17,0.32L34.17,12.3z"/>
	<path d="M35.64,13.54V9.51h2.71v0.74h-1.97v0.84h1.71v0.75h-1.71v0.97h2.01v0.74H35.64z"/>
	<path d="M42.61,13.54l-0.93-1.59h-0.64v1.59h-0.73V9.51h1.79c0.16,0,0.31,0.03,0.45,0.09c0.14,0.06,0.26,0.15,0.36,0.25
		c0.1,0.11,0.18,0.24,0.23,0.39c0.05,0.15,0.08,0.31,0.08,0.49c0,0.13-0.01,0.25-0.04,0.37c-0.03,0.12-0.08,0.23-0.13,0.33
		c-0.06,0.1-0.13,0.19-0.22,0.26c-0.09,0.08-0.19,0.14-0.3,0.18l0.99,1.67H42.61z M42.47,10.73c0-0.15-0.04-0.27-0.12-0.35
		c-0.08-0.09-0.19-0.13-0.33-0.13h-0.99v0.96h0.99c0.14,0,0.25-0.04,0.33-0.13L42.47,10.73z"/>
	<path d="M44.87,13.54V9.51h0.73v4.03H44.87z"/>
	<path d="M47.26,13.54V9.51h2.71v0.74h-1.97v0.84h1.71v0.75h-1.71v0.97H50v0.74H47.26z"/>
	<g>
		<path d="M22.32,16.31c0.01,0.02,0.02,0.04,0.02,0.06c0,0.02-0.01,0.04-0.02,0.06c-0.01,0.01-0.03,0.02-0.05,0.02c0,0,0,0,0,0
			c-0.02,0-0.04,0.01-0.05,0.01c-0.02,0-0.04,0-0.05,0c-0.02,0-0.04,0-0.05,0s-0.04,0-0.05,0c-0.02,0-0.04,0-0.06,0
			c-0.02,0-0.04,0.01-0.06,0.01c-0.02,0-0.04,0-0.06,0c-0.02,0-0.04,0-0.06,0c-0.02,0-0.04,0-0.06,0c-0.02,0-0.04,0-0.06,0
			c-0.02,0-0.05,0-0.07,0c-0.02,0-0.03-0.01-0.04-0.03c-0.01-0.01-0.02-0.03-0.02-0.05c0,0,0-0.03,0-0.07
			c0-0.02,0.01-0.04,0.01-0.07c0-0.02,0-0.05,0-0.07c0-0.02,0-0.05,0-0.07c0-0.02,0-0.05,0-0.07c0-0.02,0-0.05,0-0.07
			c0-0.02,0.01-0.05,0.01-0.07c0-0.02,0-0.05,0-0.07c0-0.03,0-0.05,0-0.07c0-0.04,0-0.03,0-0.07c0-0.02,0.01-0.04,0.03-0.05
			c0.02-0.02,0.03-0.02,0.05-0.02c0.02,0,0.04,0,0.05,0s0.04,0,0.05,0c0.02,0,0.04,0,0.05,0c0.02,0,0.04,0,0.06,0
			c0.02,0,0.04,0,0.06,0s0.04,0,0.06,0c0.02,0,0.04-0.01,0.06-0.01c0.02,0,0.04,0,0.06,0c0.02,0,0.04,0,0.05,0c0.02,0,0.03,0,0.05,0
			s0.04,0,0.05,0c0.02,0,0.04,0.01,0.05,0.02c0.01,0.01,0.02,0.03,0.02,0.05c0,0.02,0,0.04-0.02,0.06
			c-0.01,0.02-0.03,0.02-0.04,0.02c-0.03,0-0.03,0-0.06,0c-0.03,0-0.03,0-0.06,0c-0.03,0-0.03,0-0.06,0c-0.03,0-0.03,0-0.06,0
			c-0.03,0-0.03,0-0.06,0c-0.03,0-0.03,0-0.06,0c-0.03,0-0.03,0-0.06,0c-0.03,0-0.03,0-0.06,0c-0.03,0-0.05,0.01-0.06,0.03
			c-0.02,0.02-0.03,0.04-0.03,0.07c0,0.01,0,0.01,0,0.03c0,0.02,0.01,0.05,0.02,0.06c0.01,0.01,0.03,0.02,0.06,0.02h0.06
			c0.03,0,0.03,0,0.06,0c0.03,0,0.03,0,0.06,0c0.02,0,0.04,0.01,0.05,0.02c0.01,0.01,0.02,0.03,0.02,0.06
			c0,0.02-0.01,0.04-0.02,0.06c-0.01,0.02-0.02,0.03-0.04,0.03c-0.03,0-0.03-0.01-0.06-0.01h-0.06c-0.03,0-0.06,0.01-0.06,0.01
			c-0.02,0-0.04,0.01-0.05,0.02c-0.01,0.01-0.02,0.04-0.02,0.06c0,0.02,0,0.04,0.01,0.06c0.01,0.02,0.03,0.03,0.06,0.03
			c0,0,0.02,0,0.06,0c0.02,0,0.04,0.01,0.06,0.01c0.02,0,0.04-0.01,0.06-0.01c0.02,0,0.04,0,0.06,0s0.04,0.01,0.06,0.01
			c0.02,0,0.04,0,0.06,0h0.06c0.04,0,0.03,0,0.06,0C22.3,16.28,22.31,16.29,22.32,16.31z"/>
		<path d="M23.38,16.19c0,0.02,0,0.04-0.01,0.06c-0.01,0.02-0.02,0.04-0.03,0.06c-0.01,0.02-0.03,0.04-0.05,0.06
			c-0.02,0.01-0.04,0.03-0.06,0.04c-0.02,0.01-0.04,0.02-0.07,0.02c-0.02,0-0.04,0.01-0.07,0.01c-0.01,0-0.01,0-0.02,0
			c-0.02,0-0.04,0.01-0.06,0.01c-0.02,0-0.04-0.01-0.06-0.01c-0.02,0-0.04,0-0.06-0.01c-0.02,0-0.04,0-0.06-0.01
			c-0.02,0-0.04,0-0.06-0.01c-0.02,0-0.04-0.01-0.05-0.02c-0.02,0-0.04-0.01-0.06-0.01c-0.02-0.01-0.03-0.02-0.04-0.03
			c-0.01-0.02-0.01-0.04-0.01-0.06c0.01-0.02,0.02-0.04,0.03-0.05c0.02-0.01,0.03-0.01,0.05-0.01c0.02,0.01,0.04,0.01,0.06,0.01
			c0.02,0,0.04,0.01,0.06,0.01c0.02,0,0.04,0.01,0.06,0.01c0.02,0,0.04,0,0.05,0c0.02,0,0.04,0,0.05,0c0.02,0,0.04,0,0.05-0.01
			c0.02,0,0.04,0,0.05-0.01c0.02,0,0.04-0.01,0.05-0.01c0.02-0.01,0.04-0.02,0.05-0.03c0.01-0.02,0.01-0.03,0.01-0.04
			c0,0,0-0.01,0-0.01c0,0,0,0,0,0c-0.01-0.03-0.04-0.05-0.07-0.05c-0.02,0-0.04-0.01-0.06-0.01c-0.02,0-0.04,0-0.07,0
			c-0.02,0-0.04-0.01-0.06-0.01c-0.02,0-0.04,0-0.06,0c-0.02,0-0.04,0-0.06-0.01c-0.02,0-0.04-0.01-0.06-0.01
			c-0.03-0.01-0.04-0.01-0.06-0.02c-0.01-0.01-0.03-0.02-0.06-0.05c-0.02-0.02-0.03-0.03-0.04-0.05c-0.01-0.02-0.02-0.04-0.03-0.06
			c-0.01-0.02,0-0.04,0-0.07c0-0.02,0-0.04,0.01-0.07c0.01-0.03,0.03-0.05,0.04-0.06c0.01-0.02,0.03-0.04,0.05-0.05
			c0.02-0.01,0.04-0.03,0.06-0.04c0.02-0.01,0.04-0.01,0.06-0.02c0.03-0.01,0.05-0.01,0.07-0.01c0.03,0,0.05,0,0.07,0
			c0.02,0,0.04,0,0.07,0c0.02,0,0.04,0,0.07,0c0.02,0,0.04,0.01,0.06,0.01c0.02,0,0.04,0.01,0.06,0.01c0.02,0,0.04,0.01,0.06,0.02
			c0.02,0.01,0.03,0.02,0.04,0.04c0.01,0.02,0.01,0.04,0,0.06c-0.01,0.02-0.02,0.03-0.04,0.04c-0.02,0.01-0.03,0.01-0.05,0.01
			c-0.02-0.01-0.04-0.01-0.06-0.01c-0.02,0-0.04-0.01-0.06-0.01c-0.02,0-0.04,0-0.06,0c-0.02,0-0.04,0-0.06,0c-0.02,0-0.04,0-0.06,0
			c-0.02,0-0.03,0-0.05,0c-0.02,0-0.04,0-0.05,0.01c-0.02,0-0.04,0-0.05,0.01c-0.02,0.01-0.03,0.02-0.04,0.04
			c0,0-0.02,0.03-0.02,0.06c0.01,0.03,0.04,0.05,0.05,0.06c0,0,0.02,0,0.09,0.01c0.02,0,0.03,0.01,0.05,0.01c0.02,0,0.03,0,0.05,0
			c0.02,0,0.03,0.01,0.05,0.01l0.06,0c0.02,0,0.04,0,0.06,0c0.02,0,0.04,0.01,0.06,0.02c0.02,0.01,0.04,0.01,0.06,0.03
			c0.02,0.01,0.04,0.03,0.05,0.05c0.01,0.02,0.03,0.04,0.03,0.07C23.39,16.14,23.39,16.16,23.38,16.19z M23.24,16.18
			C23.24,16.18,23.25,16.18,23.24,16.18L23.24,16.18z"/>
		<path d="M24.39,15.61c0.01,0.01,0.02,0.03,0.02,0.06c0,0.02-0.01,0.04-0.02,0.06c-0.01,0.01-0.03,0.02-0.05,0.02h-0.06
			c-0.03,0-0.03-0.01-0.06-0.01c-0.03,0-0.03,0-0.06,0c-0.02,0-0.03,0.01-0.05,0.02c-0.01,0.01-0.02,0.03-0.02,0.05
			c0,0.03,0,0.03,0,0.07c0,0.03,0,0.03,0,0.07c0,0.03,0,0.03,0,0.07c0,0.03,0,0.03,0,0.07c0,0.03,0,0.03,0,0.07v0.07
			c0,0.03,0,0.03,0,0.07c0,0.03,0,0.03,0,0.07c0,0.02-0.01,0.04-0.02,0.06c-0.01,0.01-0.03,0.02-0.05,0.02
			c-0.02,0-0.04-0.01-0.05-0.02c-0.01-0.01-0.02-0.03-0.02-0.05c0-0.03,0-0.03,0-0.07c0-0.03,0-0.03,0-0.07s0-0.03,0-0.07
			c0-0.03,0-0.03,0-0.07s0-0.03,0-0.07c0-0.03,0-0.03,0-0.07v-0.07c0-0.03,0-0.03,0-0.07c0-0.03-0.03-0.06-0.06-0.06
			c-0.03,0-0.03,0-0.06,0c-0.03,0-0.03,0-0.06,0c-0.03,0-0.03,0-0.06,0c-0.02,0-0.04-0.01-0.05-0.02c-0.01-0.01-0.02-0.04-0.02-0.06
			c0-0.02,0.01-0.04,0.03-0.05c0.01-0.01,0.03-0.02,0.05-0.02c0.03,0,0.03,0,0.06,0c0.03,0,0.03,0,0.06,0c0.03,0,0.03,0,0.06,0
			c0.03,0,0.03,0,0.06,0c0.03,0,0.03,0,0.06,0c0.03,0,0.03,0.01,0.06,0.01c0.03,0,0.03,0,0.06,0c0.03,0,0.03,0,0.06,0
			c0.03,0,0.03,0,0.06,0c0.03,0,0.03,0.01,0.06,0.01C24.36,15.59,24.37,15.6,24.39,15.61z"/>
		<path d="M24.75,16.43c-0.04,0-0.07-0.03-0.07-0.08c0-0.04,0.03-0.07,0.07-0.08c0.04,0,0.07,0.03,0.07,0.08
			C24.82,16.39,24.8,16.42,24.75,16.43z"/>
		<path d="M25.79,16.3c0.01,0.01,0.02,0.03,0.02,0.05c0,0.02-0.01,0.04-0.02,0.06c-0.01,0.01-0.03,0.02-0.05,0.02c0,0-0.01,0-0.01,0
			c-0.02,0-0.04,0-0.06,0c-0.02,0-0.04,0-0.06,0s-0.04,0-0.06,0s-0.04,0-0.06,0c-0.02,0-0.04,0-0.06,0s-0.04,0-0.07,0H25.3
			c-0.02,0-0.04,0-0.06,0c-0.02,0-0.04,0-0.07,0c-0.02,0-0.04,0-0.06-0.01c-0.02-0.01-0.03-0.04-0.03-0.07
			c0-0.02,0.01-0.04,0.02-0.05c0.01-0.01,0.03-0.02,0.05-0.03c0.02-0.01,0.04-0.03,0.06-0.05c0.02-0.01,0.04-0.02,0.06-0.04
			c0.02-0.01,0.03-0.03,0.05-0.04l0.05-0.04c0.02-0.01,0.04-0.02,0.06-0.03c0.02-0.01,0.04-0.02,0.05-0.04
			c0.01-0.01,0.02-0.02,0.04-0.03c0.01-0.01,0.03-0.02,0.04-0.03c0.01-0.01,0.03-0.02,0.04-0.03c0.01-0.01,0.03-0.03,0.03-0.05
			c0-0.02-0.01-0.05-0.02-0.06c-0.02-0.03-0.04-0.05-0.05-0.06c-0.02-0.01-0.03-0.02-0.05-0.02c-0.02-0.01-0.03-0.01-0.05-0.01
			c0,0,0,0,0,0c-0.02,0-0.04-0.01-0.05-0.01c-0.02,0-0.04,0.01-0.05,0.01c-0.03,0.01-0.04,0.02-0.05,0.02
			c-0.02,0.01-0.04,0.02-0.06,0.04c-0.02,0.02-0.03,0.04-0.05,0.06c-0.01,0.02-0.03,0.02-0.05,0.03c-0.02,0-0.04,0-0.05-0.01
			c-0.02-0.01-0.02-0.03-0.03-0.05c0-0.02,0-0.04,0.01-0.06c0.01-0.01,0.02-0.03,0.04-0.04c0.01-0.01,0.03-0.03,0.04-0.04
			c0.01-0.01,0.03-0.02,0.04-0.04c0.01-0.01,0.03-0.02,0.05-0.03c0.01-0.01,0.03-0.01,0.06-0.02c0.02-0.01,0.04-0.02,0.06-0.02
			c0.02,0,0.04,0,0.06,0c0.02,0,0.04,0,0.06,0c0,0,0,0,0,0c0.02,0,0.03,0.01,0.06,0.01c0.02,0,0.04,0.01,0.05,0.02
			c0.02,0.01,0.03,0.01,0.05,0.03c0.01,0.01,0.03,0.02,0.06,0.05c0.01,0.02,0.03,0.04,0.04,0.06c0.01,0.01,0.02,0.03,0.02,0.06
			c0.01,0.02,0.01,0.03,0.01,0.05c0,0.02,0,0.03,0,0.05c0,0.02-0.01,0.05-0.02,0.07c-0.01,0.02-0.02,0.04-0.04,0.06
			c-0.02,0.02-0.04,0.03-0.05,0.04c-0.02,0.02-0.02,0.02-0.05,0.03c-0.02,0.02-0.02,0.02-0.05,0.03c-0.02,0.02-0.03,0.01-0.05,0.03
			c-0.02,0.02-0.02,0.02-0.05,0.04c-0.02,0.02-0.03,0.01-0.05,0.03c-0.01,0.01-0.01,0.03,0.01,0.03c0.03,0,0.03,0,0.06,0
			c0.03,0,0.03,0,0.06,0c0.03,0,0.03,0,0.06,0c0.03,0,0.03,0,0.06,0c0.03,0,0.03,0,0.06,0C25.76,16.28,25.78,16.29,25.79,16.3z"/>
		<path d="M26.67,15.78c0.01,0.02,0.02,0.04,0.03,0.06c0.01,0.02,0.01,0.04,0.02,0.06c0.01,0.02,0.01,0.04,0.01,0.06s0,0.04,0,0.06
			c0,0.02,0,0.04,0,0.06c0,0.02,0,0.04-0.01,0.06c-0.01,0.02-0.01,0.04-0.02,0.06c-0.01,0.02-0.02,0.04-0.03,0.05
			c-0.01,0.02-0.02,0.03-0.03,0.05c-0.02,0.02-0.03,0.04-0.05,0.05c-0.02,0.02-0.04,0.03-0.06,0.04c-0.02,0.01-0.04,0.02-0.07,0.03
			c-0.02,0.01-0.05,0.01-0.07,0.01c-0.02,0-0.05,0-0.07-0.01c-0.02-0.01-0.04-0.02-0.06-0.03c-0.02-0.01-0.04-0.02-0.06-0.03
			c-0.02-0.02-0.03-0.04-0.05-0.06c-0.01-0.02-0.02-0.03-0.03-0.05c-0.01-0.02-0.02-0.04-0.03-0.06c-0.01-0.02-0.01-0.04-0.02-0.06
			c-0.01-0.02-0.01-0.04-0.01-0.06c0-0.02-0.01-0.04-0.01-0.06c0-0.02,0.01-0.04,0.01-0.06c0-0.02,0-0.04,0.01-0.06
			c0.01-0.02,0.01-0.04,0.02-0.06c0.01-0.02,0.02-0.04,0.03-0.06c0.01-0.02,0.02-0.04,0.03-0.05c0.02-0.02,0.03-0.04,0.05-0.05
			c0.02-0.02,0.04-0.03,0.06-0.04c0.02-0.01,0.04-0.02,0.07-0.02c0.02-0.01,0.05-0.01,0.07-0.01c0.02,0,0.05,0,0.07,0
			c0.02,0.01,0.04,0.02,0.06,0.03c0.02,0.01,0.04,0.02,0.06,0.04c0.02,0.01,0.04,0.03,0.05,0.05
			C26.65,15.74,26.66,15.76,26.67,15.78z M26.58,16.07c0-0.02,0.01-0.03,0.01-0.05c0-0.02-0.01-0.04-0.01-0.05
			c0-0.02,0-0.04-0.01-0.05c-0.01-0.03-0.03-0.06-0.05-0.08c-0.01-0.01-0.02-0.03-0.03-0.04c-0.01-0.01-0.03-0.02-0.05-0.02
			c-0.02-0.01-0.03-0.01-0.05-0.01c-0.02,0-0.03,0-0.05,0.01c-0.02,0.01-0.03,0.01-0.05,0.03c-0.01,0.01-0.02,0.03-0.03,0.04
			c-0.02,0.02-0.04,0.05-0.05,0.08c-0.01,0.02-0.01,0.03-0.01,0.05c0,0.02-0.01,0.03-0.01,0.05c0,0.02,0,0.04,0,0.05
			c0,0.02,0.01,0.03,0.01,0.05c0.01,0.03,0.03,0.06,0.05,0.08c0.01,0.01,0.03,0.02,0.04,0.03c0.01,0.01,0.03,0.02,0.04,0.03
			c0.02,0.01,0.03,0.01,0.05,0.01c0.02,0,0.03-0.01,0.05-0.01c0.02-0.01,0.03-0.01,0.05-0.02c0.01-0.01,0.03-0.02,0.04-0.04
			c0.02-0.02,0.03-0.05,0.04-0.08C26.58,16.11,26.58,16.09,26.58,16.07z"/>
		<path d="M27.59,15.78c0.01,0.02,0.02,0.04,0.03,0.06c0.01,0.02,0.01,0.04,0.02,0.06c0.01,0.02,0.01,0.04,0.01,0.06s0,0.04,0,0.06
			c0,0.02,0,0.04,0,0.06c0,0.02,0,0.04-0.01,0.06c-0.01,0.02-0.01,0.04-0.02,0.06c-0.01,0.02-0.02,0.04-0.03,0.05
			c-0.01,0.02-0.02,0.03-0.03,0.05c-0.02,0.02-0.03,0.04-0.05,0.05c-0.02,0.02-0.04,0.03-0.06,0.04c-0.02,0.01-0.04,0.02-0.07,0.03
			c-0.02,0.01-0.05,0.01-0.07,0.01c-0.02,0-0.05,0-0.07-0.01c-0.02-0.01-0.04-0.02-0.06-0.03c-0.02-0.01-0.04-0.02-0.06-0.03
			c-0.02-0.02-0.03-0.04-0.05-0.06c-0.01-0.02-0.02-0.03-0.03-0.05c-0.01-0.02-0.02-0.04-0.03-0.06c-0.01-0.02-0.01-0.04-0.02-0.06
			c-0.01-0.02-0.01-0.04-0.01-0.06c0-0.02-0.01-0.04-0.01-0.06c0-0.02,0.01-0.04,0.01-0.06c0-0.02,0-0.04,0.01-0.06
			c0.01-0.02,0.01-0.04,0.02-0.06c0.01-0.02,0.02-0.04,0.03-0.06c0.01-0.02,0.02-0.04,0.03-0.05c0.02-0.02,0.03-0.04,0.05-0.05
			c0.02-0.02,0.04-0.03,0.06-0.04c0.02-0.01,0.04-0.02,0.07-0.02c0.02-0.01,0.05-0.01,0.07-0.01c0.02,0,0.05,0,0.07,0
			c0.02,0.01,0.04,0.02,0.06,0.03c0.02,0.01,0.04,0.02,0.06,0.04c0.02,0.01,0.04,0.03,0.05,0.05
			C27.56,15.74,27.58,15.76,27.59,15.78z M27.5,16.07c0-0.02,0.01-0.03,0.01-0.05c0-0.02-0.01-0.04-0.01-0.05
			c0-0.02,0-0.04-0.01-0.05c-0.01-0.03-0.03-0.06-0.05-0.08c-0.01-0.01-0.02-0.03-0.03-0.04c-0.01-0.01-0.03-0.02-0.05-0.02
			c-0.02-0.01-0.03-0.01-0.05-0.01c-0.02,0-0.03,0-0.05,0.01c-0.02,0.01-0.03,0.01-0.05,0.03c-0.01,0.01-0.02,0.03-0.03,0.04
			c-0.02,0.02-0.04,0.05-0.05,0.08c-0.01,0.02-0.01,0.03-0.01,0.05c0,0.02-0.01,0.03-0.01,0.05c0,0.02,0,0.04,0,0.05
			c0,0.02,0.01,0.03,0.01,0.05c0.01,0.03,0.03,0.06,0.05,0.08c0.01,0.01,0.03,0.02,0.04,0.03c0.01,0.01,0.03,0.02,0.04,0.03
			c0.02,0.01,0.03,0.01,0.05,0.01c0.02,0,0.03-0.01,0.05-0.01c0.02-0.01,0.03-0.01,0.05-0.02c0.01-0.01,0.03-0.02,0.04-0.04
			c0.02-0.02,0.03-0.05,0.04-0.08C27.49,16.11,27.49,16.09,27.5,16.07z"/>
		<path d="M28.61,16.23c0,0.02-0.01,0.04-0.02,0.06c-0.01,0.02-0.02,0.04-0.03,0.05c-0.02,0.03-0.05,0.04-0.06,0.05
			c-0.02,0.01-0.04,0.03-0.06,0.04c-0.02,0.01-0.05,0.02-0.07,0.02c-0.03,0-0.05,0-0.08,0c-0.01,0-0.03,0-0.04,0
			c-0.02,0-0.04-0.01-0.06-0.01c-0.02,0-0.04,0-0.06-0.01c-0.02,0-0.04-0.01-0.06-0.02c-0.02-0.01-0.04-0.02-0.05-0.03
			c-0.02-0.01-0.03-0.03-0.05-0.05c-0.02-0.02-0.03-0.03-0.05-0.05c-0.01-0.02-0.02-0.04-0.02-0.06c0-0.02,0.01-0.04,0.03-0.05
			c0.02-0.01,0.03-0.02,0.05-0.02c0.02,0,0.04,0.01,0.05,0.03c0.02,0.02,0.04,0.04,0.06,0.06c0.02,0.01,0.03,0.02,0.05,0.03
			c0.02,0.01,0.04,0.01,0.05,0.01c0.02,0,0.04,0,0.06,0c0.02,0,0.04,0,0.06,0c0.02,0,0.04,0,0.06-0.01c0.02,0,0.04-0.01,0.06-0.02
			c0.02-0.01,0.04-0.04,0.05-0.07c0,0,0.01-0.02,0-0.05c-0.01-0.02-0.03-0.05-0.06-0.07c-0.02-0.01-0.04-0.02-0.06-0.03
			c-0.02-0.01-0.04-0.01-0.06-0.02c-0.02,0-0.04,0-0.06-0.01c-0.02-0.01-0.03-0.02-0.04-0.04c-0.01-0.02-0.02-0.04-0.02-0.06
			c0-0.02,0.01-0.04,0.03-0.05l0.05-0.04c0.02-0.02,0.03-0.02,0.05-0.04c0.02-0.01,0-0.04-0.02-0.04c-0.02,0-0.04,0-0.06,0
			c-0.02,0-0.04,0-0.06,0c-0.02,0-0.04,0-0.06,0c-0.02,0-0.05,0-0.07,0c-0.03,0-0.05,0-0.07-0.01c-0.02,0-0.04-0.01-0.06-0.02
			c-0.02-0.01-0.02-0.03-0.02-0.06c0-0.02,0.01-0.05,0.03-0.06c0.02-0.02,0.05-0.01,0.07-0.01c0.02,0,0.04,0,0.07,0
			c0.02,0,0.04,0,0.07,0c0.02,0,0.04,0,0.07,0c0.02,0,0.04,0,0.06,0c0.02,0,0.04,0,0.06,0c0.02,0,0.04,0,0.06,0
			c0.02,0,0.04,0,0.06,0c0.02,0,0.04,0,0.06,0c0.02,0,0.04,0,0.06,0c0.02,0.01,0.04,0.02,0.05,0.04c0.01,0.02,0.02,0.05,0.01,0.07
			c-0.01,0.02-0.03,0.04-0.05,0.06c-0.02,0.02-0.04,0.03-0.05,0.05c-0.01,0.01-0.03,0.02-0.04,0.03l-0.04,0.04
			c-0.01,0.01-0.01,0.02,0.01,0.02c0.02,0.01,0.03,0.02,0.05,0.03c0.02,0.01,0.04,0.03,0.06,0.04c0.02,0.02,0.03,0.03,0.04,0.05
			c0.01,0.02,0.02,0.04,0.03,0.06c0.01,0.02,0.01,0.05,0.01,0.06C28.61,16.2,28.61,16.22,28.61,16.23z"/>
	</g>
	<g>
		<path d="M17.27,22.01c-0.04-0.02-0.07-0.05-0.1-0.07c-0.03-0.03-0.06-0.06-0.09-0.09c-0.03-0.03-0.05-0.06-0.08-0.1
			c-0.04-0.05-0.08-0.1-0.1-0.16c-0.03-0.06-0.04-0.12-0.05-0.18c-0.02-0.06-0.03-0.13-0.03-0.19c0-0.07,0.02-0.13,0.02-0.2
			c0.01-0.05,0.02-0.09,0.03-0.13c0.01-0.04,0.02-0.09,0.04-0.13c0.02-0.04,0.03-0.08,0.06-0.12c0.02-0.04,0.05-0.08,0.08-0.11
			c0.03-0.04,0.05-0.07,0.09-0.11c0.03-0.03,0.06-0.07,0.1-0.09c0.05-0.04,0.11-0.07,0.17-0.1c0.06-0.03,0.11-0.07,0.17-0.09
			c0.06-0.02,0.12-0.03,0.19-0.03c0.06-0.01,0.12-0.01,0.19,0c0.04,0,0.08,0.01,0.13,0.02c0.04,0.01,0.08,0.02,0.12,0.04
			c0.04,0.01,0.08,0.04,0.11,0.06c0.05,0.03,0.08,0.06,0.13,0.09c0.04,0.03,0.08,0.07,0.11,0.11c0.03,0.04,0.06,0.09,0.08,0.13
			c0.03,0.05,0.05,0.09,0.07,0.14c0.02,0.05,0.04,0.1,0.05,0.15c0.01,0.05,0.01,0.11,0.01,0.16c0,0.05-0.01,0.1-0.04,0.14
			c-0.03,0.04-0.08,0.06-0.13,0.07c-0.04,0-0.07,0-0.11-0.01c-0.05-0.03-0.07-0.09-0.08-0.15c0-0.05-0.02-0.1-0.03-0.14
			c-0.01-0.05-0.02-0.1-0.05-0.14c-0.02-0.04-0.06-0.08-0.1-0.11c-0.03-0.03-0.07-0.07-0.11-0.09c-0.05-0.03-0.1-0.04-0.15-0.06
			c-0.05-0.01-0.1-0.02-0.16-0.02c-0.05,0-0.11,0.01-0.16,0.03c-0.05,0.02-0.1,0.05-0.15,0.07c-0.05,0.03-0.1,0.06-0.14,0.1
			c-0.04,0.04-0.06,0.09-0.09,0.14c-0.03,0.05-0.05,0.1-0.07,0.15c-0.02,0.06-0.03,0.11-0.03,0.16c0,0.05,0,0.11,0.01,0.17
			c0.01,0.05,0.03,0.11,0.06,0.15c0.02,0.05,0.06,0.08,0.1,0.12c0.04,0.04,0.07,0.07,0.12,0.1c0.04,0.03,0.09,0.04,0.14,0.06
			c0.05,0.01,0.1,0.02,0.15,0.02c0.05,0,0.1-0.01,0.15-0.02c0.05-0.01,0.1-0.04,0.15-0.06c0.04-0.02,0.09-0.03,0.13-0.01
			c0.04,0.01,0.09,0.04,0.11,0.08c0.02,0.05,0.02,0.1,0.01,0.15c-0.02,0.05-0.05,0.09-0.1,0.12c-0.05,0.03-0.1,0.04-0.15,0.06
			c-0.05,0.02-0.1,0.04-0.16,0.04c-0.05,0.01-0.11,0.03-0.16,0.03c-0.06,0-0.11-0.01-0.16-0.02c-0.05-0.01-0.1-0.03-0.15-0.05
			C17.37,22.06,17.32,22.04,17.27,22.01z"/>
		<path d="M20.6,23.32c-0.03,0.04-0.06,0.07-0.11,0.08c-0.03,0.01-0.06,0.01-0.09-0.01c-0.06-0.02-0.11-0.06-0.12-0.13
			c-0.01-0.08-0.01-0.07-0.03-0.16c-0.01-0.05-0.02-0.11-0.03-0.17c-0.01-0.05-0.01-0.11-0.02-0.16c-0.01-0.06-0.01-0.12-0.02-0.17
			c-0.01-0.05-0.02-0.09-0.04-0.12c-0.04-0.06-0.04-0.06-0.09-0.07c-0.07-0.02-0.07-0.03-0.14-0.06c-0.07-0.03-0.07-0.02-0.14-0.05
			c-0.07-0.03-0.07-0.02-0.14-0.05c-0.07-0.03-0.07-0.03-0.13-0.06c-0.07-0.03-0.16,0.02-0.19,0.1c-0.03,0.07-0.04,0.07-0.06,0.14
			l-0.05,0.14c-0.03,0.07-0.01,0.07-0.04,0.15c-0.02,0.05-0.06,0.09-0.1,0.11c-0.04,0.02-0.09,0.04-0.14,0.02
			c-0.05-0.02-0.08-0.06-0.1-0.1c-0.02-0.05-0.02-0.1,0-0.15c0.03-0.08,0.04-0.08,0.07-0.16c0.03-0.08,0.02-0.08,0.05-0.16
			c0.03-0.08,0.04-0.08,0.07-0.16c0.03-0.08,0.02-0.08,0.05-0.16c0.03-0.08,0.04-0.08,0.07-0.15c0.03-0.08,0.03-0.08,0.06-0.16
			c0.03-0.08,0.02-0.08,0.05-0.16c0.03-0.08,0.03-0.08,0.06-0.16c0.03-0.08,0.04-0.08,0.07-0.16l0.06-0.16
			c0.02-0.04,0.04-0.08,0.07-0.1c0.03-0.02,0.06-0.02,0.09-0.03c0.04,0,0.07,0.01,0.1,0.02c0.04,0.02,0.09,0.03,0.13,0.04
			c0.04,0.02,0.08,0.04,0.12,0.05c0.05,0.02,0.1,0.03,0.14,0.05c0.04,0.02,0.09,0.04,0.14,0.06c0.05,0.02,0.09,0.04,0.14,0.06
			c0.04,0.02,0.09,0.03,0.14,0.04c0.04,0.02,0.09,0.03,0.13,0.04c0.04,0.02,0.08,0.05,0.12,0.07c0.04,0.02,0.09,0.04,0.12,0.07
			c0.04,0.03,0.07,0.06,0.09,0.09c0.03,0.04,0.06,0.07,0.08,0.11c0.02,0.05,0.03,0.1,0.05,0.15c0.01,0.05,0.01,0.1,0.01,0.16
			c0,0.05,0,0.11-0.02,0.16c-0.02,0.06-0.03,0.11-0.06,0.16c-0.03,0.05-0.06,0.1-0.1,0.14c-0.04,0.04-0.09,0.06-0.14,0.09
			c-0.05,0.03-0.11,0.05-0.17,0.06c-0.04,0.01-0.08,0.06-0.08,0.11c0.01,0.07,0.02,0.07,0.03,0.14c0.01,0.07,0,0.07,0.01,0.15
			c0.01,0.07,0.01,0.07,0.03,0.14c0.01,0.07,0.02,0.07,0.03,0.14C20.64,23.23,20.62,23.28,20.6,23.32z M19.59,21.55
			c-0.02,0.04-0.02,0.09-0.01,0.14c0.01,0.04,0.02,0.09,0.05,0.12c0.02,0.04,0.06,0.07,0.1,0.08c0.07,0.03,0.07,0.02,0.13,0.05
			c0.07,0.02,0.07,0.02,0.14,0.04c0.07,0.03,0.06,0.03,0.13,0.06c0.07,0.02,0.07,0.02,0.13,0.04c0.04,0.02,0.08,0.03,0.12,0.04
			c0.05,0.01,0.09,0.01,0.13,0.01c0.05,0,0.09,0,0.12-0.02c0.07-0.04,0.1-0.12,0.11-0.15c0.01-0.04,0.01-0.1-0.02-0.16
			c-0.02-0.04-0.06-0.07-0.1-0.1c-0.04-0.03-0.08-0.05-0.13-0.07c-0.04-0.02-0.09-0.05-0.13-0.06c-0.04-0.02-0.08-0.03-0.12-0.05
			c-0.04-0.02-0.08-0.03-0.12-0.05c-0.04-0.02-0.09-0.02-0.13-0.03c-0.04-0.02-0.08-0.04-0.12-0.06c-0.05-0.02-0.11-0.01-0.15,0.02
			c-0.05,0.02-0.08,0.07-0.1,0.12C19.6,21.53,19.6,21.53,19.59,21.55z"/>
		<path d="M22.17,21.76c0.02,0.04,0.04,0.09,0.03,0.14c-0.02,0.08-0.02,0.08-0.04,0.16c-0.02,0.08-0.03,0.08-0.05,0.16
			c-0.02,0.08-0.01,0.08-0.03,0.17c-0.02,0.08-0.02,0.08-0.04,0.17c-0.02,0.08-0.03,0.08-0.05,0.16c-0.02,0.08-0.01,0.08-0.03,0.17
			c-0.02,0.08-0.02,0.08-0.04,0.17c-0.02,0.08-0.03,0.08-0.05,0.16c-0.02,0.08-0.01,0.08-0.03,0.16c-0.02,0.08-0.02,0.08-0.04,0.17
			c-0.01,0.05-0.05,0.09-0.09,0.12c-0.04,0.03-0.09,0.05-0.13,0.04c-0.05-0.01-0.08-0.05-0.11-0.09c-0.02-0.04-0.04-0.09-0.03-0.14
			c0.02-0.08,0.03-0.08,0.05-0.16l0.04-0.17c0.02-0.08,0.02-0.08,0.04-0.16c0.02-0.08,0.01-0.09,0.03-0.17
			c0.02-0.08,0.02-0.08,0.04-0.16c0.02-0.08,0.02-0.08,0.04-0.17c0.02-0.08,0.02-0.08,0.04-0.17c0.02-0.08,0.01-0.08,0.03-0.17
			c0.02-0.08,0.03-0.08,0.05-0.16c0.02-0.08,0.01-0.08,0.03-0.17c0.01-0.05,0.05-0.09,0.09-0.12c0.04-0.03,0.09-0.03,0.13-0.02
			C22.11,21.69,22.15,21.72,22.17,21.76z"/>
		<path d="M24.7,22.1c0.03,0.04,0.04,0.09,0.04,0.14c-0.01,0.09,0,0.09-0.01,0.17c-0.01,0.09-0.02,0.08-0.03,0.17
			c-0.01,0.09,0,0.09-0.01,0.17c-0.01,0.09-0.01,0.09-0.02,0.17c-0.01,0.09,0,0.09-0.01,0.17c-0.01,0.09-0.01,0.09-0.02,0.17
			s0,0.08-0.01,0.17c-0.01,0.08-0.01,0.08-0.02,0.17c-0.01,0.08,0,0.08-0.01,0.17c-0.01,0.08-0.01,0.08-0.01,0.17
			c-0.01,0.05-0.04,0.09-0.08,0.12c-0.03,0.03-0.08,0.05-0.12,0.05c-0.04,0-0.08-0.02-0.11-0.05c-0.01-0.01-0.01-0.02-0.01-0.03
			c-0.05-0.07-0.05-0.06-0.09-0.13c-0.05-0.06-0.06-0.06-0.11-0.12c-0.05-0.07-0.04-0.07-0.09-0.14c-0.05-0.06-0.05-0.06-0.1-0.13
			c-0.05-0.06-0.05-0.06-0.1-0.13c-0.05-0.07-0.04-0.07-0.09-0.13c-0.05-0.06-0.04-0.07-0.09-0.13c-0.05-0.07-0.05-0.06-0.1-0.13
			c-0.05-0.06-0.05-0.06-0.1-0.13c-0.05-0.06-0.05-0.06-0.1-0.13c-0.03-0.04-0.07-0.05-0.11-0.04c-0.04,0.01-0.07,0.05-0.07,0.1
			c-0.01,0.08,0,0.08-0.01,0.17c-0.01,0.08-0.01,0.08-0.02,0.16c-0.01,0.08-0.02,0.08-0.02,0.16c-0.01,0.08-0.01,0.08-0.01,0.17
			c-0.01,0.08-0.01,0.08-0.01,0.16c-0.01,0.08-0.01,0.08-0.01,0.17c-0.01,0.05-0.03,0.1-0.07,0.13c-0.03,0.03-0.08,0.05-0.13,0.04
			c-0.05,0-0.09-0.03-0.12-0.06c-0.03-0.04-0.04-0.09-0.03-0.14c0.01-0.09,0.01-0.09,0.01-0.17c0.01-0.09,0.01-0.09,0.02-0.17
			c0.01-0.08,0-0.08,0.01-0.17l0.02-0.17c0.01-0.08,0.01-0.08,0.02-0.17c0.01-0.09,0.01-0.09,0.02-0.17c0.01-0.09,0-0.09,0.01-0.17
			c0.01-0.08,0.01-0.08,0.02-0.17c0.01-0.08,0.01-0.08,0.02-0.17c0.01-0.08,0-0.08,0.01-0.17c0.01-0.05,0.03-0.1,0.07-0.14
			c0.03-0.03,0.08-0.05,0.13-0.05c0.02,0,0.05,0.02,0.07,0.03c0.03,0.01,0.07,0.03,0.09,0.06c0.04,0.06,0.05,0.06,0.09,0.12
			c0.04,0.06,0.03,0.07,0.08,0.13c0.04,0.06,0.05,0.06,0.09,0.12c0.04,0.06,0.05,0.06,0.1,0.12l0.09,0.12
			c0.05,0.06,0.05,0.06,0.09,0.12c0.05,0.06,0.04,0.06,0.09,0.12l0.09,0.12c0.04,0.06,0.04,0.07,0.08,0.13
			c0.04,0.06,0.05,0.06,0.09,0.12c0.04,0.04,0.09,0.06,0.13,0.05c0.04-0.02,0.08-0.06,0.08-0.12c0.01-0.07,0.01-0.07,0.02-0.15
			c0.01-0.08,0-0.08,0.01-0.15l0.01-0.15c0.01-0.07,0.01-0.07,0.02-0.15c0.01-0.08,0.01-0.08,0.02-0.15c0.01-0.07,0-0.08,0.01-0.15
			c0.01-0.05,0.03-0.09,0.07-0.13c0.04-0.03,0.08-0.06,0.13-0.06C24.63,22.03,24.67,22.07,24.7,22.1z"/>
		<path d="M25.69,22.08c0.03,0.03,0.06,0.08,0.06,0.13c0,0.08,0,0.08,0.01,0.17c0,0.09-0.01,0.09,0,0.17c0,0.08,0.01,0.08,0.02,0.17
			c0,0.09,0,0.09,0,0.17c0,0.08-0.01,0.08,0,0.17c0,0.08,0.01,0.08,0.01,0.17c0,0.09,0,0.09,0.01,0.17c0,0.08-0.01,0.08,0,0.17
			c0,0.08,0.01,0.08,0.01,0.17c0,0.09,0,0.09,0.01,0.17c0,0.05-0.02,0.1-0.05,0.14c-0.03,0.04-0.07,0.07-0.12,0.07
			c-0.05,0-0.09-0.03-0.12-0.06c-0.03-0.04-0.06-0.08-0.06-0.13c0-0.09,0.01-0.09,0-0.17l0-0.17c0-0.08,0-0.08,0-0.17
			c0-0.09-0.01-0.09-0.01-0.17c0-0.08,0-0.08,0-0.17c0-0.09,0-0.09,0-0.17c0-0.08,0-0.08-0.01-0.17c0-0.08-0.01-0.08-0.01-0.17
			c0-0.09,0.01-0.09,0.01-0.17c0-0.08-0.01-0.08-0.02-0.17c0-0.05,0.02-0.1,0.05-0.14c0.03-0.03,0.08-0.05,0.12-0.06
			C25.61,22.02,25.65,22.04,25.69,22.08z"/>
		<path d="M28.22,21.77c0.04,0.03,0.07,0.07,0.07,0.13c0.01,0.05,0,0.11-0.03,0.15c-0.03,0.04-0.07,0.07-0.12,0.08L28,22.14
			c-0.07,0.01-0.07,0-0.15,0.01c-0.07,0.01-0.07,0.02-0.14,0.03c-0.05,0.01-0.08,0.03-0.1,0.07c-0.02,0.04-0.05,0.08-0.04,0.13
			c0.01,0.08,0.02,0.08,0.03,0.16c0.01,0.08,0.02,0.08,0.03,0.17c0.01,0.08,0.01,0.08,0.02,0.16c0.01,0.08,0.02,0.08,0.04,0.16
			c0.01,0.08,0.01,0.08,0.02,0.17l0.03,0.16c0.01,0.08,0.01,0.08,0.03,0.17c0.01,0.08,0.01,0.08,0.02,0.16
			c0.01,0.05-0.01,0.1-0.03,0.14c-0.03,0.04-0.07,0.07-0.11,0.08c-0.05,0.01-0.09-0.01-0.13-0.04c-0.04-0.03-0.07-0.07-0.08-0.12
			c-0.01-0.08,0-0.08-0.02-0.17c-0.01-0.08-0.01-0.08-0.02-0.17c-0.01-0.08-0.02-0.08-0.03-0.17c-0.01-0.08-0.02-0.08-0.03-0.16
			S27.32,23,27.3,22.92c-0.01-0.08-0.01-0.08-0.02-0.17l-0.03-0.17c-0.01-0.08-0.01-0.08-0.02-0.17c-0.01-0.09-0.09-0.14-0.17-0.12
			c-0.07,0.01-0.08,0-0.15,0.02c-0.08,0.01-0.08,0-0.15,0.01c-0.08,0.01-0.07,0.02-0.15,0.03c-0.05,0.01-0.1,0-0.14-0.03
			c-0.04-0.03-0.07-0.08-0.08-0.13c-0.01-0.05,0.02-0.1,0.04-0.14c0.03-0.04,0.06-0.07,0.11-0.08c0.08-0.01,0.08-0.01,0.15-0.03
			c0.08-0.01,0.08-0.01,0.16-0.02c0.08-0.01,0.08-0.02,0.15-0.03c0.08-0.01,0.08-0.01,0.15-0.02c0.08-0.01,0.08-0.01,0.15-0.03
			c0.08-0.01,0.08,0,0.16-0.01c0.08-0.01,0.08-0.02,0.15-0.03c0.08-0.01,0.07-0.02,0.15-0.03c0.08-0.01,0.08-0.01,0.15-0.03
			c0.08-0.01,0.08,0,0.16-0.01C28.14,21.73,28.18,21.74,28.22,21.77z"/>
		<path d="M29.16,21.5c0.04,0.02,0.08,0.06,0.09,0.11c0.02,0.08,0.03,0.08,0.05,0.16c0.02,0.08,0.02,0.09,0.04,0.17
			c0.02,0.08,0.03,0.08,0.06,0.16c0.02,0.08,0.02,0.08,0.05,0.16c0.02,0.08,0.02,0.08,0.04,0.17c0.02,0.08,0.03,0.08,0.05,0.16
			c0.02,0.08,0.03,0.08,0.05,0.16s0.02,0.08,0.04,0.17c0.02,0.08,0.03,0.08,0.05,0.16c0.02,0.08,0.03,0.08,0.05,0.16
			c0.01,0.05,0,0.1-0.02,0.14c-0.02,0.04-0.05,0.08-0.1,0.1c-0.05,0.01-0.1-0.01-0.14-0.03c-0.04-0.03-0.08-0.06-0.1-0.11
			c-0.02-0.08-0.02-0.09-0.04-0.17l-0.05-0.16c-0.02-0.08-0.02-0.08-0.04-0.16c-0.02-0.08-0.03-0.08-0.06-0.16
			c-0.02-0.08-0.02-0.08-0.04-0.16c-0.02-0.08-0.02-0.08-0.04-0.16c-0.02-0.08-0.03-0.08-0.05-0.16c-0.02-0.08-0.03-0.08-0.05-0.16
			c-0.02-0.08-0.01-0.09-0.04-0.17s-0.03-0.08-0.06-0.16c-0.01-0.05,0-0.1,0.02-0.15c0.02-0.04,0.06-0.07,0.1-0.09
			C29.08,21.46,29.12,21.48,29.16,21.5z"/>
		<path d="M30.37,21.73c-0.02,0.07-0.08,0.12-0.16,0.12c-0.05,0-0.09-0.02-0.13-0.05c-0.03-0.03-0.06-0.08-0.06-0.13
			c-0.01-0.08,0-0.08-0.01-0.15l-0.01-0.15c-0.01-0.08-0.01-0.07-0.02-0.15c-0.01-0.08,0-0.08-0.01-0.15c0-0.05,0.01-0.1,0.04-0.13
			c0.03-0.03,0.07-0.05,0.12-0.05c0.05,0,0.09,0.02,0.13,0.05c0.04,0.03,0.06,0.08,0.07,0.13c0,0.08,0,0.08,0.01,0.15
			c0.01,0.08,0.01,0.08,0.02,0.15c0.01,0.08,0,0.08,0.01,0.15c0.01,0.08,0,0.08,0.01,0.15C30.37,21.69,30.37,21.71,30.37,21.73z"/>
		<path d="M33.19,21.25c0.02,0.05,0.04,0.1,0.05,0.15c0.01,0.05,0.01,0.1,0.01,0.16c-0.01,0.06-0.01,0.12-0.04,0.18
			c-0.02,0.05-0.05,0.1-0.09,0.15c-0.03,0.04-0.08,0.08-0.12,0.12c-0.04,0.03-0.09,0.06-0.14,0.1c-0.01,0.01-0.02,0.01-0.03,0.02
			c-0.04,0.02-0.07,0.06-0.12,0.08c-0.04,0.02-0.09,0.03-0.13,0.05c-0.04,0.02-0.09,0.04-0.13,0.05c-0.04,0.02-0.09,0.03-0.13,0.05
			c-0.04,0.02-0.09,0.04-0.13,0.05c-0.04,0.01-0.09,0.01-0.14,0.03c-0.05,0.01-0.09,0.02-0.14,0.03c-0.05,0.01-0.09,0-0.13-0.02
			c-0.04-0.03-0.07-0.07-0.08-0.12c-0.01-0.05-0.01-0.1,0.01-0.14c0.02-0.04,0.06-0.07,0.11-0.08c0.05-0.01,0.1-0.04,0.15-0.05
			c0.05-0.02,0.11-0.03,0.16-0.04c0.05-0.02,0.11-0.03,0.16-0.04c0.04-0.01,0.08-0.04,0.12-0.05c0.04-0.02,0.08-0.03,0.12-0.05
			c0.04-0.02,0.07-0.05,0.11-0.07c0.04-0.02,0.08-0.05,0.11-0.08c0.04-0.03,0.08-0.06,0.1-0.09c0.03-0.04,0.06-0.08,0.06-0.12
			c0-0.05-0.01-0.08-0.02-0.1c0-0.01,0-0.02,0-0.02c0,0-0.01,0-0.01-0.01c-0.06-0.06-0.14-0.05-0.21-0.03
			c-0.05,0.02-0.1,0.04-0.15,0.06c-0.05,0.02-0.09,0.06-0.14,0.08c-0.05,0.02-0.1,0.04-0.14,0.06c-0.05,0.02-0.09,0.05-0.14,0.06
			c-0.05,0.02-0.1,0.04-0.14,0.06c-0.05,0.02-0.1,0.03-0.14,0.05c-0.06,0.02-0.11,0.03-0.15,0.03c-0.03,0-0.1-0.01-0.18-0.03
			c-0.05-0.02-0.11-0.03-0.15-0.06c-0.05-0.03-0.09-0.06-0.13-0.1c-0.04-0.04-0.06-0.09-0.08-0.14c-0.02-0.05-0.05-0.1-0.06-0.15
			c-0.01-0.07,0-0.14,0.01-0.18c0.01-0.06,0.01-0.11,0.04-0.17c0.02-0.05,0.05-0.1,0.09-0.15c0.03-0.04,0.07-0.08,0.12-0.12
			c0.05-0.04,0.1-0.08,0.15-0.11c0.06-0.04,0.12-0.07,0.16-0.09c0.05-0.03,0.1-0.05,0.15-0.07c0.05-0.02,0.1-0.05,0.14-0.07
			c0.05-0.02,0.11-0.03,0.16-0.04c0.05-0.02,0.1-0.04,0.15-0.05c0.05-0.02,0.11-0.03,0.16-0.04c0.05-0.01,0.1,0,0.14,0.03
			c0.04,0.03,0.07,0.07,0.08,0.13c0.01,0.05,0,0.1-0.03,0.14c-0.02,0.04-0.06,0.07-0.11,0.08c-0.05,0.01-0.09,0.03-0.14,0.04
			c-0.04,0.01-0.09,0.02-0.14,0.03c-0.04,0.01-0.08,0.04-0.13,0.06c-0.04,0.02-0.08,0.04-0.13,0.06c-0.04,0.02-0.08,0.05-0.13,0.07
			c-0.03,0.02-0.08,0.03-0.12,0.06c-0.04,0.02-0.07,0.05-0.11,0.08c-0.03,0.03-0.07,0.05-0.1,0.09c-0.03,0.04-0.04,0.08-0.04,0.13
			c0,0.01-0.01,0.1,0.04,0.16c0.05,0.06,0.14,0.07,0.17,0.07c0.01,0,0.06-0.02,0.21-0.09c0.04-0.01,0.08-0.03,0.12-0.05
			c0.04-0.02,0.08-0.03,0.12-0.05c0.04-0.02,0.08-0.03,0.12-0.05l0.14-0.07c0.05-0.02,0.09-0.05,0.14-0.07
			c0.05-0.02,0.1-0.02,0.15-0.03c0.05-0.01,0.1-0.02,0.16-0.01c0.06,0.01,0.12,0.02,0.18,0.05c0.06,0.03,0.11,0.06,0.16,0.11
			C33.14,21.15,33.16,21.19,33.19,21.25z M32.88,21.39C32.88,21.39,32.88,21.4,32.88,21.39L32.88,21.39z"/>
	</g>
</g>
</svg>
