<?xml version="1.0" encoding="utf-8"?>
<!-- Generator: Adobe Illustrator 19.0.1, SVG Export Plug-In . SVG Version: 6.00 Build 0)  -->
<!DOCTYPE svg PUBLIC "-//W3C//DTD SVG 1.1//EN" "http://www.w3.org/Graphics/SVG/1.1/DTD/svg11.dtd">
<svg version="1.1" id="Layer_1" xmlns="http://www.w3.org/2000/svg" xmlns:xlink="http://www.w3.org/1999/xlink" x="0px" y="0px"
	 viewBox="0 0 100 100" style="enable-background:new 0 0 100 100;" xml:space="preserve">
<style type="text/css">
	.st0{fill:#FFFFFF;}
	.st1{fill:#231F20;}
	.st2{fill:#00A651;}
	.st3{fill:#DBDAD6;}
	.st4{fill:#ED1C24;}
	.st5{fill:#010101;}
	.st6{clip-path:url(#SVGID_2_);fill:#019547;}
	.st7{clip-path:url(#SVGID_2_);fill:#FFFFFF;}
	.st8{clip-path:url(#SVGID_4_);fill:#F49129;}
	.st9{clip-path:url(#SVGID_6_);fill:#FFFFFF;}
	.st10{clip-path:url(#SVGID_8_);fill:#00AEEF;}
	.st11{clip-path:url(#SVGID_8_);fill:#FFFFFF;}
	.st12{clip-path:url(#SVGID_10_);fill:#ED1C24;}
	.st13{clip-path:url(#SVGID_12_);fill:#F1646D;}
	.st14{clip-path:url(#SVGID_12_);fill:#FFFFFF;}
</style>
<g>
	<defs>
		<rect id="SVGID_1_" x="1.4" y="1.4" width="97.3" height="97.3"/>
	</defs>
	<clipPath id="SVGID_2_">
		<use xlink:href="#SVGID_1_"  style="overflow:visible;"/>
	</clipPath>
	<path class="st6" d="M98.6,50c0,26.9-21.8,48.6-48.6,48.6C23.1,98.6,1.4,76.9,1.4,50S23.1,1.4,50,1.4C76.9,1.4,98.6,23.1,98.6,50"
		/>
	<path class="st7" d="M30.9,38.7c-9.7,9-10.2,22.7-5.1,30.3c2.4-7.2,9.5-24.3,25.1-26.9c0,0-15.5,5.2-22.9,29.4
		c0.4,0.3,0.8,0.7,1.2,1c9.5,6.8,24.6,0.2,31.4-15.1c2.9-6.6,4.7-12.5,8-17.9c4.6-7.5,10.4-9.6,10.4-9.6S49,21.7,30.9,38.7"/>
</g>
</svg>
