<?xml version="1.0" encoding="utf-8"?>
<!-- Generator: Adobe Illustrator 19.0.1, SVG Export Plug-In . SVG Version: 6.00 Build 0)  -->
<!DOCTYPE svg PUBLIC "-//W3C//DTD SVG 1.1//EN" "http://www.w3.org/Graphics/SVG/1.1/DTD/svg11.dtd">
<svg version="1.1" id="Layer_1" xmlns="http://www.w3.org/2000/svg" xmlns:xlink="http://www.w3.org/1999/xlink" x="0px" y="0px"
	 viewBox="0 0 100 100" style="enable-background:new 0 0 100 100;" xml:space="preserve">
<style type="text/css">
	.st0{fill:#FFFFFF;}
	.st1{fill:#231F20;}
	.st2{fill:#00A651;}
	.st3{fill:#DBDAD6;}
	.st4{fill:#ED1C24;}
	.st5{fill:#010101;}
	.st6{clip-path:url(#SVGID_2_);fill:#019547;}
	.st7{clip-path:url(#SVGID_2_);fill:#FFFFFF;}
	.st8{clip-path:url(#SVGID_4_);fill:#F49129;}
	.st9{clip-path:url(#SVGID_6_);fill:#FFFFFF;}
	.st10{clip-path:url(#SVGID_8_);fill:#00AEEF;}
	.st11{clip-path:url(#SVGID_8_);fill:#FFFFFF;}
	.st12{clip-path:url(#SVGID_10_);fill:#ED1C24;}
	.st13{clip-path:url(#SVGID_12_);fill:#F1646D;}
	.st14{clip-path:url(#SVGID_12_);fill:#FFFFFF;}
</style>
<g>
	<defs>
		<rect id="SVGID_11_" x="1.4" y="1.4" width="97.3" height="97.3"/>
	</defs>
	<clipPath id="SVGID_2_">
		<use xlink:href="#SVGID_11_"  style="overflow:visible;"/>
	</clipPath>
	<path style="clip-path:url(#SVGID_2_);fill:#F1646D;" d="M98.6,50c0,26.9-21.8,48.6-48.6,48.6C23.1,98.6,1.4,76.9,1.4,50
		S23.1,1.4,50,1.4C76.9,1.4,98.6,23.1,98.6,50"/>
	<path class="st7" d="M38,72.4c-2.6-2.5-3.9-6.2-3.9-10.7v-1.5h8.1v1.5c0,4.8,2,6.7,7,6.7h1.8c4.7,0,7-1.9,7-5.8
		c0-5.7-5-8.1-10.3-10.6c-3.3-1.6-6.7-3.2-9.2-5.7c-2.2-2.3-3.6-5.1-3.6-9.2c0.1-8.1,5.9-13.6,14.3-13.6h1.8c4.3,0,7.7,1.4,10.2,3.9
		c2.5,2.6,4,6.5,4,10.9v1.4h-8v-1.4c0-4.3-2-6.8-6.3-6.8h-1.8c-3.9,0-6,2-6,5.6c0,4.1,4.1,6.1,8.9,8.4c3.3,1.5,6.9,3.3,9.6,5.9
		c2.6,2.6,4.5,6.1,4.5,11.3c0,8.4-6,13.8-15,13.8h-1.7C44.4,76.5,40.6,75,38,72.4"/>
</g>
</svg>
