<?xml version="1.0" encoding="utf-8"?>
<!-- Generator: Adobe Illustrator 19.0.1, SVG Export Plug-In . SVG Version: 6.00 Build 0)  -->
<!DOCTYPE svg PUBLIC "-//W3C//DTD SVG 1.1//EN" "http://www.w3.org/Graphics/SVG/1.1/DTD/svg11.dtd">
<svg version="1.1" id="Layer_1" xmlns="http://www.w3.org/2000/svg" xmlns:xlink="http://www.w3.org/1999/xlink" x="0px" y="0px"
	 viewBox="0 0 100 100" style="enable-background:new 0 0 100 100;" xml:space="preserve">
<style type="text/css">
	.st0{fill:#FFFFFF;}
	.st1{fill:#231F20;}
	.st2{fill:#00A651;}
	.st3{fill:#DBDAD6;}
	.st4{fill:#ED1C24;}
	.st5{fill:#010101;}
	.st6{clip-path:url(#SVGID_2_);fill:#019547;}
	.st7{clip-path:url(#SVGID_2_);fill:#FFFFFF;}
	.st8{clip-path:url(#SVGID_4_);fill:#F49129;}
	.st9{clip-path:url(#SVGID_6_);fill:#FFFFFF;}
	.st10{clip-path:url(#SVGID_8_);fill:#00AEEF;}
	.st11{clip-path:url(#SVGID_8_);fill:#FFFFFF;}
	.st12{clip-path:url(#SVGID_10_);fill:#ED1C24;}
	.st13{clip-path:url(#SVGID_12_);fill:#F1646D;}
	.st14{clip-path:url(#SVGID_12_);fill:#FFFFFF;}
</style>
<g>
	<g>
		<defs>
			<rect id="SVGID_7_" x="1.6" y="0.8" width="97.3" height="97.3"/>
		</defs>
		<clipPath id="SVGID_2_">
			<use xlink:href="#SVGID_7_"  style="overflow:visible;"/>
		</clipPath>
		<path style="clip-path:url(#SVGID_2_);fill:#00AEEF;" d="M98.9,49.4c0,26.9-21.8,48.6-48.6,48.6c-26.9,0-48.7-21.8-48.7-48.6
			S23.4,0.8,50.2,0.8C77.1,0.8,98.9,22.6,98.9,49.4"/>
		<path class="st7" d="M25.3,67.2c-2-2-3.1-4.9-3.1-8.5V40.2c0-7.3,4.4-11.6,11.6-11.6h1.4c3.7,0,6.5,1.1,8.5,3
			c2.1,2.1,3.1,5,3.1,8.6v1.1h-6.3v-1.1c0-3.7-1.6-5.3-5.3-5.3h-1.4c-3.7,0-5.3,1.6-5.3,5.3v18.4c0,3.7,1.6,5.3,5.3,5.3h1.4
			c3.7,0,5.3-1.6,5.3-5.3v-3.1h-4.6v-6.3h10.9v9.4c0,7.3-4.4,11.6-11.6,11.6h-1.4C30.2,70.3,27.3,69.2,25.3,67.2"/>
	</g>
	<polygon class="st0" points="55.4,29 78.3,29 78.3,35.3 61.7,35.3 61.7,46.6 70.3,46.6 70.3,52.9 61.7,52.9 61.7,69.8 55.4,69.8 	
		"/>
</g>
</svg>
