<?xml version="1.0" encoding="utf-8"?>
<!-- Generator: Adobe Illustrator 19.0.1, SVG Export Plug-In . SVG Version: 6.00 Build 0)  -->
<!DOCTYPE svg PUBLIC "-//W3C//DTD SVG 1.1//EN" "http://www.w3.org/Graphics/SVG/1.1/DTD/svg11.dtd">
<svg version="1.1" id="Layer_1" xmlns="http://www.w3.org/2000/svg" xmlns:xlink="http://www.w3.org/1999/xlink" x="0px" y="0px"
	 viewBox="0 0 100 100" style="enable-background:new 0 0 100 100;" xml:space="preserve">
<style type="text/css">
	.st0{fill:#FFFFFF;}
	.st1{fill:#231F20;}
	.st2{fill:#00A651;}
	.st3{fill:#DBDAD6;}
	.st4{fill:#ED1C24;}
	.st5{fill:#010101;}
	.st6{clip-path:url(#SVGID_2_);fill:#019547;}
	.st7{clip-path:url(#SVGID_2_);fill:#FFFFFF;}
	.st8{clip-path:url(#SVGID_4_);fill:#F49129;}
	.st9{clip-path:url(#SVGID_6_);fill:#FFFFFF;}
	.st10{clip-path:url(#SVGID_8_);fill:#00AEEF;}
	.st11{clip-path:url(#SVGID_8_);fill:#FFFFFF;}
	.st12{clip-path:url(#SVGID_10_);fill:#ED1C24;}
	.st13{clip-path:url(#SVGID_12_);fill:#F1646D;}
	.st14{clip-path:url(#SVGID_12_);fill:#FFFFFF;}
</style>
<g>
	<g>
		<defs>
			<rect id="SVGID_3_" x="1.4" y="1.4" width="97.3" height="97.3"/>
		</defs>
		<clipPath id="SVGID_2_">
			<use xlink:href="#SVGID_3_"  style="overflow:visible;"/>
		</clipPath>
		<path style="clip-path:url(#SVGID_2_);fill:#F49129;" d="M98.6,50c0,26.9-21.8,48.6-48.6,48.6C23.1,98.6,1.4,76.9,1.4,50
			S23.1,1.4,50,1.4C76.9,1.4,98.6,23.1,98.6,50"/>
	</g>
	<polygon class="st0" points="50,30.3 40.2,69.7 31.8,69.7 22.1,30.3 28.4,30.3 36,61.2 43.6,30.3 	"/>
	<g>
		<defs>
			<rect id="SVGID_5_" x="1.4" y="1.4" width="97.3" height="97.3"/>
		</defs>
		<clipPath id="SVGID_4_">
			<use xlink:href="#SVGID_5_"  style="overflow:visible;"/>
		</clipPath>
		<path style="clip-path:url(#SVGID_4_);fill:#FFFFFF;" d="M57.1,67.1c-1.9-1.9-3-4.8-3-8.2V41.1c0-7,4.3-11.2,11.2-11.2h1.3
			c3.5,0,6.3,1.1,8.2,2.9c2,2,3,4.8,3,8.3v1.1h-6.1v-1.1c0-3.6-1.5-5.1-5.1-5.1h-1.3c-3.6,0-5.1,1.6-5.1,5.1v17.8
			c0,3.6,1.5,5.2,5.1,5.2h1.3c3.6,0,5.1-1.6,5.1-5.2v-3h-4.4v-6.1h10.5v9.1c0,7-4.3,11.2-11.2,11.2h-1.3
			C61.9,70.1,59,69.1,57.1,67.1"/>
	</g>
</g>
</svg>
