<?xml version="1.0" encoding="utf-8"?>
<!-- Generator: Adobe Illustrator 19.0.1, SVG Export Plug-In . SVG Version: 6.00 Build 0)  -->
<!DOCTYPE svg PUBLIC "-//W3C//DTD SVG 1.1//EN" "http://www.w3.org/Graphics/SVG/1.1/DTD/svg11.dtd">
<svg version="1.1" id="Layer_1" xmlns="http://www.w3.org/2000/svg" xmlns:xlink="http://www.w3.org/1999/xlink" x="0px" y="0px"
	 viewBox="-499.9 471 126.7 145.3" style="enable-background:new -499.9 471 126.7 145.3;" xml:space="preserve">
<style type="text/css">
	.st0{fill:#FFFFFF;}
</style>
<g>
	<path class="st0" d="M-447.3,533.7c-1.6,3.5-3.4,0.2-3.5-0.1C-449.2,535.8-447.4,533.9-447.3,533.7z"/>
	<path class="st0" d="M-448.8,529.9c-1.4,0.4-1.8-1.9-1.9-2.2c1.5,3,3.1,0.3,3.1,0.3S-447.4,529.5-448.8,529.9z"/>
	<path class="st0" d="M-446.9,541.1c-1,0.1-2.2-1.8-2.5-2.2c0.3,0.5,1.7,1.4,2.5,1.1c0.9-0.3,0.3-2.5,0.3-2.5
		C-445.4,538.9-445.7,541.1-446.9,541.1z"/>
	<path class="st0" d="M-441.4,529.5c-1.4,3.2-2.9,1-3,0.8C-442.8,531.2-441.5,529.7-441.4,529.5z"/>
	<path class="st0" d="M-443.9,547.3c-2.3,0-2.5-3.1-2.5-3.1s0.7,1.9,2.3,2.2c1.6,0.3,1.4-1.8,1.4-1.8S-441.7,547.3-443.9,547.3z"/>
	<path class="st0" d="M-440.9,536.8c-4.2,0.9-3.6-2.9-3.6-2.9C-444.5,536.5-440.9,536.8-440.9,536.8z"/>
	<path class="st0" d="M-442.3,542.8c-1.1-0.1-1.9-2.1-1.9-2.1c2.6,2.2,2.8-0.7,2.8-0.7C-440.7,541.5-441.2,542.9-442.3,542.8z"/>
	<path class="st0" d="M-440.8,552.6c-1.6,0.2-2.3-2.2-2.5-2.8c0.2,0.6,1.3,1.9,2.4,1.6c1.2-0.3,1.6-2.7,1.6-2.7
		C-438.9,550.1-438.9,552.3-440.8,552.6z"/>
	<path class="st0" d="M-438.3,497.2v0.5h-0.7c-0.1,0.9-0.8,1.2-1.7,1.2c-0.8,0-1.7-0.4-1.7-1.2v-1h-0.5v0.7l-1.2-1.2
		c1.6,0,1.6-0.5,3.2,0C-440.3,496.5-439.3,497.2-438.3,497.2z"/>
	<path class="st0" d="M-466,529.7l-1-0.4l-4.2-0.3v-0.2l3.9,0l-1.2-2.9l-6.5-1.9l0.1-0.2l6.2,1.3c-0.1-0.8-0.2-0.9-0.2-1.7
		c0-0.7,0.1-0.7,0.2-1.2l-0.1,0.3l-6-2.8l0.1-0.3l5.9,2.5l1-2.1l-6.3-4.7l0.2-0.2l7,4.5l-1.2,1.8l-0.3,2.7c1.1-1.3,1.5-3.4,3.7-4
		c-0.8,1.2-3.5,2.8-3.5,5c0,1.3,0.7,2.9,1.5,3.5c0-2.3-0.1-3.4,1-4.7c-0.1,1.2-0.5,0.9-0.5,2v3C-466.2,529.1-466.1,529.1-466,529.7z
		"/>
	<path class="st0" d="M-448.2,495.8c0.4,0.1,0.8,0.3,1.2,0.5v-1.6h1.3c1.1,0,0.9-0.5,2-0.5h0.7c1.8,0,2.3,1,4.7,1h0.7V471
		c-28.2,0.2-48.5,6.8-54.2,9c-5.8,2.2-8.1,8-8.1,12.2c0,21.9,1.2,41.8,13.9,70.1c13.8,30.8,41.4,51.7,48.4,54v-44l-1.3-0.1l-2.1,1.4
		l-0.3-1c0,1.2-0.8,2.7-1.8,3l-0.4-4.3l-0.3,2c-0.8-0.2-1-0.5-1-1.5v-2.5c0-1.3,0.9-1.2,1-3c-1,1.2-0.7,2.5-3.2,2.7l-0.2-0.1
		l1.5-2.3c-1.3,0.8-1.5,2-3.7,2h-0.8c0.2-1.4,1.4-1,2.3-2.2c-0.9,0.2-2.3,1.2-2.7,1.2h-1.2v-0.5c3.2-0.3,6.5-3.8,6.5-7.2v-4.5
		c0-7-1.4-8.8-4-13.2c-1.9-3.2-4.7-7.7-4.7-12.7v-0.5c0-2.4,0.6-5,1.6-6.4c0.7-1,2.4-4.3,3.4-4.6c0.3,1.2,2.8,4.2,4,4.5
		c-1.1-1.7-1.7-2.4-1.7-5.2c-0.1,0.1-0.5,0.5-0.5,0.8l0.3,2c-0.9-0.6-2-2.1-2-3.5c0-1.1,2.3-2.9,3-3.5c-1.9,0.2-1.5,1.2-2.7,2v-1
		c1.4-2.1,1.8-3,4.6-3.8c2.3-0.7,4.6-1.1,4.6-3.9c0-0.6-0.1-0.3-0.3-0.8l-1.7-1.2l0.1-0.1c-0.2,0-0.4,0-0.6-0.1
		c-3.4-0.4-6.3-0.4-6.3-0.4s-0.2-0.5,1.2-0.5c1.3,0,5.7,0.4,6.5,0.1l0.1-0.1c0.1-0.4-0.2-0.7-1.7-1.4c-1.6-0.6-2.5-1-3.5-1.6
		c-1-0.6-1.3-1.2-2.3-1.2c-1,0-2.4,1.3-2.4,1.3S-451.3,496.2-448.2,495.8z M-462.2,558.8c-1.8-0.5-5.4-3.2-7.2-3.2
		c-1.4,0-2,1.5-2,2.5c0,2.1,1.4,4.9-0.5,5.2c0,0.1-0.1,0.1-0.1,0.1c-1.4,1.4-2.5,0.3-2.5,0.3c1-0.3,1.2-0.8,1.2-0.8s0.1,0,0.3-0.1
		l-0.6,0l1.3-7.9l-2.8-7.3c-0.1-0.5-0.2-0.6-0.2-1c-0.1-0.1-0.2-0.3-0.1-0.5c0.1-0.8-1-1-1-1c1.2-1.2,2.2-0.8,2.6-0.4v-0.1l0.5-0.2
		v-0.5l-0.1-0.9c0,0,0.3-0.8-1.2-1.7c0,0,2.1-0.7,3.1,1.3l0.2,1.1c1,0,1.7,0,1.7,1v1.8c0,1.6-0.5,1.9-0.5,3.5v2.3
		c1.1,0.3,2.2,1.9,3.3,2.5c1,0.5,3.6,1,3.7,2.3l0.7-0.5c0.1,0.8,0.3,0.9,0.3,1.7V558.8z M-446.4,549.3l0.7,8.2h-1
		c-2.5,0-5.5-1.8-6.4-3.3l-0.4-1.9l-0.6,6c-0.8,1-0.6,1.4-2.1,1.5c-0.1,1.3-1.7,2.5-3.2,2.5v-0.7c0-0.9,0.1-0.1-0.3-0.7
		c-1.1,0.3-0.4,0.5-1.2,0.5h-0.7v-3c0-2.8-1.2-4-1.2-6.5v-1.2c0-2.8,1.8-6,4.7-6h0.7C-454.7,544.6-451.4,548.9-446.4,549.3z
		 M-451.8,540.1c0,0.6-0.4,1-1,1c-1.3,0-1.6-0.3-2.2-1c0,0.8,0.1,1.2-0.7,1.2h-1c-1.8,0-1.4-3.2-2.6-4l0.8,3.2
		c-0.1,0.2-0.4,0.7-0.7,0.7c-1.2,0-1.2-0.5-3.5-0.5c-1.5,0-2.4-2.9-2.5-4.5c-1.6,0.1-1.4,1.7-4,1.7h-0.3c-1.7,0-2.2-1.3-2.2-2.9
		l1.7-0.8l-2,0.3c-0.7,0.1-2.2-1-2.2-1.8v-1c0-1.2,3.6-0.5,5-1.8c-1.4,0-3.9,0.8-5,0.8c-1-0.1-3-1.8-3-2.7c0-0.8,0.6-2.2,1.2-2.2
		c0.8,0,1.7,1,3.5,1c-2-1.8-5.2-0.4-6.2-4.7c0.3-0.5,1.1-1.5,1.7-1.5c0.9,0,0.5,0.9,2.2,1c-1.9-1.7-5-2.6-5-6.2h3
		c-0.1-1.1-2.7-3.5-3.5-6.7h0.7c3.1,0,4.2,4.6,6.7,5.2c-2.2-3.2-6.7-5.8-6.7-11.7c1.2,0.6,2.8,1.1,3.5,2.2c0.5,0.9,1.5,3,2.5,3.2
		c-0.3-1-2.4-4-3.1-5.6c-1-2.3-1.6-3.7-1.6-6.9V494h1c0.7,0,0.7,0.1,1.2,0.3v-4c0-1.8,0.7-3.2,1.7-4c0.6,1.3,1,6.4,1.6,8.3
		c0.7,2.3,2.4,5.1,2.8,7.1l1-0.3l0.8-2.6c0.5,3.3,1.5,7.5,2.9,9.6c1,1.5,3.8,6.3,3.8,8.4c0,2-2.2,3.5-2.4,6c-0.2,2,1.4,4.4,3.7,4.4
		h2.2l3-0.4l0.1,4.9l-3.3,0.3c-0.2-0.4-0.8-1.2-0.8-1.5v-1h-0.5l0.7,2.5l-2.2-0.3l-1.7-2.7l0.7,2.3l-0.8,0c-0.7,0-0.7-0.4-1-0.8
		l-0.1,0.3l-2.1-1l-1,1.2c0.7-0.1,1-0.5,1.5-0.5c0.4,0,1.1,0.8,1.2,1.3l5.6,0.8l0.8,2.7c0-1.9-0.8-3,0.2-3l1.9,0l0.7,3.3l0.3-0.1
		l-0.6-3.2h0.8C-454,535.2-451.8,538.5-451.8,540.1z M-446.9,501.3c2.4,0.1,4.6,1.3,4.6,1.3s-0.1,0.3-0.7,0.1
		c-0.6-0.2-1.6-0.5-2.9-0.7c-1.3-0.2-3.1,0-3.2-0.1C-449.3,501.7-449.3,501.1-446.9,501.3z"/>
	<path class="st0" d="M-437.6,553.4v7.1C-439.3,556.6-437.9,553.9-437.6,553.4z"/>
	<path class="st0" d="M-437.6,546.1v1.3c-2.1-0.3-2.5-2.9-2.6-3.3C-439.9,545.6-438.1,546.1-437.6,546.1z"/>
	<path class="st0" d="M-437.6,539.6v1.1c-1.5-0.4-1.4-2.6-1.4-2.6C-438.9,539.2-438,539.5-437.6,539.6z"/>
	<path class="st0" d="M-381.3,480c-5.7-2.2-25.9-8.8-54.2-9v145.3c7-2.3,34.6-23.3,48.4-54c12.7-28.3,13.9-48.2,13.9-70.1
		C-373.2,487.9-375.6,482.2-381.3,480z M-407.4,495.9c1.7,1.5,2.7,3.5,2.7,5.8c0,4.4-4,8.1-9,8.1c-5,0-9-3.6-9-8.1
		c0-2.3,1-4.3,2.7-5.8c-0.7,1-1.1,2.2-1.1,3.5c0,3.7,3.3,6.7,7.4,6.7c4.1,0,7.4-3,7.4-6.7C-406.3,498.1-406.7,496.9-407.4,495.9z
		 M-413.5,572.2c-6.6,0-11.9-4.8-11.9-10.6c0-4.2,2.7-7.8,6.7-9.5c-2.7,1.5-4.4,4.2-4.4,7.2c0,4.7,4.2,8.5,9.5,8.5s9.5-3.8,9.5-8.5
		c0-3.1-1.9-5.9-4.7-7.4c0,0,0,0,0,0c-0.1-0.1-0.2-0.2-0.3-0.2c4.5,1.5,7.7,5.4,7.7,9.9C-401.6,567.4-406.9,572.2-413.5,572.2z
		 M-406.3,557c0-1.3-0.4-2.5-1.1-3.5c1.7,1.5,2.7,3.5,2.7,5.7c0,4.5-4,8.1-9,8.1c-5,0-9-3.6-9-8.1c0-2.2,1-4.3,2.7-5.8
		c-0.7,1-1.1,2.2-1.1,3.5c0,3.7,3.3,6.7,7.4,6.7C-409.6,563.7-406.3,560.7-406.3,557z M-413.5,543.4c-6.6,0-11.9-4.8-11.9-10.6
		c0-4.2,2.7-7.8,6.7-9.5c-2.7,1.5-4.4,4.2-4.4,7.2c0,4.7,4.2,8.5,9.5,8.5s9.5-3.8,9.5-8.5c0-3.1-1.9-5.9-4.7-7.4c0,0,0,0,0,0
		c-0.1-0.1-0.2-0.2-0.3-0.2c4.5,1.5,7.7,5.4,7.7,9.9C-401.6,538.6-406.9,543.4-413.5,543.4z M-407.4,524.7c1.7,1.5,2.7,3.5,2.7,5.8
		c0,4.4-4,8.1-9,8.1c-5,0-9-3.6-9-8.1c0-2.2,1-4.3,2.7-5.7c-0.7,1-1.1,2.2-1.1,3.5c0,3.7,3.3,6.7,7.4,6.7c4.1,0,7.4-3,7.4-6.7
		C-406.3,526.9-406.7,525.7-407.4,524.7z M-413.5,514.6c-6.6,0-11.9-4.8-11.9-10.6c0-4.2,2.7-7.8,6.7-9.6c-2.7,1.5-4.4,4.2-4.4,7.2
		c0,4.7,4.2,8.5,9.5,8.5s9.5-3.8,9.5-8.5c0-3.1-1.9-5.9-4.7-7.4c0,0,0,0,0,0c-0.1-0.1-0.2-0.2-0.3-0.2c4.5,1.5,7.7,5.4,7.7,9.9
		C-401.6,509.8-406.9,514.6-413.5,514.6z"/>
	<path class="st0" d="M-447.3,533.7c-1.6,3.5-3.4,0.2-3.5-0.1C-449.2,535.8-447.4,533.9-447.3,533.7z"/>
	<path class="st0" d="M-448.8,529.9c-1.4,0.4-1.8-1.9-1.9-2.2c1.5,3,3.1,0.3,3.1,0.3S-447.4,529.5-448.8,529.9z"/>
	<path class="st0" d="M-446.9,541.1c-1,0.1-2.2-1.8-2.5-2.2c0.3,0.5,1.7,1.4,2.5,1.1c0.9-0.3,0.3-2.5,0.3-2.5
		C-445.4,538.9-445.7,541.1-446.9,541.1z"/>
	<path class="st0" d="M-441.4,529.5c-1.4,3.2-2.9,1-3,0.8C-442.8,531.2-441.5,529.7-441.4,529.5z"/>
	<path class="st0" d="M-443.9,547.3c-2.3,0-2.5-3.1-2.5-3.1s0.7,1.9,2.3,2.2c1.6,0.3,1.4-1.8,1.4-1.8S-441.7,547.3-443.9,547.3z"/>
	<path class="st0" d="M-440.9,536.8c-4.2,0.9-3.6-2.9-3.6-2.9C-444.5,536.5-440.9,536.8-440.9,536.8z"/>
	<path class="st0" d="M-442.3,542.8c-1.1-0.1-1.9-2.1-1.9-2.1c2.6,2.2,2.8-0.7,2.8-0.7C-440.7,541.5-441.2,542.9-442.3,542.8z"/>
	<path class="st0" d="M-440.8,552.6c-1.6,0.2-2.3-2.2-2.5-2.8c0.2,0.6,1.3,1.9,2.4,1.6c1.2-0.3,1.6-2.7,1.6-2.7
		C-438.9,550.1-438.9,552.3-440.8,552.6z"/>
	<path class="st0" d="M-438.3,497.2v0.5h-0.7c-0.1,0.9-0.8,1.2-1.7,1.2c-0.8,0-1.7-0.4-1.7-1.2v-1h-0.5v0.7l-1.2-1.2
		c1.6,0,1.6-0.5,3.2,0C-440.3,496.5-439.3,497.2-438.3,497.2z"/>
	<path class="st0" d="M-466,529.7l-1-0.4l-4.2-0.3v-0.2l3.9,0l-1.2-2.9l-6.5-1.9l0.1-0.2l6.2,1.3c-0.1-0.8-0.2-0.9-0.2-1.7
		c0-0.7,0.1-0.7,0.2-1.2l-0.1,0.3l-6-2.8l0.1-0.3l5.9,2.5l1-2.1l-6.3-4.7l0.2-0.2l7,4.5l-1.2,1.8l-0.3,2.7c1.1-1.3,1.5-3.4,3.7-4
		c-0.8,1.2-3.5,2.8-3.5,5c0,1.3,0.7,2.9,1.5,3.5c0-2.3-0.1-3.4,1-4.7c-0.1,1.2-0.5,0.9-0.5,2v3C-466.2,529.1-466.1,529.1-466,529.7z
		"/>
	<path class="st0" d="M-448.2,495.8c0.4,0.1,0.8,0.3,1.2,0.5v-1.6h1.3c1.1,0,0.9-0.5,2-0.5h0.7c1.8,0,2.3,1,4.7,1h0.7V471
		c-28.2,0.2-48.5,6.8-54.2,9c-5.8,2.2-8.1,8-8.1,12.2c0,21.9,1.2,41.8,13.9,70.1c13.8,30.8,41.4,51.7,48.4,54v-44l-1.3-0.1l-2.1,1.4
		l-0.3-1c0,1.2-0.8,2.7-1.8,3l-0.4-4.3l-0.3,2c-0.8-0.2-1-0.5-1-1.5v-2.5c0-1.3,0.9-1.2,1-3c-1,1.2-0.7,2.5-3.2,2.7l-0.2-0.1
		l1.5-2.3c-1.3,0.8-1.5,2-3.7,2h-0.8c0.2-1.4,1.4-1,2.3-2.2c-0.9,0.2-2.3,1.2-2.7,1.2h-1.2v-0.5c3.2-0.3,6.5-3.8,6.5-7.2v-4.5
		c0-7-1.4-8.8-4-13.2c-1.9-3.2-4.7-7.7-4.7-12.7v-0.5c0-2.4,0.6-5,1.6-6.4c0.7-1,2.4-4.3,3.4-4.6c0.3,1.2,2.8,4.2,4,4.5
		c-1.1-1.7-1.7-2.4-1.7-5.2c-0.1,0.1-0.5,0.5-0.5,0.8l0.3,2c-0.9-0.6-2-2.1-2-3.5c0-1.1,2.3-2.9,3-3.5c-1.9,0.2-1.5,1.2-2.7,2v-1
		c1.4-2.1,1.8-3,4.6-3.8c2.3-0.7,4.6-1.1,4.6-3.9c0-0.6-0.1-0.3-0.3-0.8l-1.7-1.2l0.1-0.1c-0.2,0-0.4,0-0.6-0.1
		c-3.4-0.4-6.3-0.4-6.3-0.4s-0.2-0.5,1.2-0.5c1.3,0,5.7,0.4,6.5,0.1l0.1-0.1c0.1-0.4-0.2-0.7-1.7-1.4c-1.6-0.6-2.5-1-3.5-1.6
		c-1-0.6-1.3-1.2-2.3-1.2c-1,0-2.4,1.3-2.4,1.3S-451.3,496.2-448.2,495.8z M-462.2,558.8c-1.8-0.5-5.4-3.2-7.2-3.2
		c-1.4,0-2,1.5-2,2.5c0,2.1,1.4,4.9-0.5,5.2c0,0.1-0.1,0.1-0.1,0.1c-1.4,1.4-2.5,0.3-2.5,0.3c1-0.3,1.2-0.8,1.2-0.8s0.1,0,0.3-0.1
		l-0.6,0l1.3-7.9l-2.8-7.3c-0.1-0.5-0.2-0.6-0.2-1c-0.1-0.1-0.2-0.3-0.1-0.5c0.1-0.8-1-1-1-1c1.2-1.2,2.2-0.8,2.6-0.4v-0.1l0.5-0.2
		v-0.5l-0.1-0.9c0,0,0.3-0.8-1.2-1.7c0,0,2.1-0.7,3.1,1.3l0.2,1.1c1,0,1.7,0,1.7,1v1.8c0,1.6-0.5,1.9-0.5,3.5v2.3
		c1.1,0.3,2.2,1.9,3.3,2.5c1,0.5,3.6,1,3.7,2.3l0.7-0.5c0.1,0.8,0.3,0.9,0.3,1.7V558.8z M-446.4,549.3l0.7,8.2h-1
		c-2.5,0-5.5-1.8-6.4-3.3l-0.4-1.9l-0.6,6c-0.8,1-0.6,1.4-2.1,1.5c-0.1,1.3-1.7,2.5-3.2,2.5v-0.7c0-0.9,0.1-0.1-0.3-0.7
		c-1.1,0.3-0.4,0.5-1.2,0.5h-0.7v-3c0-2.8-1.2-4-1.2-6.5v-1.2c0-2.8,1.8-6,4.7-6h0.7C-454.7,544.6-451.4,548.9-446.4,549.3z
		 M-451.8,540.1c0,0.6-0.4,1-1,1c-1.3,0-1.6-0.3-2.2-1c0,0.8,0.1,1.2-0.7,1.2h-1c-1.8,0-1.4-3.2-2.6-4l0.8,3.2
		c-0.1,0.2-0.4,0.7-0.7,0.7c-1.2,0-1.2-0.5-3.5-0.5c-1.5,0-2.4-2.9-2.5-4.5c-1.6,0.1-1.4,1.7-4,1.7h-0.3c-1.7,0-2.2-1.3-2.2-2.9
		l1.7-0.8l-2,0.3c-0.7,0.1-2.2-1-2.2-1.8v-1c0-1.2,3.6-0.5,5-1.8c-1.4,0-3.9,0.8-5,0.8c-1-0.1-3-1.8-3-2.7c0-0.8,0.6-2.2,1.2-2.2
		c0.8,0,1.7,1,3.5,1c-2-1.8-5.2-0.4-6.2-4.7c0.3-0.5,1.1-1.5,1.7-1.5c0.9,0,0.5,0.9,2.2,1c-1.9-1.7-5-2.6-5-6.2h3
		c-0.1-1.1-2.7-3.5-3.5-6.7h0.7c3.1,0,4.2,4.6,6.7,5.2c-2.2-3.2-6.7-5.8-6.7-11.7c1.2,0.6,2.8,1.1,3.5,2.2c0.5,0.9,1.5,3,2.5,3.2
		c-0.3-1-2.4-4-3.1-5.6c-1-2.3-1.6-3.7-1.6-6.9V494h1c0.7,0,0.7,0.1,1.2,0.3v-4c0-1.8,0.7-3.2,1.7-4c0.6,1.3,1,6.4,1.6,8.3
		c0.7,2.3,2.4,5.1,2.8,7.1l1-0.3l0.8-2.6c0.5,3.3,1.5,7.5,2.9,9.6c1,1.5,3.8,6.3,3.8,8.4c0,2-2.2,3.5-2.4,6c-0.2,2,1.4,4.4,3.7,4.4
		h2.2l3-0.4l0.1,4.9l-3.3,0.3c-0.2-0.4-0.8-1.2-0.8-1.5v-1h-0.5l0.7,2.5l-2.2-0.3l-1.7-2.7l0.7,2.3l-0.8,0c-0.7,0-0.7-0.4-1-0.8
		l-0.1,0.3l-2.1-1l-1,1.2c0.7-0.1,1-0.5,1.5-0.5c0.4,0,1.1,0.8,1.2,1.3l5.6,0.8l0.8,2.7c0-1.9-0.8-3,0.2-3l1.9,0l0.7,3.3l0.3-0.1
		l-0.6-3.2h0.8C-454,535.2-451.8,538.5-451.8,540.1z M-446.9,501.3c2.4,0.1,4.6,1.3,4.6,1.3s-0.1,0.3-0.7,0.1
		c-0.6-0.2-1.6-0.5-2.9-0.7c-1.3-0.2-3.1,0-3.2-0.1C-449.3,501.7-449.3,501.1-446.9,501.3z"/>
	<path class="st0" d="M-437.6,553.4v7.1C-439.3,556.6-437.9,553.9-437.6,553.4z"/>
	<path class="st0" d="M-437.6,546.1v1.3c-2.1-0.3-2.5-2.9-2.6-3.3C-439.9,545.6-438.1,546.1-437.6,546.1z"/>
	<path class="st0" d="M-437.6,539.6v1.1c-1.5-0.4-1.4-2.6-1.4-2.6C-438.9,539.2-438,539.5-437.6,539.6z"/>
</g>
</svg>
