<?xml version="1.0" encoding="utf-8"?>
<!-- Generator: Adobe Illustrator 19.0.1, SVG Export Plug-In . SVG Version: 6.00 Build 0)  -->
<!DOCTYPE svg PUBLIC "-//W3C//DTD SVG 1.1//EN" "http://www.w3.org/Graphics/SVG/1.1/DTD/svg11.dtd">
<svg version="1.1" id="Layer_1" xmlns="http://www.w3.org/2000/svg" xmlns:xlink="http://www.w3.org/1999/xlink" x="0px" y="0px"
	 viewBox="0 0 100 100" style="enable-background:new 0 0 100 100;" xml:space="preserve">
<style type="text/css">
	.st0{fill:#FFFFFF;}
	.st1{fill:#231F20;}
	.st2{fill:#00A651;}
	.st3{fill:#DBDAD6;}
	.st4{fill:#ED1C24;}
	.st5{fill:#010101;}
	.st6{clip-path:url(#SVGID_2_);fill:#019547;}
	.st7{clip-path:url(#SVGID_2_);fill:#FFFFFF;}
	.st8{clip-path:url(#SVGID_4_);fill:#F49129;}
	.st9{clip-path:url(#SVGID_6_);fill:#FFFFFF;}
	.st10{clip-path:url(#SVGID_8_);fill:#00AEEF;}
	.st11{clip-path:url(#SVGID_8_);fill:#FFFFFF;}
	.st12{clip-path:url(#SVGID_10_);fill:#ED1C24;}
	.st13{clip-path:url(#SVGID_12_);fill:#F1646D;}
	.st14{clip-path:url(#SVGID_12_);fill:#FFFFFF;}
</style>
<g>
	<g>
		<path class="st1" d="M42.5,43.2c-1,2.2-2.1,0.1-2.2,0C41.4,44.5,42.4,43.3,42.5,43.2z"/>
		<path class="st1" d="M41.6,40.8c-0.9,0.3-1.2-1.2-1.2-1.4c0.9,1.9,2,0.2,2,0.2S42.5,40.5,41.6,40.8z"/>
		<path class="st1" d="M42.8,47.9c-0.6,0-1.4-1.1-1.6-1.4c0.2,0.3,1.1,0.9,1.6,0.7c0.6-0.2,0.2-1.6,0.2-1.6
			C43.7,46.4,43.5,47.8,42.8,47.9z"/>
		<path class="st1" d="M46.2,40.6c-0.9,2-1.8,0.6-1.9,0.5C45.3,41.6,46.2,40.7,46.2,40.6z"/>
		<path class="st1" d="M44.7,51.8c-1.4,0-1.6-2-1.6-2s0.5,1.2,1.5,1.4c1,0.2,0.9-1.1,0.9-1.1S46.1,51.8,44.7,51.8z"/>
		<path class="st1" d="M46.6,45.1c-2.7,0.6-2.2-1.8-2.2-1.8C44.3,45,46.6,45.1,46.6,45.1z"/>
		<path class="st1" d="M45.7,48.9c-0.7,0-1.2-1.3-1.2-1.3c1.6,1.4,1.8-0.4,1.8-0.4C46.7,48.1,46.4,49,45.7,48.9z"/>
		<path class="st1" d="M46.7,55.1c-1,0.1-1.5-1.4-1.6-1.8c0.2,0.3,0.8,1.2,1.5,1c0.8-0.2,1-1.7,1-1.7C47.8,53.6,47.8,54.9,46.7,55.1
			z"/>
		<path class="st1" d="M30.7,40.6l-0.6-0.3l-2.7-0.2V40l2.5,0l-0.8-1.8L25,37l0.1-0.2l3.9,0.8c0-0.5-0.2-0.6-0.2-1.1
			c0-0.4,0.1-0.4,0.2-0.8l-0.1,0.2l-3.8-1.8l0.1-0.2l3.7,1.6l0.6-1.3l-4-2.9l0.1-0.1l4.4,2.8l-0.8,1.1l-0.2,1.7
			c0.7-0.8,0.9-2.1,2.4-2.5c-0.5,0.7-2.2,1.8-2.2,3.2c0,0.8,0.5,1.8,0.9,2.2c0-1.5-0.1-2.2,0.6-3c-0.1,0.8-0.3,0.6-0.3,1.3v1.9
			C30.6,40.3,30.7,40.3,30.7,40.6z"/>
		<path class="st1" d="M42,19.3c0.3,0,0.5,0.2,0.7,0.3v-1h0.8c0.7,0,0.6-0.3,1.3-0.3h0.5c1.1,0,1.4,0.6,3,0.6h0.4V3.6
			C30.8,3.7,18,7.9,14.4,9.3c-3.6,1.4-5.1,5-5.1,7.7c0,13.8,0.7,26.4,8.8,44.2c8.7,19.4,26.1,32.6,30.6,34.1V67.5l-0.8-0.1l-1.3,0.9
			l-0.2-0.6c0,0.7-0.5,1.7-1.1,1.9L45,66.9l-0.2,1.3c-0.5-0.1-0.6-0.3-0.6-0.9v-1.6c0-0.8,0.5-0.8,0.6-1.9c-0.6,0.7-0.5,1.6-2,1.7
			l-0.1-0.1l0.9-1.5c-0.8,0.5-0.9,1.3-2.4,1.3h-0.5c0.1-0.9,0.9-0.6,1.4-1.4c-0.5,0.1-1.4,0.8-1.7,0.8h-0.8v-0.3
			c2-0.2,4.1-2.4,4.1-4.6v-2.8c0-4.4-0.9-5.6-2.5-8.3c-1.2-2-3-4.9-3-8v-0.3c0-1.5,0.3-3.2,1-4.1c0.4-0.6,1.5-2.7,2.2-2.9
			c0.2,0.8,1.8,2.6,2.5,2.8c-0.7-1.1-1.1-1.5-1.1-3.3c-0.1,0.1-0.3,0.3-0.3,0.5l0.2,1.2c-0.5-0.4-1.3-1.3-1.3-2.2
			c0-0.7,1.4-1.8,1.9-2.2c-1.2,0.1-1,0.7-1.7,1.2v-0.6c0.9-1.3,1.1-1.9,2.9-2.4c1.4-0.4,2.9-0.7,2.9-2.5c0-0.4-0.1-0.2-0.2-0.5
			l-1-0.7l0.1-0.1c-0.1,0-0.2,0-0.4,0c-2.1-0.3-4-0.3-4-0.3s-0.1-0.3,0.7-0.3c0.8,0,3.6,0.2,4.1,0.1l0.1-0.1
			c0.1-0.3-0.1-0.5-1.1-0.9c-1-0.4-1.6-0.6-2.2-1c-0.6-0.4-0.8-0.8-1.5-0.8c-0.6,0-1.5,0.8-1.5,0.8S40,19.5,42,19.3z M33.1,59.1
			c-1.1-0.3-3.4-2-4.6-2c-0.9,0-1.3,0.9-1.3,1.6c0,1.3,0.9,3.1-0.3,3.3c0,0,0,0.1-0.1,0.1c-0.9,0.9-1.6,0.2-1.6,0.2
			C26,62,26,61.6,26,61.6s0.1,0,0.2-0.1l-0.4,0l0.8-5L24.9,52c-0.1-0.3-0.1-0.4-0.2-0.6c-0.1-0.1-0.1-0.2-0.1-0.3
			c0.1-0.5-0.6-0.7-0.6-0.7c0.8-0.8,1.4-0.5,1.7-0.2v-0.1l0.3-0.2v-0.3l0-0.6c0,0,0.2-0.5-0.7-1.1c0,0,1.3-0.4,1.9,0.8l0.1,0.7
			c0.6,0,1.1,0,1.1,0.6v1.1c0,1-0.3,1.2-0.3,2.2v1.4c0.7,0.2,1.4,1.2,2.1,1.6c0.6,0.3,2.3,0.6,2.3,1.4l0.5-0.3
			c0,0.5,0.2,0.6,0.2,1.1V59.1z M43.1,53.1l0.4,5.2h-0.6c-1.6,0-3.5-1.1-4-2.1L38.6,55l-0.4,3.8c-0.5,0.6-0.4,0.9-1.3,0.9
			c-0.1,0.8-1.1,1.6-2,1.6v-0.5c0-0.6,0-0.1-0.2-0.5c-0.7,0.2-0.3,0.3-0.8,0.3h-0.5v-1.9c0-1.8-0.8-2.5-0.8-4.1v-0.8
			c0-1.8,1.1-3.8,3-3.8h0.5C37.9,50.1,39.9,52.8,43.1,53.1z M39.7,47.2c0,0.4-0.3,0.6-0.6,0.6c-0.8,0-1-0.2-1.4-0.6
			c0,0.5,0.1,0.8-0.5,0.8h-0.6c-1.1,0-0.9-2-1.6-2.5l0.5,2C35.4,47.7,35.2,48,35,48c-0.7,0-0.8-0.3-2.2-0.3c-0.9,0-1.5-1.9-1.6-2.8
			c-1,0.1-0.9,1.1-2.5,1.1h-0.2c-1.1,0-1.4-0.8-1.4-1.8l1.1-0.5L27,43.8c-0.5,0.1-1.4-0.6-1.4-1.1v-0.6c0-0.8,2.3-0.3,3.2-1.1
			c-0.9,0-2.5,0.5-3.1,0.5c-0.6-0.1-1.9-1.1-1.9-1.7c0-0.5,0.4-1.4,0.8-1.4c0.5,0,1.1,0.6,2.2,0.6c-1.3-1.1-3.3-0.3-3.9-3
			c0.2-0.3,0.7-0.9,1.1-0.9c0.6,0,0.3,0.5,1.4,0.6c-1.2-1.1-3.1-1.7-3.1-3.9H24c-0.1-0.7-1.7-2.2-2.2-4.3h0.5c2,0,2.7,2.9,4.3,3.3
			c-1.4-2-4.3-3.7-4.3-7.4c0.8,0.4,1.8,0.7,2.2,1.4c0.3,0.6,0.9,1.9,1.6,2c-0.2-0.6-1.5-2.5-2-3.5c-0.6-1.4-1-2.3-1-4.3v-0.8h0.6
			c0.4,0,0.4,0.1,0.8,0.2v-2.5c0-1.2,0.4-2,1.1-2.5c0.4,0.8,0.7,4,1,5.3c0.5,1.5,1.5,3.2,1.8,4.5l0.6-0.2l0.5-1.6
			c0.3,2.1,0.9,4.7,1.8,6.1c0.6,0.9,2.4,4,2.4,5.3c0,1.2-1.4,2.2-1.5,3.8c-0.1,1.3,0.9,2.8,2.3,2.8h1.4l1.9-0.3l0.1,3.1l-2.1,0.2
			c-0.1-0.3-0.5-0.7-0.5-1v-0.6H35l0.5,1.6L34,42L33,40.3l0.4,1.4l-0.5,0c-0.4,0-0.5-0.2-0.6-0.5l-0.1,0.2l-1.3-0.6l-0.7,0.8
			c0.5-0.1,0.7-0.3,1-0.3c0.3,0,0.7,0.5,0.8,0.8l3.6,0.5l0.5,1.7c0-1.2-0.5-1.9,0.2-1.9l1.2,0l0.4,2.1l0.2,0l-0.4-2h0.5
			C38.3,44.1,39.7,46.2,39.7,47.2z M42.8,22.7c1.5,0.1,2.9,0.8,2.9,0.8s-0.1,0.2-0.5,0.1c-0.4-0.1-1-0.3-1.8-0.5
			c-0.9-0.1-1.9,0-2-0.1C41.3,23,41.3,22.6,42.8,22.7z"/>
		<path class="st1" d="M48.6,55.6v4.5C47.6,57.6,48.5,56,48.6,55.6z"/>
		<path class="st1" d="M48.6,51v0.8C47.3,51.6,47,50,47,49.8C47.2,50.7,48.3,51,48.6,51z"/>
		<path class="st1" d="M48.6,46.9v0.7c-0.9-0.3-0.9-1.6-0.9-1.6C47.8,46.6,48.4,46.9,48.6,46.9z"/>
		<path class="st1" d="M42.5,43.2c-1,2.2-2.1,0.1-2.2,0C41.4,44.5,42.4,43.3,42.5,43.2z"/>
		<path class="st1" d="M41.6,40.8c-0.9,0.3-1.2-1.2-1.2-1.4c0.9,1.9,2,0.2,2,0.2S42.5,40.5,41.6,40.8z"/>
		<path class="st1" d="M42.8,47.9c-0.6,0-1.4-1.1-1.6-1.4c0.2,0.3,1.1,0.9,1.6,0.7c0.6-0.2,0.2-1.6,0.2-1.6
			C43.7,46.4,43.5,47.8,42.8,47.9z"/>
		<path class="st1" d="M46.2,40.6c-0.9,2-1.8,0.6-1.9,0.5C45.3,41.6,46.2,40.7,46.2,40.6z"/>
		<path class="st1" d="M44.7,51.8c-1.4,0-1.6-2-1.6-2s0.5,1.2,1.5,1.4c1,0.2,0.9-1.1,0.9-1.1S46.1,51.8,44.7,51.8z"/>
		<path class="st1" d="M46.6,45.1c-2.7,0.6-2.2-1.8-2.2-1.8C44.3,45,46.6,45.1,46.6,45.1z"/>
		<path class="st1" d="M45.7,48.9c-0.7,0-1.2-1.3-1.2-1.3c1.6,1.4,1.8-0.4,1.8-0.4C46.7,48.1,46.4,49,45.7,48.9z"/>
		<path class="st1" d="M46.7,55.1c-1,0.1-1.5-1.4-1.6-1.8c0.2,0.3,0.8,1.2,1.5,1c0.8-0.2,1-1.7,1-1.7C47.8,53.6,47.8,54.9,46.7,55.1
			z"/>
		<path class="st1" d="M48.2,20.2v0.3h-0.5c-0.1,0.6-0.5,0.8-1.1,0.8c-0.5,0-1.1-0.3-1.1-0.8v-0.6h-0.3v0.5l-0.8-0.8c1,0,1-0.3,2,0
			C47,19.7,47.6,20.1,48.2,20.2z"/>
		<path class="st1" d="M30.7,40.6l-0.6-0.3l-2.7-0.2V40l2.5,0l-0.8-1.8L25,37l0.1-0.2l3.9,0.8c0-0.5-0.2-0.6-0.2-1.1
			c0-0.4,0.1-0.4,0.2-0.8l-0.1,0.2l-3.8-1.8l0.1-0.2l3.7,1.6l0.6-1.3l-4-2.9l0.1-0.1l4.4,2.8l-0.8,1.1l-0.2,1.7
			c0.7-0.8,0.9-2.1,2.4-2.5c-0.5,0.7-2.2,1.8-2.2,3.2c0,0.8,0.5,1.8,0.9,2.2c0-1.5-0.1-2.2,0.6-3c-0.1,0.8-0.3,0.6-0.3,1.3v1.9
			C30.6,40.3,30.7,40.3,30.7,40.6z"/>
		<path class="st1" d="M42,19.3c0.3,0,0.5,0.2,0.7,0.3v-1h0.8c0.7,0,0.6-0.3,1.3-0.3h0.5c1.1,0,1.4,0.6,3,0.6h0.4V3.6
			C30.8,3.7,18,7.9,14.4,9.3c-3.6,1.4-5.1,5-5.1,7.7c0,13.8,0.7,26.4,8.8,44.2c8.7,19.4,26.1,32.6,30.6,34.1V67.5l-0.8-0.1l-1.3,0.9
			l-0.2-0.6c0,0.7-0.5,1.7-1.1,1.9L45,66.9l-0.2,1.3c-0.5-0.1-0.6-0.3-0.6-0.9v-1.6c0-0.8,0.5-0.8,0.6-1.9c-0.6,0.7-0.5,1.6-2,1.7
			l-0.1-0.1l0.9-1.5c-0.8,0.5-0.9,1.3-2.4,1.3h-0.5c0.1-0.9,0.9-0.6,1.4-1.4c-0.5,0.1-1.4,0.8-1.7,0.8h-0.8v-0.3
			c2-0.2,4.1-2.4,4.1-4.6v-2.8c0-4.4-0.9-5.6-2.5-8.3c-1.2-2-3-4.9-3-8v-0.3c0-1.5,0.3-3.2,1-4.1c0.4-0.6,1.5-2.7,2.2-2.9
			c0.2,0.8,1.8,2.6,2.5,2.8c-0.7-1.1-1.1-1.5-1.1-3.3c-0.1,0.1-0.3,0.3-0.3,0.5l0.2,1.2c-0.5-0.4-1.3-1.3-1.3-2.2
			c0-0.7,1.4-1.8,1.9-2.2c-1.2,0.1-1,0.7-1.7,1.2v-0.6c0.9-1.3,1.1-1.9,2.9-2.4c1.4-0.4,2.9-0.7,2.9-2.5c0-0.4-0.1-0.2-0.2-0.5
			l-1-0.7l0.1-0.1c-0.1,0-0.2,0-0.4,0c-2.1-0.3-4-0.3-4-0.3s-0.1-0.3,0.7-0.3c0.8,0,3.6,0.2,4.1,0.1l0.1-0.1
			c0.1-0.3-0.1-0.5-1.1-0.9c-1-0.4-1.6-0.6-2.2-1c-0.6-0.4-0.8-0.8-1.5-0.8c-0.6,0-1.5,0.8-1.5,0.8S40,19.5,42,19.3z M33.1,59.1
			c-1.1-0.3-3.4-2-4.6-2c-0.9,0-1.3,0.9-1.3,1.6c0,1.3,0.9,3.1-0.3,3.3c0,0,0,0.1-0.1,0.1c-0.9,0.9-1.6,0.2-1.6,0.2
			C26,62,26,61.6,26,61.6s0.1,0,0.2-0.1l-0.4,0l0.8-5L24.9,52c-0.1-0.3-0.1-0.4-0.2-0.6c-0.1-0.1-0.1-0.2-0.1-0.3
			c0.1-0.5-0.6-0.7-0.6-0.7c0.8-0.8,1.4-0.5,1.7-0.2v-0.1l0.3-0.2v-0.3l0-0.6c0,0,0.2-0.5-0.7-1.1c0,0,1.3-0.4,1.9,0.8l0.1,0.7
			c0.6,0,1.1,0,1.1,0.6v1.1c0,1-0.3,1.2-0.3,2.2v1.4c0.7,0.2,1.4,1.2,2.1,1.6c0.6,0.3,2.3,0.6,2.3,1.4l0.5-0.3
			c0,0.5,0.2,0.6,0.2,1.1V59.1z M43.1,53.1l0.4,5.2h-0.6c-1.6,0-3.5-1.1-4-2.1L38.6,55l-0.4,3.8c-0.5,0.6-0.4,0.9-1.3,0.9
			c-0.1,0.8-1.1,1.6-2,1.6v-0.5c0-0.6,0-0.1-0.2-0.5c-0.7,0.2-0.3,0.3-0.8,0.3h-0.5v-1.9c0-1.8-0.8-2.5-0.8-4.1v-0.8
			c0-1.8,1.1-3.8,3-3.8h0.5C37.9,50.1,39.9,52.8,43.1,53.1z M39.7,47.2c0,0.4-0.3,0.6-0.6,0.6c-0.8,0-1-0.2-1.4-0.6
			c0,0.5,0.1,0.8-0.5,0.8h-0.6c-1.1,0-0.9-2-1.6-2.5l0.5,2C35.4,47.7,35.2,48,35,48c-0.7,0-0.8-0.3-2.2-0.3c-0.9,0-1.5-1.9-1.6-2.8
			c-1,0.1-0.9,1.1-2.5,1.1h-0.2c-1.1,0-1.4-0.8-1.4-1.8l1.1-0.5L27,43.8c-0.5,0.1-1.4-0.6-1.4-1.1v-0.6c0-0.8,2.3-0.3,3.2-1.1
			c-0.9,0-2.5,0.5-3.1,0.5c-0.6-0.1-1.9-1.1-1.9-1.7c0-0.5,0.4-1.4,0.8-1.4c0.5,0,1.1,0.6,2.2,0.6c-1.3-1.1-3.3-0.3-3.9-3
			c0.2-0.3,0.7-0.9,1.1-0.9c0.6,0,0.3,0.5,1.4,0.6c-1.2-1.1-3.1-1.7-3.1-3.9H24c-0.1-0.7-1.7-2.2-2.2-4.3h0.5c2,0,2.7,2.9,4.3,3.3
			c-1.4-2-4.3-3.7-4.3-7.4c0.8,0.4,1.8,0.7,2.2,1.4c0.3,0.6,0.9,1.9,1.6,2c-0.2-0.6-1.5-2.5-2-3.5c-0.6-1.4-1-2.3-1-4.3v-0.8h0.6
			c0.4,0,0.4,0.1,0.8,0.2v-2.5c0-1.2,0.4-2,1.1-2.5c0.4,0.8,0.7,4,1,5.3c0.5,1.5,1.5,3.2,1.8,4.5l0.6-0.2l0.5-1.6
			c0.3,2.1,0.9,4.7,1.8,6.1c0.6,0.9,2.4,4,2.4,5.3c0,1.2-1.4,2.2-1.5,3.8c-0.1,1.3,0.9,2.8,2.3,2.8h1.4l1.9-0.3l0.1,3.1l-2.1,0.2
			c-0.1-0.3-0.5-0.7-0.5-1v-0.6H35l0.5,1.6L34,42L33,40.3l0.4,1.4l-0.5,0c-0.4,0-0.5-0.2-0.6-0.5l-0.1,0.2l-1.3-0.6l-0.7,0.8
			c0.5-0.1,0.7-0.3,1-0.3c0.3,0,0.7,0.5,0.8,0.8l3.6,0.5l0.5,1.7c0-1.2-0.5-1.9,0.2-1.9l1.2,0l0.4,2.1l0.2,0l-0.4-2h0.5
			C38.3,44.1,39.7,46.2,39.7,47.2z M42.8,22.7c1.5,0.1,2.9,0.8,2.9,0.8s-0.1,0.2-0.5,0.1c-0.4-0.1-1-0.3-1.8-0.5
			c-0.9-0.1-1.9,0-2-0.1C41.3,23,41.3,22.6,42.8,22.7z"/>
		<path class="st1" d="M48.6,55.6v4.5C47.6,57.6,48.5,56,48.6,55.6z"/>
		<path class="st1" d="M48.6,51v0.8C47.3,51.6,47,50,47,49.8C47.2,50.7,48.3,51,48.6,51z"/>
		<path class="st1" d="M48.6,46.9v0.7c-0.9-0.3-0.9-1.6-0.9-1.6C47.8,46.6,48.4,46.9,48.6,46.9z"/>
		<g>
			<g>
				<g>
					<path class="st1" d="M77.1,47.6c0-0.2-0.1-0.3-0.2-0.4c-0.1-0.1-0.2-0.2-0.4-0.2c-0.2,0-0.3,0-0.4,0.1
						c-0.1,0.1-0.2,0.2-0.3,0.3c-0.1,0.2-0.1,0.4-0.2,0.7c0,0.3-0.1,0.6-0.1,1l-0.1,0.4c0,0.4-0.1,0.7-0.1,1c0,0.3,0,0.5,0,0.7
						c0,0.2,0.1,0.3,0.2,0.4c0.1,0.1,0.2,0.2,0.4,0.2c0.2,0,0.3,0,0.4-0.1c0.1-0.1,0.2-0.2,0.2-0.3c0.1-0.2,0.1-0.4,0.2-0.7
						c0-0.3,0.1-0.6,0.1-1l0.1-0.4c0-0.4,0.1-0.7,0.1-1C77.1,48.1,77.1,47.8,77.1,47.6z"/>
				</g>
			</g>
			<g>
				<g>
					<path class="st1" d="M71.6,42.9c0-0.2-0.1-0.3-0.2-0.4c-0.1-0.1-0.2-0.2-0.4-0.2c-0.2,0-0.3,0-0.4,0.1
						c-0.1,0.1-0.2,0.2-0.3,0.3c-0.1,0.2-0.1,0.4-0.2,0.7c0,0.3-0.1,0.6-0.1,1l-0.1,0.4c0,0.4-0.1,0.7-0.1,1c0,0.3,0,0.5,0,0.7
						c0,0.2,0.1,0.3,0.2,0.4c0.1,0.1,0.2,0.2,0.4,0.2c0.2,0,0.3,0,0.4-0.1c0.1-0.1,0.2-0.2,0.2-0.3c0.1-0.2,0.1-0.4,0.2-0.7
						c0-0.3,0.1-0.6,0.1-1l0.1-0.4c0-0.4,0.1-0.7,0.1-1C71.6,43.3,71.6,43.1,71.6,42.9z"/>
				</g>
			</g>
			<g>
				<g>
					<path class="st1" d="M84.9,9.3c-3.6-1.4-16.4-5.6-34.2-5.7v91.7c4.4-1.5,21.9-14.7,30.6-34.1C89.3,43.4,90,30.8,90,17
						C90,14.3,88.5,10.7,84.9,9.3z M68.9,46.4c-0.1,0.7-0.3,1.3-0.4,2c-0.3,1.7-0.5,3.3-0.6,4.8c-0.1,1.5-0.2,3-0.1,4.3l-6.9,0
						c0.8-3.5,2.1-7.2,4-11c1.9-3.8,4.3-7.5,7-11.2l-13,0c-0.4,0-0.7,0-1,0.1c-0.3,0.1-0.5,0.3-0.6,0.5c-0.2,0.2-0.3,0.6-0.4,1
						c-0.1,0.4-0.3,1-0.4,1.6l-0.5,0l1.6-8.3l16.9,0l0.5,0.6L71.7,38c-0.6,1.4-1.2,2.8-1.6,4.2c0.3-0.1,0.6-0.1,1,0
						c0.4,0.1,0.8,0.2,1.1,0.4c0.3,0.2,0.5,0.4,0.7,0.7c0.2,0.3,0.3,0.6,0.4,0.9c0.1,0.3,0.1,0.6,0,0.9c0,0.3-0.1,0.6-0.3,0.9
						c-0.1,0.3-0.3,0.5-0.6,0.8c-0.2,0.2-0.5,0.4-0.8,0.5c-0.3,0.1-0.7,0.1-1.1,0.1c-0.4-0.1-0.8-0.2-1.1-0.4
						C69.2,46.7,69.1,46.6,68.9,46.4z M69.8,51.1l6.8-8.2l0.6,0.1l-6.8,8.2L69.8,51.1z M78.7,49.8c0,0.3-0.1,0.6-0.3,0.9
						c-0.1,0.3-0.3,0.5-0.6,0.8c-0.2,0.2-0.5,0.4-0.8,0.5C76.7,52,76.4,52,76,52c-0.4-0.1-0.8-0.2-1.1-0.4s-0.5-0.4-0.7-0.7
						c-0.2-0.3-0.3-0.6-0.4-0.9c-0.1-0.3-0.1-0.6,0-1c0-0.3,0.1-0.6,0.3-0.9c0.1-0.3,0.3-0.5,0.6-0.7c0.2-0.2,0.5-0.4,0.9-0.5
						c0.3-0.1,0.7-0.1,1.1-0.1c0.4,0.1,0.8,0.2,1.1,0.4c0.3,0.2,0.5,0.4,0.7,0.7c0.2,0.3,0.3,0.6,0.4,0.9
						C78.8,49.1,78.8,49.5,78.7,49.8z"/>
				</g>
			</g>
		</g>
	</g>
</g>
</svg>
