<?xml version="1.0" encoding="utf-8"?>
<!-- Generator: Adobe Illustrator 19.0.1, SVG Export Plug-In . SVG Version: 6.00 Build 0)  -->
<!DOCTYPE svg PUBLIC "-//W3C//DTD SVG 1.1//EN" "http://www.w3.org/Graphics/SVG/1.1/DTD/svg11.dtd">
<svg version="1.1" id="Layer_1" xmlns="http://www.w3.org/2000/svg" xmlns:xlink="http://www.w3.org/1999/xlink" x="0px" y="0px"
	 viewBox="-458.8 491 39.5 100" style="enable-background:new -458.8 491 39.5 100;" xml:space="preserve">
<style type="text/css">
	.st0{fill:#FFFFFF;}
	.st1{fill:#00A651;}
	.st2{fill:#DBDAD6;}
	.st3{fill:#ED1C24;}
</style>
<g>
	<path class="st0" d="M-443.6,575.5c0-3.1-1.1-3.5-2.5-3.5s-2.5,0.4-2.5,3.5v9.7c0,2.9,0.9,3.9,2.5,3.9s2.5-0.9,2.5-3.9V575.5z
		 M-438.8,580.3c0,4.1-2.8,9.4-7.3,9.4s-7.3-5.4-7.3-9.4c0-3.9,3-9,7.3-9C-441.8,571.3-438.8,576.4-438.8,580.3"/>
	<path class="st0" d="M-430.8,579.7c2.9,0.5,6.3,1.2,6.3,4.8s-4.2,5.3-8.2,5.3c-3.2,0-5.1-1.9-5.1-3.4c0-1.2,0.6-2.3,2-2.3
		c1.1,0,2.1,0.7,2.1,1.9c0,0.8-0.4,1.2-0.7,1.5c-0.4,0.3-0.8,0.4-0.8,0.7c0,0.6,2.3,0.8,2.7,0.8c2.2,0,3.4-1.5,3.4-4
		c0-3.4-1.2-4.7-4.2-4.7c-0.6,0-1.1,0.1-1.6,0.1c-0.4,0-0.4-0.8-0.1-0.8c0.5-0.1,1.1-0.1,1.6-0.1c2.8-0.3,3.5-1.4,3.5-4.1
		c0-2.5-0.6-3.3-2.5-3.3c-0.4,0-1.9,0-1.9,0.7c0,0.2,0.3,0.3,0.7,0.5c0.3,0.2,0.7,0.6,0.7,1.4c0,1.1-0.8,1.9-1.9,1.9
		c-1,0-1.8-0.8-1.8-1.8c0-2.1,2.1-3.4,5.2-3.4c2.5,0,6,1,6,4.1C-425.6,578.1-428.6,579.1-430.8,579.7L-430.8,579.7z"/>
	<path class="st0" d="M-453.8,568.3v-2.4c1.6-1.2,3.2-2.4,4.8-3.6c2.7-2.1,4-3.5,4-7c0-2-1.1-4-3.3-4c-0.8,0-1.7,0.3-2.4,0.7
		c-0.3,0.2-1.2,0.9-1.2,1.2c0,0.4,0.5,0.4,0.7,0.4c1.3,0,2.4,0.6,2.4,2c0,1.2-0.9,1.9-2.1,1.9c-1.5,0-2.3-1.3-2.3-2.6
		c0-2.4,2.3-4.6,6.4-4.6c3,0,6.4,1.2,6.4,4.7c0,2-1.2,3.3-2.6,4.5c-2.4,2.1-5.4,3.6-8,5.4h8.6c1.2,0,0.8-1.7,0.9-2.5h0.9l-0.3,5.9
		C-440.9,568.3-453.8,568.3-453.8,568.3z"/>
	<path class="st0" d="M-428.9,554.5c0-3.1-1.1-3.5-2.5-3.5s-2.5,0.4-2.5,3.5v9.7c0,2.9,0.9,3.9,2.5,3.9s2.5-0.9,2.5-3.9V554.5z
		 M-424.2,559.3c0,4.1-2.8,9.4-7.3,9.4s-7.3-5.4-7.3-9.4c0-3.9,3-9,7.3-9S-424.2,555.4-424.2,559.3"/>
	<path class="st0" d="M-451.9,544.5c-0.3,0-0.5-0.2-0.5-0.5s0.2-0.5,0.5-0.5c0.3,0,0.5,0.2,0.5,0.5S-451.6,544.5-451.9,544.5"/>
	<path class="st0" d="M-446.9,546.1c-0.5,0-0.9-0.1-1.3-0.5l0.4-0.4c0.3,0.3,0.5,0.3,0.9,0.3c0.5,0,0.7-0.2,0.7-0.5
		c0-0.2,0-0.3-0.1-0.4c-0.1-0.1-0.2-0.1-0.4-0.1l-0.4-0.1c-0.3,0-0.5-0.1-0.7-0.3c-0.1-0.1-0.2-0.3-0.2-0.6c0-0.6,0.4-1,1.2-1
		c0.5,0,0.8,0.1,1.1,0.4l-0.3,0.3c-0.2-0.2-0.5-0.3-0.8-0.3c-0.4,0-0.6,0.2-0.6,0.6c0,0.1,0,0.2,0.1,0.3c0.1,0.1,0.2,0.1,0.4,0.2
		l0.4,0.1c0.3,0.1,0.5,0.1,0.7,0.3c0.2,0.2,0.3,0.4,0.3,0.7C-445.6,545.7-446.1,546.1-446.9,546.1"/>
	<rect x="-443.9" y="542.5" class="st0" width="0.5" height="3.6"/>
	<polygon class="st0" points="-439.2,546 -440.9,543.5 -440.9,546 -441.4,546 -441.4,542.5 -440.9,542.5 -439.3,545 -439.3,542.5 
		-438.7,542.5 -438.7,546 	"/>
	<path class="st0" d="M-435.6,546.1c-0.4,0-0.7-0.1-0.9-0.4c-0.3-0.3-0.3-0.7-0.3-1.4s0-1.1,0.3-1.4c0.2-0.2,0.6-0.4,0.9-0.4
		c0.7,0,1.1,0.4,1.3,1.1h-0.5c-0.1-0.4-0.3-0.6-0.7-0.6c-0.2,0-0.4,0.1-0.5,0.2c-0.2,0.2-0.2,0.4-0.2,1.1s0,0.9,0.2,1.1
		c0.1,0.1,0.3,0.2,0.5,0.2c0.4,0,0.6-0.3,0.7-0.6h0.5C-434.5,545.7-435,546.1-435.6,546.1"/>
	<polygon class="st0" points="-432.7,546 -432.7,542.5 -430.4,542.5 -430.4,543 -432.1,543 -432.1,544 -430.6,544 -430.6,544.5 
		-432.1,544.5 -432.1,545.6 -430.4,545.6 -430.4,546 	"/>
	<path class="st0" d="M-426.1,544.5c-0.3,0-0.5-0.2-0.5-0.5s0.2-0.5,0.5-0.5c0.3,0,0.5,0.2,0.5,0.5
		C-425.7,544.3-425.9,544.5-426.1,544.5"/>
	<g>
		<path class="st0" d="M-453.7,493.3h1.6v0.4h-1.1v0.8h0.6v0.4h-0.6v1.2h-0.4v-2.8H-453.7z"/>
		<path class="st0" d="M-449.6,496.1h-0.4l-0.2-0.8h-0.7l-0.2,0.8h-0.5l0.7-2.8h0.6L-449.6,496.1z M-450.4,494.8l-0.2-0.9l-0.2,0.9
			C-450.8,494.8-450.4,494.8-450.4,494.8z"/>
	</g>
	<g>
		<path class="st0" d="M-446.8,493.3v2.8h-0.4v-1.8l-0.5,1.1l0,0l-0.5-1.1v1.8h-0.4v-2.8h0.4l0.5,1.1l0.5-1.1
			C-447.2,493.3-446.8,493.3-446.8,493.3z"/>
		<path class="st0" d="M-445.9,493.3h0.4v2.8h-0.4V493.3z"/>
	</g>
	<g>
		<path class="st0" d="M-444,493.3h0.4v2.4h1v0.4h-1.4V493.3z"/>
		<path class="st0" d="M-441.2,494.9l-0.8-1.6h0.5l0.5,1l0.5-1.1h0.5l-0.8,1.6v1.2h-0.4V494.9z"/>
	</g>
	<g>
		<path class="st0" d="M-437.7,495.9c-0.2-0.1-0.3-0.3-0.3-0.6V494c0-0.5,0.3-0.8,0.8-0.8h0.1c0.3,0,0.5,0.1,0.6,0.2
			s0.2,0.3,0.2,0.6v1.3c0,0.5-0.3,0.8-0.8,0.8h-0.1C-437.4,496.1-437.6,496-437.7,495.9z M-437.1,495.7c0.3,0,0.4-0.1,0.4-0.4V494
			c0-0.3-0.1-0.4-0.4-0.4h-0.1c-0.3,0-0.4,0.1-0.4,0.4v1.3C-437.5,495.6-437.4,495.7-437.1,495.7L-437.1,495.7z"/>
	</g>
	<g>
		<path class="st0" d="M-432.2,493.3l-0.6,2.8h-0.6l-0.3-1.6l-0.3,1.6h-0.6l-0.6-2.8h0.4l0.4,2.2l0.4-2.2h0.4l0.6,2.1l0.4-2.2
			L-432.2,493.3L-432.2,493.3z"/>
	</g>
	<g>
		<path class="st0" d="M-431.2,493.3h0.5l0.8,1.8v-1.8h0.4v2.8h-0.5l-0.8-1.8v1.8h-0.4V493.3z"/>
		<path class="st0" d="M-428.5,493.3h1.5v0.4h-1.1v0.8h0.6v0.4h-0.6v0.7h1.1v0.4h-1.6v-2.7H-428.5z"/>
		<path class="st0" d="M-426.1,493.3h0.9c0.3,0,0.5,0.1,0.6,0.2s0.2,0.3,0.2,0.6v1.2c0,0.5-0.3,0.8-0.8,0.8h-0.9
			C-426.1,496.1-426.1,493.3-426.1,493.3z M-425.2,495.7c0.3,0,0.4-0.1,0.4-0.4v-1.2c0-0.3-0.1-0.4-0.4-0.4h-0.5v1.9h0.5V495.7z"/>
	</g>
	<circle class="st0" cx="-439" cy="519.3" r="18.1"/>
	<g>
		<g>
			<g>
				<g>
					<circle class="st1" cx="-439" cy="519.3" r="6.4"/>
					<path class="st2" d="M-439,526c-3.7,0-6.7-3-6.7-6.7s3-6.7,6.7-6.7s6.7,3,6.7,6.7S-435.3,526-439,526z M-439,513.1
						c-3.4,0-6.1,2.7-6.1,6.1c0,3.4,2.7,6.1,6.1,6.1s6.1-2.7,6.1-6.1C-432.9,515.9-435.6,513.1-439,513.1z"/>
				</g>
				<g>
					<path class="st3" d="M-439,534.6c-8.4,0-15.3-6.9-15.3-15.3c0-8.4,6.9-15.3,15.3-15.3s15.3,6.9,15.3,15.3
						C-423.7,527.7-430.6,534.6-439,534.6z M-439,508.5c-5.9,0-10.8,4.8-10.8,10.8s4.9,10.8,10.8,10.8s10.8-4.8,10.8-10.8
						S-433.1,508.5-439,508.5z"/>
					<path class="st2" d="M-439,534.8c-8.6,0-15.6-7-15.6-15.6c0-8.6,7-15.6,15.6-15.6s15.6,7,15.6,15.6
						C-423.4,527.8-430.4,534.8-439,534.8z M-439,504.3c-8.3,0-15,6.7-15,15s6.7,15,15,15s15-6.7,15-15S-430.7,504.3-439,504.3z
						 M-439,530.3c-6.1,0-11.1-5-11.1-11.1c0-6.1,5-11.1,11.1-11.1s11.1,5,11.1,11.1C-427.9,525.4-432.9,530.3-439,530.3z
						 M-439,508.8c-5.8,0-10.5,4.7-10.5,10.5s4.7,10.5,10.5,10.5s10.5-4.7,10.5-10.5S-433.2,508.8-439,508.8z"/>
				</g>
			</g>
			<path class="st2" d="M-439,537.3c-10,0-18.1-8.1-18.1-18.1s8.1-18,18.1-18s18.1,8.1,18.1,18.1S-429,537.3-439,537.3z M-439,501.8
				c-9.7,0-17.5,7.9-17.5,17.5c0,9.7,7.9,17.5,17.5,17.5s17.5-7.9,17.5-17.5C-421.5,509.6-429.3,501.8-439,501.8z"/>
		</g>
		<g>
			<g>
				<path class="st0" d="M-442.8,517.9c0,0.4,0.3,0.4,0.5,0.6c-0.2,0-0.1-0.1-0.2-0.1s-0.1,0.1-0.2,0.1c0.1,0.4,0.4,0.3,0.6,0.5
					c-0.2,0-0.3-0.1-0.3-0.1c-0.1,0-0.1,0.1-0.1,0.2c0,0.1,0.2,0.3,0.3,0.3c0.1,0,0.4-0.1,0.5-0.1c-0.1,0.1-0.5,0.1-0.5,0.2v0.1
					c0,0.1,0.1,0.2,0.2,0.2h0.2h-0.2c0,0.2,0.1,0.3,0.2,0.3l0,0c0.2,0,0.2-0.2,0.4-0.2c0,0.2,0.1,0.4,0.2,0.4c0.2,0,0.2,0,0.3,0
					c0,0,0.1,0,0.1-0.1V520c0.1,0.1,0.1,0.4,0.3,0.4h0.1c0.1,0,0.1,0,0.1-0.1c0.1,0.1,0.1,0.1,0.2,0.1s0.1,0,0.1-0.1
					c0-0.2-0.2-0.5-0.2-0.8h-0.1l0.1,0.3l0,0l-0.1-0.3h-0.2c-0.1,0,0,0.1,0,0.3l-0.1-0.3l-0.5-0.1l-0.1-0.1h-0.1l0.1-0.1l0.2,0.1
					l0,0c0,0,0,0.1,0.1,0.1h0.1l-0.1-0.2l0.2,0.3h0.2l-0.1-0.2l0,0v0.1l0.1,0.1h0.3V519h-0.3h-0.2c-0.2,0-0.4-0.2-0.4-0.4
					c0-0.2,0.2-0.4,0.2-0.6s-0.3-0.7-0.4-0.8c-0.1-0.2-0.2-0.6-0.3-0.9l-0.1,0.3h-0.1c0-0.2-0.2-0.5-0.3-0.7
					c-0.1-0.2-0.1-0.7-0.2-0.8c-0.1,0.1-0.2,0.2-0.2,0.4v0.4c-0.1,0-0.1,0-0.1,0h-0.1v0.1c0,0.3,0.1,0.4,0.2,0.7
					c0.1,0.2,0.3,0.4,0.3,0.5c-0.1,0-0.2-0.2-0.2-0.3c-0.1-0.1-0.2-0.2-0.3-0.2c0,0.6,0.4,0.8,0.7,1.1c-0.2-0.1-0.4-0.5-0.7-0.5
					h-0.1c0.1,0.3,0.3,0.5,0.3,0.7L-442.8,517.9L-442.8,517.9z M-442.3,518.2l0.6,0.2l0.1-0.2l-0.6-0.5l0,0l0.7,0.4l-0.1,0.2v0.3
					c0.1-0.1,0.1-0.3,0.4-0.4c-0.1,0.1-0.3,0.3-0.3,0.5c0,0.1,0.1,0.3,0.1,0.3c0-0.2,0-0.3,0.1-0.5c0,0.1,0,0.1,0,0.2v0.3
					c0,0.1,0,0.1,0,0.1h-0.1h-0.4l0,0h0.4l-0.1-0.3l-0.6-0.2l0,0l0.6,0.1c0-0.1,0-0.1,0-0.2s0-0.1,0-0.1l0,0L-442.3,518.2
					L-442.3,518.2z"/>
				<path class="st0" d="M-436.4,517c-0.4,0-0.7-0.3-0.7-0.7c0-0.1,0-0.2,0.1-0.3c-0.2,0.1-0.3,0.3-0.3,0.6c0,0.4,0.4,0.8,0.9,0.8
					s0.9-0.4,0.9-0.8c0-0.2-0.1-0.4-0.3-0.6c0.1,0.1,0.1,0.2,0.1,0.3C-435.6,516.7-436,517-436.4,517z"/>
				<path class="st0" d="M-438.7,521.6V521c-0.2,0-0.2-0.3-0.2-0.3c0,0.1,0.2,0.2,0.2,0.2v-0.5c-0.1-0.1-0.1-0.2-0.1-0.2
					c0,0.1,0.1,0.1,0.1,0.1V516l0,0c-0.2,0-0.3-0.1-0.5-0.1h-0.1c-0.1,0-0.1,0-0.2,0h-0.1v0.1c0,0-0.1,0-0.1-0.1
					c-0.3,0-0.2,0.4-0.2,0.4s0.1-0.1,0.2-0.1c0.1,0,0.1,0.1,0.2,0.1c0.1,0.1,0.2,0.1,0.3,0.2c0.2,0.1,0.2,0.1,0.2,0.1l0,0
					c-0.1,0-0.5,0-0.6,0c-0.1,0-0.1,0-0.1,0s0.3,0,0.6,0c0,0,0,0,0.1,0l0,0l0.2,0.1c0,0.1,0,0,0,0.1c0,0.3-0.2,0.3-0.4,0.4
					c-0.3,0.1-0.3,0.2-0.5,0.4v0.1c0.1-0.1,0.1-0.2,0.3-0.2c-0.1,0.1-0.3,0.2-0.3,0.3c0,0.1,0.1,0.3,0.2,0.3v-0.2c0,0,0-0.1,0.1-0.1
					c0,0.3,0.1,0.3,0.2,0.5c-0.1,0-0.4-0.3-0.4-0.4c-0.1,0-0.3,0.3-0.3,0.4c-0.1,0.1-0.2,0.4-0.2,0.6l0,0c0,0.5,0.3,0.9,0.5,1.2
					c0.3,0.4,0.4,0.6,0.4,1.3v0.4c0,0.3-0.3,0.7-0.6,0.7l0,0h-0.2c0,0,0.2-0.1,0.3-0.1c-0.1,0.1-0.2,0.1-0.2,0.2h0.1
					c0.2,0,0.2-0.1,0.4-0.2l-0.1,0.2l0,0c0.2,0,0.2-0.2,0.3-0.3c0,0.2-0.1,0.2-0.1,0.3v0.2c0,0.1,0,0.1,0.1,0.1v-0.2v0.4
					c0.1,0,0.2-0.2,0.2-0.3v0.1l0.2-0.1h0.1V521.6C-438.8,521.9-438.7,521.7-438.7,521.6z M-439,516.3c-0.1,0-0.2,0-0.2-0.1V516l0,0
					v0.1l-0.1-0.1c0.2,0,0.2,0,0.3,0s0.2,0.1,0.3,0.1l0,0h-0.1C-438.8,516.2-438.9,516.3-439,516.3z M-439.1,519.2
					c-0.1,0.3-0.3,0.1-0.3,0.1C-439.2,519.4-439.1,519.3-439.1,519.2z M-439.3,519.7c0,0.3,0.3,0.3,0.3,0.3
					C-439.4,520-439.3,519.7-439.3,519.7z M-439.1,520.5c-0.1,0-0.2-0.2-0.2-0.2c0.3,0.2,0.3-0.1,0.3-0.1
					C-439,520.4-439,520.5-439.1,520.5z M-439.7,519.1c0,0,0,0.1-0.1,0.2c-0.1,0-0.2-0.2-0.2-0.2
					C-439.8,519.4-439.7,519.1-439.7,519.1z M-440,519.6c0.2,0.2,0.3,0,0.3,0C-439.8,520-440,519.7-440,519.6z M-439.8,520.1
					l0.2,0.1c0.1,0,0-0.2,0-0.2c0.1,0.1,0.1,0.4,0,0.4S-439.8,520.2-439.8,520.1z M-439.3,521c-0.2,0-0.2-0.3-0.2-0.3
					S-439.5,520.9-439.3,521c0.1-0.1,0.1-0.3,0.1-0.3S-439.1,521-439.3,521z M-439,521.5c-0.2,0-0.2-0.2-0.2-0.3
					C-439.2,521.3-439.1,521.4-439,521.5c0.1-0.1,0.2-0.4,0.2-0.4C-438.8,521.2-438.8,521.5-439,521.5z"/>
				<path class="st0" d="M-440.7,520.7c-0.3,0-0.5,0.3-0.5,0.6v0.1c0,0.2,0.1,0.4,0.1,0.6v0.3h0.1c0.1,0,0,0,0.1,0c0,0.1,0,0,0,0.1
					v0.1c0.1,0,0.3-0.1,0.3-0.2c0.1,0,0.1,0,0.2-0.1l0.1-0.6v0.2c0.1,0.1,0.4,0.3,0.6,0.3h0.1l-0.1-0.8
					C-440,521.1-440.3,520.7-440.7,520.7L-440.7,520.7z"/>
				<path class="st0" d="M-439.5,516.6c0.1,0,0.2,0.1,0.3,0.1c0.1,0,0.1,0,0.1,0S-439.4,516.5-439.5,516.6c-0.3-0.1-0.3,0-0.3,0
					S-439.6,516.5-439.5,516.6z"/>
				<path class="st0" d="M-441.2,521.9c0-0.1-0.3-0.2-0.4-0.2c-0.1-0.1-0.2-0.2-0.3-0.2v-0.2c0-0.2,0-0.2,0-0.3v-0.2
					c0-0.1-0.1-0.1-0.2-0.1v-0.1c-0.1-0.2-0.3-0.1-0.3-0.1c0.1,0.1,0.1,0.2,0.1,0.2v0.1l0,0l0,0l0,0c0,0-0.1-0.1-0.3,0
					c0,0,0.1,0,0.1,0.1l0,0v0.1l0.3,0.7l-0.1,0.8h0.1l0,0c0,0,0,0-0.1,0.1c0,0,0.1,0.1,0.2,0l0,0c0.2,0,0-0.3,0-0.5
					c0-0.1,0.1-0.2,0.2-0.2c0.2,0,0.5,0.3,0.7,0.3V521.9C-441.1,521.9-441.1,521.9-441.2,521.9L-441.2,521.9z"/>
				<path class="st0" d="M-435.9,518.6L-435.9,518.6L-435.9,518.6c0.3,0.2,0.5,0.4,0.5,0.7c0,0.5-0.4,0.8-0.9,0.8s-0.9-0.4-0.9-0.8
					c0-0.3,0.2-0.6,0.4-0.7c-0.4,0.2-0.7,0.5-0.7,0.9c0,0.6,0.5,1,1.2,1c0.6,0,1.2-0.5,1.2-1C-435.2,519.1-435.5,518.7-435.9,518.6z
					"/>
				<path class="st0" d="M-435.9,521.4L-435.9,521.4L-435.9,521.4c0.3,0.2,0.5,0.4,0.5,0.7c0,0.5-0.4,0.8-0.9,0.8s-0.9-0.4-0.9-0.8
					c0-0.3,0.2-0.6,0.4-0.7c-0.4,0.2-0.7,0.5-0.7,0.9c0,0.6,0.5,1,1.2,1c0.6,0,1.2-0.5,1.2-1C-435.2,521.9-435.5,521.5-435.9,521.4z
					"/>
				<path class="st0" d="M-435.9,515.8L-435.9,515.8L-435.9,515.8c0.3,0.2,0.5,0.4,0.5,0.7c0,0.5-0.4,0.8-0.9,0.8s-0.9-0.4-0.9-0.8
					c0-0.3,0.2-0.6,0.4-0.7c-0.4,0.2-0.7,0.5-0.7,0.9c0,0.6,0.5,1,1.2,1c0.6,0,1.2-0.5,1.2-1C-435.2,516.3-435.5,515.9-435.9,515.8z
					"/>
				<path class="st0" d="M-436.4,519.8c-0.4,0-0.7-0.3-0.7-0.7c0-0.1,0-0.2,0.1-0.3c-0.2,0.1-0.3,0.3-0.3,0.6c0,0.4,0.4,0.8,0.9,0.8
					s0.9-0.4,0.9-0.8c0-0.2-0.1-0.4-0.3-0.6c0.1,0.1,0.1,0.2,0.1,0.3C-435.6,519.5-436,519.8-436.4,519.8z"/>
				<path class="st0" d="M-436.4,522.6c-0.4,0-0.7-0.3-0.7-0.7c0-0.1,0-0.2,0.1-0.3c-0.2,0.1-0.3,0.3-0.3,0.6c0,0.4,0.4,0.8,0.9,0.8
					s0.9-0.4,0.9-0.8c0-0.2-0.1-0.4-0.3-0.6c0.1,0.1,0.1,0.2,0.1,0.3C-435.6,522.3-436,522.6-436.4,522.6z"/>
			</g>
			<rect x="-438.7" y="513.2" class="st0" width="0.1" height="12.3"/>
		</g>
	</g>
</g>
</svg>
