<?xml version="1.0" encoding="utf-8"?>
<!-- Generator: Adobe Illustrator 24.0.1, SVG Export Plug-In . SVG Version: 6.00 Build 0)  -->
<svg version="1.1" id="Layer_1" xmlns="http://www.w3.org/2000/svg" xmlns:xlink="http://www.w3.org/1999/xlink" x="0px" y="0px"
	 viewBox="0 0 500 500" style="enable-background:new 0 0 500 500;" xml:space="preserve">
<style type="text/css">
	.st0{fill:#FFFFFF;}
	.st1{clip-path:url(#SVGID_2_);}
	.st2{fill-rule:evenodd;clip-rule:evenodd;fill:#FFFFFF;}
</style>
<rect x="-0.68" y="-0.68" width="501.36" height="501.36"/>
<g>
	<path class="st0" d="M279.19,126.04L279.19,126.04l-7.61,81.67l-12.98-68.85l-40.73,9.77l12.98,68.85l-58.72,14.06l10.38,55
		l103.24,24.72l23.62-59.75l11.23-120.53L279.19,126.04z M246.58,244.51L246.58,244.51L246.58,244.51L246.58,244.51
		c-2.13,2.21-4.96,2-7.94,0.87c-2.98-1.11-4.32-5.19-3.19-10.1c0.85-3.65,4.81-4.19,6.78-4.24c0.75-0.03,1.49,0.15,2.18,0.51
		c1.41,0.72,3.78,2.24,4.27,4.57C249.38,239.48,248.71,242.3,246.58,244.51z M276.47,248.29L276.47,248.29
		c-1.57,3.03-5.63,3.42-9.61,1.23c-2.7-1.49-2.67-5.27-2.36-7.58c0.15-1.26,0.62-2.44,1.31-3.44c0.95-1.36,2.57-3.16,4.42-3.21
		c3.01-0.1,5.6,1.44,7.07,4.19C278.76,242.23,278.04,245.26,276.47,248.29z"/>
	<path class="st0" d="M302.32,340.6c-3.68,0-6.76,1.67-8.71,4.75l-0.87-4.03h-8.4l1.36,6.25v25.7h8.17v-20.35
		c1.11-2.11,3.19-3.39,5.89-3.39l0,0l0,0c1.67,0,3.19,0.44,4.6,1.41l3.88-8.74C306.44,341.09,304.36,340.6,302.32,340.6z"/>
	<path class="st0" d="M320.91,340.66c-9.28,0-16.17,6.76-16.17,16.65s6.89,16.65,16.14,16.65l0,0c9.28,0,16.14-6.73,16.14-16.65
		C337.07,347.42,330.18,340.66,320.91,340.66z M320.91,365.35L320.91,365.35c-4.73,0-8.22-3.16-8.22-8.04c0-4.96,3.5-8.04,8.22-8.04
		c4.78,0,8.22,3.08,8.22,8.04C329.16,362.22,325.71,365.35,320.91,365.35z"/>
	<path class="st0" d="M354.32,340.66c-9.28,0-16.17,6.76-16.17,16.65s6.89,16.65,16.14,16.65c9.28,0,16.17-6.73,16.17-16.65l0,0
		C370.48,347.42,363.59,340.66,354.32,340.66z M354.32,365.35c-4.73,0-8.22-3.16-8.22-8.04c0-4.96,3.5-8.04,8.22-8.04
		c4.78,0,8.22,3.08,8.22,8.04C362.54,362.22,359.12,365.35,354.32,365.35z"/>
	<path class="st0" d="M162.03,327.16h-8.17v18.02c-2.47-2.85-5.83-4.52-9.82-4.52c-8.17,0-14.49,6.73-14.49,16.65
		c0,9.89,6.32,16.65,14.49,16.65c4.06,0,7.56-1.72,10.02-4.7l0.85,4.03l0,0h8.53l-1.41-6.63V327.16z M145.68,365.35
		c-4.73,0-8.22-3.16-8.22-8.04c0-4.96,3.5-8.04,8.22-8.04c4.78,0,8.22,3.08,8.22,8.04C153.93,362.22,150.49,365.35,145.68,365.35z"
		/>
	<polygon class="st0" points="236.56,367.23 230.29,341.35 221.52,341.35 230.06,373.29 230.06,373.29 230.06,373.29 243.19,373.29 
		251.72,341.35 242.83,341.35 	"/>
	<path class="st0" d="M267.14,340.66c-9.2,0-15.96,6.68-15.96,16.65c0,10.15,6.71,16.65,17.06,16.65l0,0l0,0
		c4.55,0,9.02-1.23,12.77-3.65l-3.14-7.07c-2.96,1.54-6.19,2.47-9.51,2.47c-4.29,0-7.3-1.67-8.61-4.75h22.98
		c0.26-1.18,0.36-2.34,0.36-3.78C283.1,347.29,276.29,340.66,267.14,340.66z M259.28,354.41c0.93-3.65,3.68-5.63,7.86-5.63
		c4.24,0,7.02,1.98,7.86,5.63H259.28z"/>
	<path class="st0" d="M180.66,340.58c-9.2,0-15.96,6.68-15.96,16.65c0,10.15,6.68,16.65,17.06,16.65c4.55,0,9.02-1.23,12.77-3.65
		l-3.14-7.07c-2.96,1.54-6.19,2.47-9.51,2.47c-4.29,0-7.3-1.67-8.61-4.75h22.98c0.26-1.18,0.36-2.34,0.36-3.78
		C196.62,347.21,189.81,340.58,180.66,340.58z M172.64,354.41c0.93-3.65,3.68-5.63,7.86-5.63l0,0c4.24,0,6.99,1.98,7.86,5.63H172.64
		z"/>
	<path class="st0" d="M215.87,326.55c-2.96,0-5.17,2.24-5.17,5.19s2.21,5.19,5.17,5.19l0,0c2.88,0,5.09-2.24,5.09-5.19
		S218.75,326.55,215.87,326.55z"/>
	<rect x="211.76" y="341.35" class="st0" width="8.17" height="31.94"/>
	<polygon class="st0" points="199.04,373.29 199.06,373.29 207.21,373.29 207.21,327.16 199.04,327.16 	"/>
</g>
</svg>
