<?xml version="1.0" encoding="utf-8"?>
<!-- Generator: Adobe Illustrator 24.0.1, SVG Export Plug-In . SVG Version: 6.00 Build 0)  -->
<svg version="1.1" id="Layer_1" xmlns="http://www.w3.org/2000/svg" xmlns:xlink="http://www.w3.org/1999/xlink" x="0px" y="0px"
	 viewBox="0 0 500 500" style="enable-background:new 0 0 500 500;" xml:space="preserve">
<style type="text/css">
	.st0{fill:#FFFFFF;}
	.st1{clip-path:url(#SVGID_2_);}
	.st2{fill-rule:evenodd;clip-rule:evenodd;fill:#FFFFFF;}
</style>
<rect x="-0.68" y="-0.68" width="501.36" height="501.36"/>
<g>
	<path class="st0" d="M317.38,194.84c-6.48-12.14-19.1-19.69-32.89-19.69H180.51c-2,0-3.54,1.65-3.54,3.65
		c0,0.94,0.35,1.89,1.06,2.48l22.64,22.75c2,2,4.72,3.18,7.55,3.18h73.33c5.19,0,9.55,4.13,9.55,9.31s-4.13,9.55-9.31,9.55H231.2
		c-2,0-3.54,1.65-3.54,3.65c0,0.94,0.35,1.89,1.06,2.48l22.52,22.75c2,2,4.72,3.18,7.55,3.18h22.87
		C311.49,258.15,334,226.32,317.38,194.84"/>
	<g>
		<path class="st0" d="M77.51,291.31v24.83h6.37c6.77-0.08,12.17-5.64,12.09-12.41l0,0c0.16-6.61-5.08-12.17-11.69-12.41
			c-0.16,0-0.24,0-0.4,0H77.51z M83.88,283.57c11.85,0,20.8,8.95,20.8,20.15c0,11.2-8.95,20.23-20.8,20.23H69.85
			c-0.56,0-0.97-0.48-0.97-0.97v-38.37c0-0.56,0.48-0.97,0.97-0.97L83.88,283.57z"/>
		<path class="st0" d="M135.06,317.02c7.33,0,13.3-5.88,13.3-13.22s-5.88-13.3-13.22-13.3c-7.33,0-13.3,5.88-13.3,13.22l0,0
			C121.84,311.06,127.81,316.94,135.06,317.02 M135.06,282.69c12.41,0,21.92,9.59,21.92,21.04c0,11.53-9.51,21.04-21.92,21.04
			s-21.84-9.51-21.84-21.04C113.22,292.2,122.73,282.69,135.06,282.69"/>
		<path class="st0" d="M187.29,317.02c7.33,0,13.22-5.96,13.22-13.3c0-7.33-5.96-13.22-13.3-13.22c-7.33,0-13.22,5.96-13.22,13.22
			C173.99,311.06,179.96,317.02,187.29,317.02L187.29,317.02 M187.29,282.69c12.41,0,21.92,9.51,21.92,21.04
			s-9.59,21.04-21.92,21.04c-12.33,0-21.92-9.51-21.92-21.04C165.37,292.2,174.88,282.69,187.29,282.69"/>
		<path class="st0" d="M238.23,291.31h-8.95v10.64h8.95c2.9,0.16,5.32-2.1,5.48-5c0-0.08,0-0.16,0-0.16c0.08-2.9-2.18-5.4-5.08-5.48
			C238.47,291.31,238.31,291.31,238.23,291.31 M220.66,284.62c0-0.56,0.48-0.97,0.97-0.97h16.85c8.06,0,13.86,5.88,13.86,13.3
			c0.08,5-2.74,9.59-7.17,11.85l7.74,13.7c0.32,0.48,0.16,1.05-0.24,1.37c-0.16,0.16-0.4,0.16-0.64,0.16h-6.85
			c-0.4,0-0.73-0.24-0.89-0.56l-7.5-13.62h-7.5v13.06c0,0.56-0.48,0.97-0.97,0.97h-6.53c-0.56,0-0.97-0.48-0.97-0.97L220.66,284.62z
			"/>
		<path class="st0" d="M274.91,291.55v24.83h6.37c6.77-0.08,12.17-5.64,12.09-12.41l0,0c0.16-6.61-5-12.17-11.69-12.41
			c-0.16,0-0.32,0-0.4,0H274.91z M281.19,283.73c11.85,0,20.8,8.95,20.8,20.23c0,11.28-8.95,20.23-20.8,20.23h-13.94
			c-0.56,0-0.97-0.48-0.97-0.97v-38.45c0-0.56,0.48-0.97,0.97-0.97L281.19,283.73z"/>
		<path class="st0" d="M328.35,293.65l-4.92,13.3h9.83L328.35,293.65z M320.61,314.36l-3.22,8.87c-0.16,0.4-0.56,0.73-0.97,0.73
			h-6.93c-0.56,0.08-1.05-0.32-1.13-0.89c0-0.16,0-0.32,0.08-0.48l15.07-38.29c0.16-0.4,0.56-0.73,0.97-0.64h7.82
			c0.48,0,0.89,0.24,0.97,0.64l15.07,38.29c0.24,0.48,0,1.13-0.48,1.37c-0.16,0.08-0.32,0.08-0.48,0.08h-6.93
			c-0.48,0-0.89-0.24-0.97-0.73l-3.22-8.87h-15.64L320.61,314.36L320.61,314.36z"/>
		<path class="st0" d="M356.39,294.45c0-6.37,5.48-11.85,14.11-11.85c4.67-0.08,9.11,1.61,12.57,4.76c0.4,0.4,0.4,1.05,0.08,1.45
			c0,0,0,0-0.08,0.08l-3.87,3.87c-0.4,0.4-1.05,0.4-1.45,0l0,0c-1.85-1.69-4.19-2.58-6.69-2.66c-3.47,0-6.05,2.02-6.05,4.35
			c0,7.5,20.47,3.14,20.47,17.57c0,7.33-5.56,12.82-15.31,12.82c-5.48,0.08-10.72-2.02-14.59-5.88c-0.4-0.4-0.4-1.05-0.08-1.45
			c0,0,0,0,0.08-0.08l3.71-3.71c0.4-0.4,1.05-0.4,1.45,0l0,0c2.34,2.26,5.56,3.55,8.79,3.63c4.35,0,7.17-2.34,7.17-5.24
			C376.79,304.61,356.39,308.96,356.39,294.45"/>
		<path class="st0" d="M422.65,284.54v15.15h-17.33v-15.15c0-0.56-0.48-0.97-0.97-0.97h-6.53c-0.56,0-0.97,0.48-0.97,0.97v38.29
			c0,0.56,0.48,0.97,0.97,0.97h6.53c0.56,0,0.97-0.48,0.97-0.97v-15.4h17.33v15.4c0,0.56,0.48,0.97,0.97,0.97h6.53
			c0.56,0,0.97-0.48,0.97-0.97v-38.29c0-0.56-0.48-0.97-0.97-0.97h-6.53C423.05,283.57,422.65,283.98,422.65,284.54z"/>
	</g>
</g>
</svg>
