<?xml version="1.0" encoding="utf-8"?>
<!-- Generator: Adobe Illustrator 24.0.1, SVG Export Plug-In . SVG Version: 6.00 Build 0)  -->
<svg version="1.1" id="Layer_1" xmlns="http://www.w3.org/2000/svg" xmlns:xlink="http://www.w3.org/1999/xlink" x="0px" y="0px"
	 viewBox="0 0 500 500" style="enable-background:new 0 0 500 500;" xml:space="preserve">
<style type="text/css">
	.st0{fill:#FFFFFF;}
	.st1{clip-path:url(#SVGID_2_);}
	.st2{fill-rule:evenodd;clip-rule:evenodd;fill:#FFFFFF;}
</style>
<rect x="-0.68" y="-0.68" width="501.36" height="501.36"/>
<g>
	<g>
		<defs>
			<rect id="SVGID_1_" x="66.78" y="137.11" width="366.45" height="225.78"/>
		</defs>
		<clipPath id="SVGID_2_">
			<use xlink:href="#SVGID_1_"  style="overflow:visible;"/>
		</clipPath>
		<g class="st1">
			<g>
				<path class="st2" d="M302.73,264.87c30.44,0,61.16,0,90.44,0c7.5,0,11.99,2.71,15.02,7.59c3.23,5.19,2.58,12.22,2.58,20.03
					c0,7.04,0,15.21,0,22.61c0,7.45,0.32,14.63-3.79,18.66c-0.67,0.54-1.28,1.15-1.82,1.82c-2.63,1.92-5.44,3.66-9.86,3.79
					c-96.86,0-193.71,0-290.58,0c-9.07-0.94-14.02-6.01-15.33-14.72c0-14.97,0-29.94,0-44.91c0.92-7.79,6.04-13.58,13.66-14.72
					c3.63-0.54,7.81-0.15,11.84-0.15c27.22,0,56.43,0,83.3,0c0.25-11.33,0.25-23.72,0-35.05c-4.79-6.16-8.84-14.51-8.35-25.34
					c0.46-10.21,5.07-17.98,10.01-23.52c0.67-0.54,1.28-1.15,1.82-1.82c6.2-5.29,12.64-9.18,22.76-9.86
					c1.55-0.11,3.69-2.54,5.31-3.64c5.22-3.55,11.43-5.77,19.42-6.22c0.86,0,1.72,0,2.58,0c10.75,0.53,18.07,4.48,23.97,9.86
					c15.04,0.72,26.48,9.95,31.71,20.79c2.98,6.17,4.41,14.15,3.19,21.85c-1.17,7.38-4.04,13.13-7.89,18.06
					C302.48,241.25,302.48,253.59,302.73,264.87z M249.47,177.01c-5.5,0.12-8.98,2.25-12.14,4.7c-0.67,0.54-1.28,1.15-1.82,1.82
					c-1.08,1.25-1.91,2.74-2.88,4.1c-12.78-3.87-24.64,5.31-25.34,16.99c-0.25,0.76-0.25,2.58,0,3.34
					c0.35,5.06,2.34,8.48,4.86,11.38c0.44,0.57,0.95,1.08,1.52,1.52c2.77,2.31,1.97,7.93,1.97,13.05c0,10.21,0,21.42,0,30.95
					c5.71-1.07,11.5-2.06,17.6-2.73c0-4.13,0-8.79,0-13.66c0-7.03-1.76-16.57,4.55-16.39c5.96,0.17,4.25,9.32,4.25,15.93
					c0,4.83,0,9.44,0,13.5c1.32,0.01,2.37-0.26,3.79-0.15c0.56,0,1.11,0,1.67,0c1.82,0,3.64,0,5.46,0c0.61,0,1.21,0,1.82,0
					c1.38-0.11,2.35,0.17,3.64,0.15c0.35-8.24,0.05-17.15,0.15-25.64c0.22-5.08,8.83-4.75,8.65,0.46c0.1,8.55-0.2,17.5,0.15,25.8
					c5.95,0.73,11.76,1.59,17.3,2.73c0.7-12.26,0.11-27.36,0.3-40.36c0.61-3.35,3.72-5.11,5.46-7.89c1.6-2.56,2.64-5.15,2.88-8.8
					c0.92-13.67-11.21-24.07-25.64-20.18c-3.23-5.87-8.09-10.12-16.69-10.62C250.82,176.76,249.63,176.76,249.47,177.01z
					 M327.01,281.41c-5.77,0.3-9.65,2.49-12.9,5.31c-0.57,0.44-1.08,0.95-1.52,1.52c-7.16,6.52-6.68,22.03,0,27.92
					c0.44,0.57,0.95,1.07,1.52,1.52c3.2,2.57,6.72,4.81,12.14,5.16c0.86,0.25,2.78,0.25,3.64,0c10.31-0.8,18.3-9.16,18.97-19.12
					c0.88-13.18-8.48-21.17-19.73-22.31C328.77,281.16,327.37,281.16,327.01,281.41z M376.62,289.45c3.52,0.22,5.57,1.91,7.74,3.49
					c1.61-2.03,3.33-3.95,5.01-5.92c-5.92-7.71-22.49-7.11-28.37-0.15c-0.57,0.44-1.08,0.95-1.52,1.52
					c-2.8,3.07-4.96,6.77-5.31,12.29c-0.25,0.61-0.25,2.27,0,2.88c0.69,10.49,9.24,18.74,19.42,19.42
					c8.26,0.55,15.23-2.51,19.73-7.28c0.25-5.06,0.25-11.18,0-16.24c-5.51-0.35-11.68-0.05-17.45-0.15c-0.25,2.33-0.25,5.71,0,8.04
					c2.93,0,5.87,0,8.8,0c0,1.67,0,3.34,0,5.01c-2.27,1.42-4.96,2.42-8.5,2.58c-0.56,0-1.11,0-1.67,0
					c-7.25-0.85-12.34-6.18-11.53-14.42c0.6-6.13,4.93-10.17,10.92-11.08C374.8,289.45,375.71,289.45,376.62,289.45z M106.68,282.32
					c-0.25,12.9-0.25,26.86,0,39.75c2.58,0.25,6.22,0.25,8.8,0c0-8.24,0-16.49,0-24.73c3.04,4.25,5.69,8.88,8.65,13.2
					c1.42,0.25,3.89,0.25,5.31,0c2.76-4.37,5.61-8.66,8.35-13.05c0.46,7.89-0.15,16.84,0.3,24.73c2.93,0,5.87,0,8.8,0
					c0.25-13,0.25-27.06,0-40.06c-3.14,0.1-6.68-0.2-9.56,0.15c-3.71,5.2-6.92,10.89-10.62,16.08c-3.51-5.34-6.91-10.8-10.47-16.08
					C113.41,282.07,109.52,282.07,106.68,282.32z M155.7,282.17c-0.28,5.7-0.15,12.43-0.15,19.88c0,4.98,0,9.95,0,15.02
					c0,1.47-0.25,4.7,0,5.01c0.42,0.51,5.3,0.15,6.37,0.15c6.84,0,13.8,0.12,19.88-0.15c0-2.58,0-5.16,0-7.74
					c-5.41-0.35-11.48-0.05-17.15-0.15c0-2.73,0-5.46,0-8.19c4.6,0,9.21,0,13.81,0c0-2.63,0-5.26,0-7.89
					c-4.3-0.35-9.26-0.05-13.81-0.15c0-2.58,0-5.16,0-7.74c5.66-0.1,11.73,0.2,17.15-0.15c0-2.58,0-5.16,0-7.74
					C173.4,281.97,164.34,282.27,155.7,282.17z M198.03,282.47c-2.24-0.7-5.76-0.11-8.5-0.3c0,13.3,0,26.6,0,39.91
					c2.63,0.25,6.32,0.25,8.95,0c0-8.04,0-16.08,0-24.13c6.18,7.99,12.19,16.14,18.36,24.13c2.18,0.25,5.41,0.25,7.59,0
					c0.25-12.9,0.25-26.86,0-39.75c-2.58-0.25-6.22-0.25-8.8,0c0,7.74,0,15.48,0,23.22C209.62,297.99,203.96,290.09,198.03,282.47z
					 M233.23,307.36c0.69,9.53,5.93,14.5,15.17,15.48c0.86,0.25,2.78,0.25,3.64,0c9.28-0.99,14.6-5.93,15.17-15.63
					c0.25-7.94,0.25-16.94,0-24.88c-2.58-0.25-6.22-0.25-8.8,0c-0.63,8,0.84,17.98,0,25.49c-1.02,9.05-15.09,9.78-16.24,0
					c-0.1-8.5,0.2-17.4-0.15-25.64c-2.93,0-5.87,0-8.8,0C232.98,290.21,232.98,299.31,233.23,307.36z M276.02,282.17
					c-0.35,13-0.05,26.66-0.15,39.91c9.36,0.25,19.78,0.25,29.13,0c-0.1-2.63,0.2-5.66-0.15-8.04c-6.63,0-13.25,0-19.88,0
					c-0.1-10.57,0.2-21.55-0.15-31.86C281.89,282.17,278.96,282.17,276.02,282.17z"/>
				<path class="st2" d="M328.98,289.45c7.02,0.87,10.9,4.89,11.84,11.84c0,0.56,0,1.11,0,1.67c-0.62,5.22-2.96,8.49-6.52,10.47
					c-10.96,6.09-22.88-5.72-17.9-16.69c1.79-3.94,5.11-6.5,10.62-7.28C327.66,289.45,328.32,289.45,328.98,289.45z"/>
			</g>
		</g>
	</g>
</g>
</svg>
