<?xml version="1.0" encoding="utf-8"?>
<!-- Generator: Adobe Illustrator 24.0.1, SVG Export Plug-In . SVG Version: 6.00 Build 0)  -->
<svg version="1.1" id="Layer_1" xmlns="http://www.w3.org/2000/svg" xmlns:xlink="http://www.w3.org/1999/xlink" x="0px" y="0px"
	 viewBox="0 0 500 500" style="enable-background:new 0 0 500 500;" xml:space="preserve">
<style type="text/css">
	.st0{fill:#FFFFFF;}
	.st1{clip-path:url(#SVGID_2_);}
	.st2{fill-rule:evenodd;clip-rule:evenodd;fill:#FFFFFF;}
</style>
<rect x="-0.68" y="-0.68" width="501.36" height="501.36"/>
<g>
	<g>
		<path class="st0" d="M126.72,259.86h58.75v14.29h-42.88v20.44h41.74v13.87h-41.74v20.73h42.88v14.29h-58.75V259.86z
			 M345.12,345.06c18.01,0,28.16-8.58,28.16-20.44c0-8.43-6-14.72-18.58-17.44l-13.29-2.72c-7.72-1.43-10.15-2.86-10.15-5.72
			c0-3.72,3.72-6,10.58-6c7.43,0,12.87,2,14.44,8.86h15.58c-0.86-12.87-10.15-21.44-29.02-21.44c-16.3,0-27.73,6.72-27.73,19.73
			c0,9.01,6.29,14.87,19.87,17.73l14.87,3.43c5.86,1.14,7.43,2.72,7.43,5.15c0,3.86-4.43,6.29-11.58,6.29
			c-9.01,0-14.15-2-16.15-8.86h-15.72C316.1,336.48,325.67,345.06,345.12,345.06z M309.6,329.48h-11.72c-3.57,0-5.86-1.57-5.86-4.86
			v-28.87h17.58v-14.01h-17.58v-17.58h-15.72v17.58h-11.86v14.01h11.86v32.88c0,8.29,5.86,14.87,16.44,14.87h16.87V329.48z
			 M257.79,281.73v61.75h-15.58v-5.57c-5.43,4.57-12.29,7.15-19.73,7.15c-18.44,0-32.88-14.44-32.88-32.45
			c0-18.01,14.44-32.45,32.88-32.45c7.43,0,14.29,2.57,19.73,7.15v-5.57H257.79z M242.49,312.61c0-10.58-8.29-18.87-18.73-18.87
			c-10.29,0-18.73,8.29-18.73,18.87s8.43,18.87,18.73,18.87C234.2,331.48,242.49,323.19,242.49,312.61z"/>
		<path class="st0" d="M159.81,228.77c11.59,0,20.55-8.96,20.55-22.22v-51.61h12.54v83.62h-12.42v-7.76
			c-5.61,5.85-13.38,9.2-22.1,9.2c-17.92,0-31.66-13.02-31.66-32.73v-52.32h12.54v51.61C139.27,220.04,148.11,228.77,159.81,228.77
			 M202.22,238.56h11.95v-7.65c5.5,5.61,13.26,9.08,21.74,9.08c17.92,0,32.01-14.22,32.01-31.77c0-17.68-14.1-31.9-32.01-31.9
			c-8.48,0-16.13,3.46-21.62,9.08v-30.46h-12.06V238.56z M235.07,229.36c-11.71,0-21.02-9.44-21.02-21.14
			c0-11.83,9.44-21.14,21.02-21.14c11.47,0,20.9,9.32,20.9,21.14C255.97,219.93,246.54,229.36,235.07,229.36 M304,176.44
			c-17.8,0-31.3,14.45-31.3,31.66c0,18.16,14.1,31.77,32.37,31.77c11.11,0,20.19-4.9,26.28-13.02l-8.72-6.45
			c-4.54,6.09-10.51,8.96-17.56,8.96c-10.27,0-18.52-7.41-20.19-17.32h49.57v-3.94C334.46,189.94,321.56,176.44,304,176.44
			 M285.12,202.48c2.15-9.32,9.68-15.53,18.63-15.53c8.96,0,16.48,6.21,18.52,15.53H285.12 M371.85,188.39v-11.23h-4.18
			c-6.69,0-11.59,3.11-14.57,8v-7.53h-11.95v60.92h12.07v-34.64c0-9.44,5.73-15.53,13.62-15.53H371.85z"/>
	</g>
</g>
</svg>
